<?xml version="1.0" encoding="UTF-8"?>
<svg id="Layer_2" data-name="Layer 2" xmlns="http://www.w3.org/2000/svg" viewBox="0 0 215.06 208.54">
  <defs>
    <style>
      .cls-1 {
        fill: #f0f0f0;
      }

      .cls-2, .cls-3 {
        opacity: .7;
      }

      .cls-4, .cls-5, .cls-3, .cls-6 {
        fill: #fff;
      }

      .cls-7 {
        fill: #fafafa;
      }

      .cls-8, .cls-9 {
        opacity: .5;
      }

      .cls-9, .cls-10 {
        fill: #375a64;
      }

      .cls-5 {
        opacity: .4;
      }

      .cls-11 {
        opacity: .6;
      }

      .cls-12 {
        fill: #f5f5f5;
      }

      .cls-13 {
        fill: #00dfbf;
      }

      .cls-14, .cls-6 {
        opacity: .2;
      }

      .cls-15 {
        fill: #b0494c;
      }

      .cls-16 {
        fill: #e1e1e1;
      }

      .cls-17 {
        fill: #e7e7e7;
      }

      .cls-18 {
        opacity: .15;
      }

      .cls-19 {
        fill: #2b454e;
      }

      .cls-20 {
        fill: none;
        stroke: #e1e1e1;
        stroke-miterlimit: 10;
        stroke-width: .34px;
      }

      .cls-21 {
        opacity: .3;
      }

      .cls-22 {
        opacity: .1;
      }

      .cls-23 {
        fill: #ffaaa8;
      }

      .cls-24 {
        fill: #ff9090;
      }

      .cls-25 {
        fill: #c76668;
      }

      .cls-26 {
        fill: #ececec;
      }

      .cls-27 {
        fill: #1a2e35;
      }
    </style>
  </defs>
  <g id="Layer_1-2" data-name="Layer 1">
    <g>
      <ellipse id="Floor" class="cls-1" cx="107.53" cy="146.46" rx="107.53" ry="62.08"/>
      <path id="Shadow" class="cls-16" d="m25.87,168.57l-18.55-10.71c-1.05-.6-1.05-1.58,0-2.19l107.88-62.29c1.05-.6,2.74-.6,3.79,0l18.55,10.71c1.05.6,1.05,1.58,0,2.19l-107.89,62.29c-1.05.6-2.74.6-3.79,0Z"/>
      <polygon id="Shadow-2" data-name="Shadow" class="cls-16" points="105.59 173 61.05 147.28 116.72 115.2 161.21 140.89 105.59 173"/>
      <ellipse id="Shadow-3" data-name="Shadow" class="cls-16" cx="167.1" cy="172.31" rx="21.06" ry="12.16"/>
      <path id="Shadow-4" data-name="Shadow" class="cls-16" d="m195.35,157.67c2.28,1.32,2.28,3.45,0,4.77-2.28,1.32-5.98,1.32-8.27,0s-2.28-3.45,0-4.77c2.28-1.32,5.98-1.32,8.27,0Z"/>
      <g id="Device">
        <g>
          <path class="cls-13" d="m92.54,149.48l15.94-9.22c1.64-.95,2.47-2.19,2.47-3.44,0-1.24,0-2.22,0-2.22l-16.54-9.33c-.88-.51-1.59-1.74-1.59-2.75v-19.66l-27.85,16.09v19.66c0,1.01.71,2.24,1.59,2.75l14.07,8.11c3.29,1.9,8.62,1.9,11.9,0Z"/>
          <g class="cls-11">
            <path d="m92.54,149.48l15.94-9.22c1.64-.95,2.47-2.19,2.47-3.44,0-1.24,0-2.22,0-2.22l-16.54-9.33c-.88-.51-1.59-1.74-1.59-2.75v-19.66l-27.85,16.09v19.66c0,1.01.71,2.24,1.59,2.75l14.07,8.11c3.29,1.9,8.62,1.9,11.9,0Z"/>
          </g>
          <path class="cls-21" d="m71.66,142.11v2.21l-5.1-2.94c-.87-.5-1.59-1.73-1.59-2.75v-19.66l5.31-3.06c.11,1.35.23,2.74.34,4.1l-3.72,2.15v15.36c0,1.02.71,2.25,1.59,2.75l3.18,1.84Z"/>
          <path class="cls-13" d="m66.89,137.52c0,1.01.71,2.24,1.59,2.75l12.15,7c3.29,1.9,8.62,1.9,11.9,0l15.95-9.22c3.29-1.9,3.29-4.97,0-6.87l-12.16-7c-.88-.51-1.59-1.74-1.59-2.75v-15.36s-27.85,16.09-27.85,16.09v15.36Z"/>
          <path class="cls-21" d="m66.89,137.52c0,1.01.71,2.24,1.59,2.75l12.15,7c3.29,1.9,8.62,1.9,11.9,0l15.95-9.22c3.29-1.9,3.29-4.97,0-6.87l-12.16-7c-.88-.51-1.59-1.74-1.59-2.75v-15.36s-27.85,16.09-27.85,16.09v15.36Z"/>
          <path class="cls-8" d="m99.56,126.04h0s-3.23-1.87-3.23-1.87c-.88-.51-1.59-1.74-1.59-2.75v-15.36s-27.85,16.09-27.85,16.09v15.36c0,1.01.71,2.24,1.59,2.75l3.18,1.83,27.91-16.06Z"/>
          <path class="cls-13" d="m110.95,134.61v2.22c0,1.25-.82,2.48-2.47,3.44l-15.95,9.21c-1.58.92-3.62,1.37-5.68,1.41v-2.21c2.06-.03,4.11-.5,5.68-1.41l15.95-9.22c1.64-.94,2.47-2.19,2.47-3.44Z"/>
          <path class="cls-8" d="m110.95,134.61v2.22c0,1.25-.82,2.48-2.47,3.44l-15.95,9.21c-1.58.92-3.62,1.37-5.68,1.41v-2.21c2.06-.03,4.11-.5,5.68-1.41l15.95-9.22c1.64-.94,2.47-2.19,2.47-3.44Z"/>
        </g>
        <path class="cls-13" d="m22.18,156.61c1.03.59,2.75.56,3.85-.07,13.69-7.9,94.02-54.28,107.71-62.18,1.1-.63,1.98-2.17,1.98-3.44V3.79c0-1.27-.83-2.77-1.86-3.37-1.03-.59-2.75-.56-3.85.07L22.3,62.68c-1.1.63-1.98,2.17-1.98,3.44v87.13c0,1.27.83,2.77,1.86,3.37Z"/>
        <path class="cls-13" d="m26.02,156.54l107.71-62.18c1.1-.63,1.98-2.17,1.98-3.44V3.79c0-1.27-.89-1.78-1.98-1.15L26.02,64.83c-1.1.63-1.98,2.17-1.98,3.44v87.13c0,1.27.89,1.78,1.98,1.15Z"/>
        <path class="cls-8" d="m26.02,156.54l107.71-62.18c1.1-.63,1.98-2.17,1.98-3.44V3.79c0-1.27-.89-1.78-1.98-1.15L26.02,64.83c-1.1.63-1.98,2.17-1.98,3.44v87.13c0,1.27.89,1.78,1.98,1.15Z"/>
        <path class="cls-13" d="m25.73,158.8c-1.1.49-2.62.47-3.56-.07-1.03-.6-1.86-2.1-1.86-3.37v-7.93l3.72,2.15v7.93c0,1.15.73,1.68,1.7,1.29Z"/>
        <path class="cls-8" d="m25.73,158.8c-1.1.49-2.62.47-3.56-.07-1.03-.6-1.86-2.1-1.86-3.37v-7.93l3.72,2.15v7.93c0,1.15.73,1.68,1.7,1.29Z"/>
        <path class="cls-13" d="m24.03,149.58v7.93c0,1.27.89,1.78,1.99,1.15l107.71-62.18c1.1-.63,1.98-2.17,1.98-3.44v-7.95L24.03,149.58Z"/>
        <path class="cls-21" d="m24.04,149.56v7.95c0,1.27.89,1.78,1.98,1.15l107.71-62.18c1.1-.63,1.98-2.17,1.98-3.44v-7.95L24.04,149.56Z"/>
        <path class="cls-13" d="m27.76,139.62v-70.13c0-.76.53-1.68,1.19-2.06L130.8,8.63c.66-.38,1.19-.07,1.19.69v70.13c0,.76-.53,1.68-1.19,2.06l-101.85,58.8c-.66.38-1.19.07-1.19-.69Z"/>
        <path class="cls-27" d="m27.76,139.62v-70.13c0-.76.53-1.68,1.19-2.06L130.8,8.63c.66-.38,1.19-.07,1.19.69v70.13c0,.76-.53,1.68-1.19,2.06l-101.85,58.8c-.66.38-1.19.07-1.19-.69Z"/>
        <path class="cls-2" d="m24.62,66.3c-.36.62-.58,1.33-.59,1.96v81.32l-3.72-2.15v-81.31c0-.63.23-1.34.59-1.96l3.72,2.14Z"/>
        <path class="cls-21" d="m135.69,3.46c-.14-1.02-.97-1.39-1.97-.82L26.02,64.83c-.54.31-1.04.85-1.4,1.47l-3.72-2.15c.36-.61.85-1.16,1.4-1.47L130,.5c1.1-.63,2.82-.67,3.85-.07.94.54,1.71,1.85,1.84,3.04Z"/>
      </g>
      <g id="Window">
        <path class="cls-13" d="m36.08,82.92c-.51-.3-.93-1.05-.93-1.68v-7.71c0-.63.44-1.4.99-1.71L137.51,13.28c.55-.32,1.4-.33,1.91-.04s.93,1.05.92,1.68v7.71c0,.63-.44,1.4-.99,1.71l-101.38,58.54c-.55.32-1.4.33-1.91.04Z"/>
        <path class="cls-5" d="m140.34,14.76c-.07-.51-.48-.7-.98-.41l-101.38,58.54c-.27.16-.52.43-.7.74l-1.85-1.07c.18-.31.42-.58.7-.74L137.51,13.29c.54-.31,1.4-.33,1.91-.04.47.27.86.92.92,1.52Z"/>
        <path class="cls-1" d="m37.99,145.67s-.25.18-.78.24c-.41.04-.83-.02-1.14-.2-.52-.3-.93-1.05-.93-1.67v-58.8s1.85,1.07,1.85,1.07v58.79c0,.45.22.71.55.71.05,0,.22-.01.44-.13Z"/>
        <path class="cls-22" d="m37.29,73.63c-.18.31-.29.66-.29.97v11.71l-1.86-1.07v-11.7s0-.08,0-.12c0-.09.02-.16.04-.24.05-.21.13-.42.25-.61l1.85,1.07Z"/>
        <path class="cls-13" d="m140.35,14.92v5.28s-72.7,41.98-72.7,41.98c-.54.31-.99.06-.99-.57v-2c0-.63-.44-.89-.99-.57l-23.97,13.84c-.55.31-.99,1.08-.99,1.71v2c0,.63-.44,1.4-.99,1.71l-2.72,1.57v-5.28c0-.63.44-1.4.99-1.71L139.37,14.35c.54-.31.99-.06.99.57Z"/>
        <g>
          <path class="cls-7" d="m37.55,145.58c-.29,0-.32-.33-.32-.48v-65.09l2.61-1.5c.32-.18.58-1.01,1.09-2.84.27-.97.68-2.42.89-2.59l23.57-13.61c.14.07.6.88.88,1.37.58,1.01.92,1.59,1.31,1.59.04,0,.15-.03.19-.05l72.36-41.78v64.82c0,.55-.4,1.24-.87,1.51l-101.38,58.54c-.12.07-.23.1-.33.1Z"/>
          <path class="cls-16" d="m139.9,20.99v64.43c0,.47-.35,1.08-.76,1.32l-101.38,58.54c-.11.07-.18.07-.21.07-.09,0-.09-.24-.09-.25v-64.96l2.49-1.44c.39-.23.64-1,1.19-2.97.25-.88.62-2.2.82-2.47l23.36-13.49c.2.23.53.82.74,1.19.64,1.12.99,1.7,1.51,1.7.11,0,.21-.03.3-.08l72.02-41.59m-74.4,38.68h0,0m74.85-39.47l-72.7,41.98s-.05.02-.07.02c-.55,0-1.67-2.95-2.23-2.95-.03,0-.05,0-.07.02l-23.57,13.61c-.55.31-1.43,5.11-1.98,5.42l-2.72,1.57v65.22c0,.45.22.71.55.71.13,0,.28-.04.44-.13l101.38-58.54c.55-.31.99-1.08.99-1.71V20.2h0Z"/>
        </g>
        <g>
          <path class="cls-1" d="m54.35,108.4l13.51-7.8c.36-.21.66-.04.66.38v22.75c0,.42-.29.93-.66,1.14l-13.51,7.8c-.36.21-.66.04-.66-.38v-22.75c0-.42.29-.93.66-1.14Z"/>
          <g>
            <path class="cls-16" d="m56.82,109.82l8.57-4.95c.36-.21.66-.06.66.33s-.29.88-.66,1.09l-8.57,4.95c-.36.21-.66.06-.66-.33,0-.39.3-.88.66-1.09Z"/>
            <g>
              <path class="cls-13" d="m56.16,113.51v.51c0,.25.18.35.4.23l.45-.26c.22-.13.4-.43.4-.68v-.51c0-.25-.18-.35-.4-.23l-.45.26c-.22.13-.4.43-.4.68Z"/>
              <path class="cls-16" d="m58.63,112.34c0,.39.29.54.66.33l6.1-3.52c.36-.21.66-.7.66-1.09,0-.39-.29-.54-.66-.33l-6.1,3.52c-.36.21-.66.7-.66,1.09Z"/>
              <path class="cls-13" d="m56.16,116.37v.51c0,.25.18.35.4.23l.45-.26c.22-.13.4-.43.4-.68v-.51c0-.25-.18-.35-.4-.23l-.45.26c-.22.13-.4.43-.4.68Z"/>
              <path class="cls-16" d="m58.63,115.2c0,.39.29.54.66.33l6.1-3.52c.36-.21.66-.7.66-1.09,0-.39-.29-.54-.66-.33l-6.1,3.52c-.36.21-.66.7-.66,1.09Z"/>
              <path class="cls-13" d="m56.16,119.22v.51c0,.25.18.35.4.23l.45-.26c.22-.13.4-.43.4-.68v-.51c0-.25-.18-.35-.4-.23l-.45.26c-.22.13-.4.43-.4.68Z"/>
              <path class="cls-16" d="m58.63,118.05c0,.39.29.54.66.33l6.1-3.52c.36-.21.66-.7.66-1.09,0-.39-.29-.54-.66-.33l-6.1,3.52c-.36.21-.66.7-.66,1.09Z"/>
              <path class="cls-13" d="m56.16,122.07v.51c0,.25.18.35.4.23l.45-.26c.22-.13.4-.43.4-.68v-.51c0-.25-.18-.35-.4-.23l-.45.26c-.22.13-.4.43-.4.68Z"/>
              <path class="cls-16" d="m58.63,120.9c0,.39.29.54.66.33l6.1-3.52c.36-.21.66-.7.66-1.09,0-.39-.29-.54-.66-.33l-6.1,3.52c-.36.21-.66.7-.66,1.09Z"/>
            </g>
          </g>
          <g>
            <path class="cls-16" d="m56.76,125.55l8.57-4.95c.36-.21.66-.06.66.33s-.29.88-.66,1.09l-8.57,4.95c-.36.21-.66.06-.66-.33,0-.39.3-.88.66-1.09Z"/>
            <g>
              <path class="cls-13" d="m56.11,129.24v.51c0,.25.18.35.4.23l.45-.26c.22-.13.4-.43.4-.68v-.51c0-.25-.18-.35-.4-.23l-.45.26c-.22.13-.4.43-.4.68Z"/>
              <path class="cls-16" d="m58.58,128.07c0,.39.29.54.66.33l6.1-3.52c.36-.21.66-.7.66-1.09s-.29-.54-.66-.33l-6.1,3.52c-.36.21-.66.7-.66,1.09Z"/>
            </g>
          </g>
        </g>
        <g>
          <path class="cls-4" d="m135.72,18.24c.69-.4,1.24-.08,1.24.72s-.56,1.76-1.24,2.15c-.69.4-1.24.08-1.24-.72s.56-1.76,1.24-2.15Z"/>
          <path class="cls-4" d="m131.24,20.82c.69-.4,1.24-.08,1.24.72s-.56,1.76-1.24,2.15c-.69.4-1.24.08-1.24-.72s.56-1.76,1.24-2.15Z"/>
          <path class="cls-4" d="m126.77,23.4c.69-.4,1.24-.08,1.24.72s-.56,1.76-1.24,2.15c-.69.4-1.24.08-1.24-.72s.56-1.76,1.24-2.15Z"/>
        </g>
        <g>
          <path class="cls-17" d="m140.35,20.2v6.43l-103.35,59.68v-6.43l2.03-1.18c.54-.31.73-.79.99-1.71l.69-2.39c.22-.83.44-1.4.99-1.71l23.57-13.61c.55-.31.97-.35,1.39.34l.85,1.53c.31.54.47.85,1.01.54l71.84-41.48Z"/>
          <polygon class="cls-16" points="37 79.88 37 86.31 35.15 85.23 35.15 78.81 37 79.88"/>
        </g>
        <g>
          <path class="cls-9" d="m41.54,80.34l-1.55.9.59-1.14c.05-.1.06-.22.01-.28-.05-.05-.12-.02-.18.08l-.84,1.62s0,0,0,0c0,.02-.02.04-.02.06,0,0,0,.01,0,.02,0,.03-.01.06-.01.08s0,.05.01.07c0,0,0,0,0,.01,0,.01.01.03.02.03,0,0,0,0,0,0l.84.65s.05.02.08,0c.03-.02.07-.06.09-.12.05-.11.04-.22-.01-.26l-.59-.45,1.55-.9c.07-.04.12-.16.12-.26s-.06-.16-.12-.12Z"/>
          <path class="cls-9" d="m42.83,79.6l1.55-.9-.59-.45c-.05-.04-.06-.16-.01-.26.05-.11.12-.16.18-.12l.84.65s0,0,0,0c0,0,.02.02.02.03,0,0,0,0,0,.01,0,.02.01.04.01.07s0,.06-.01.08c0,0,0,.01,0,.02,0,.02-.01.04-.02.06,0,0,0,0,0,0l-.84,1.62s-.05.08-.08.09c-.03.02-.07.02-.09-.01-.05-.05-.04-.18.01-.28l.59-1.14-1.55.9c-.07.04-.12-.01-.12-.12s.06-.22.12-.26Z"/>
          <path class="cls-9" d="m47.92,75.13c0-.09-.09-.08-.13.02l-.21.52c-.36-.04-.8.31-1.1.94-.38.81-.38,1.78,0,2.15.19.18.44.19.7.04.25-.15.5-.44.7-.85.05-.1.05-.22,0-.27s-.13,0-.18.1c-.29.61-.75.88-1.04.6-.29-.28-.29-.99,0-1.6.2-.43.5-.69.75-.7l-.16.39c-.04.1,0,.2.06.15l.63-.41s.08-.11.07-.17l-.09-.91Z"/>
          <path class="cls-9" d="m64.59,62.21l.57-1.2c.07-.14.07-.31,0-.37-.07-.06-.18,0-.24.14l-.57,1.2-.57-.54c-.07-.06-.18,0-.24.14s-.07.31,0,.37l.57.54-.57,1.2c-.07.14-.07.31,0,.37.03.03.08.03.12,0,.04-.03.09-.08.12-.15l.57-1.2.57.54s.08.03.12,0c.04-.03.09-.08.12-.15.07-.14.07-.31,0-.37l-.57-.54Z"/>
          <path class="cls-7" d="m49.98,76.6v-2c0-.63.44-1.4.99-1.71l82.84-47.81c.55-.32.99-.06.99.57v2c0,.63-.44,1.4-.99,1.71l-82.84,47.81c-.55.32-.99.06-.99-.57Z"/>
          <path class="cls-20" d="m133.23,26.14l.26.55s.05.05.08.03l.58-.22c.09-.04.13.09.06.22l-.42.79s-.04.11-.03.15l.1.71c.02.11-.08.26-.16.25l-.52-.06s-.07.02-.1.06l-.52.66c-.08.11-.18.07-.16-.06l.1-.83c0-.05,0-.09-.03-.11l-.42-.3c-.07-.05-.03-.22.06-.29l.58-.45s.07-.08.08-.13l.26-.85c.04-.14.16-.2.2-.12Z"/>
          <g class="cls-8">
            <path class="cls-10" d="m135.96,24.84c-.12,0-.23-.06-.3-.17-.09-.16-.04-.37.13-.47l2.78-1.61c.16-.09.37-.04.47.13.09.16.04.37-.13.47l-2.78,1.61c-.05.03-.11.05-.17.05Z"/>
            <path class="cls-10" d="m135.96,26.44c-.12,0-.23-.06-.3-.17-.09-.16-.04-.37.13-.47l2.78-1.61c.16-.1.37-.04.47.13.09.16.04.37-.13.47l-2.78,1.61c-.05.03-.11.05-.17.05Z"/>
            <path class="cls-10" d="m135.96,28.05c-.12,0-.23-.06-.3-.17-.09-.16-.04-.37.13-.47l2.78-1.61c.16-.1.37-.04.47.13.09.16.04.37-.13.47l-2.78,1.61c-.05.03-.11.05-.17.05Z"/>
          </g>
        </g>
        <g>
          <polygon class="cls-10" points="37 86.31 37 92.72 140.34 33.06 140.35 26.63 37 86.31"/>
          <g>
            <g>
              <path class="cls-7" d="m48.58,82.21v1.24c0,.25.18.36.4.23l15.53-8.97v-2.16s-15.53,8.97-15.53,8.97c-.22.13-.4.44-.4.69Z"/>
              <path class="cls-13" d="m66.61,71.34c.22-.13.4-.02.4.23v1.24c0,.25-.18.56-.4.69l-2.1,1.21v-2.16s2.1-1.21,2.1-1.21Z"/>
              <path class="cls-7" d="m66.45,73.04l-.23-.07c.02-.1.04-.2.04-.3,0-.24-.08-.42-.21-.5-.1-.06-.22-.05-.34.02-.26.15-.47.58-.47.97,0,.24.08.42.21.5.05.03.1.04.15.04.06,0,.13-.02.19-.06.16-.09.29-.28.38-.51l.23.07s.02,0,.03,0c.04,0,.07-.02.08-.06.01-.05-.01-.09-.06-.11Zm-.75.45c-.06.04-.12.04-.17.02-.08-.05-.13-.18-.13-.35,0-.33.17-.7.38-.82.04-.02.07-.03.11-.03.02,0,.04,0,.06.02.08.05.13.18.13.35,0,.33-.17.7-.38.82Z"/>
            </g>
            <path class="cls-7" d="m45.87,83.32l-1.06.61c-.22.13-.4.43-.4.68v1.23c0,.25.18.35.4.23l1.06-.61c.22-.13.4-.43.4-.68v-1.23c0-.25-.18-.35-.4-.23Z"/>
            <g>
              <g>
                <path class="cls-13" d="m82.67,61.56c-.78.45-1.42,1.55-1.42,2.45,0,.9.63,1.27,1.42.82.78-.45,1.42-1.55,1.42-2.45,0-.9-.63-1.27-1.42-.82Z"/>
                <g>
                  <path class="cls-4" d="m82.5,63s-.09-.01-.13-.03c-.09-.05-.14-.15-.14-.28,0-.24.16-.53.37-.65h0c.11-.07.22-.07.31-.02.09.05.14.15.14.28,0,.24-.16.53-.37.65-.06.04-.13.06-.19.06Z"/>
                  <path class="cls-4" d="m83.23,63.09c-.14-.08-.32-.07-.5.04l-.21.12c-.36.21-.64.69-.64,1.1v.15c.2.11.48.09.78-.08.3-.18.58-.47.78-.82v-.04c0-.22-.08-.39-.22-.47Z"/>
                </g>
              </g>
              <path class="cls-16" d="m85.91,60.46l9.7-5.6c.39-.23.71-.05.71.38,0,.44-.32.98-.71,1.21l-9.7,5.6c-.39.23-.71.05-.71-.38,0-.44.32-.98.71-1.21Z"/>
              <path class="cls-16" d="m100.72,51.92l6.02-3.51c.39-.23.71-.05.71.38s-.32.98-.71,1.21l-6.02,3.51c-.39.23-.71.05-.71-.38s.32-.98.71-1.21Z"/>
              <path class="cls-16" d="m111.85,45.52l4.15-2.41c.39-.23.71-.05.71.38s-.32.98-.71,1.21l-4.15,2.41c-.39.23-.71.05-.71-.38,0-.44.32-.98.71-1.21Z"/>
              <path class="cls-27" d="m98.18,55.44c-.09,0-.17-.08-.17-.17v-2.14c0-.09.08-.17.17-.17s.17.08.17.17v2.14c0,.09-.08.17-.17.17Z"/>
              <g>
                <path class="cls-27" d="m109.3,49.02c-.09,0-.17-.08-.17-.17v-2.14c0-.09.08-.17.17-.17s.17.08.17.17v2.14c0,.09-.08.17-.17.17Z"/>
                <path class="cls-27" d="m118.57,43.66c-.09,0-.17-.08-.17-.17v-2.14c0-.09.08-.17.17-.17s.17.08.17.17v2.14c0,.09-.08.17-.17.17Z"/>
              </g>
            </g>
            <g>
              <g>
                <path class="cls-13" d="m122.13,40.36v-.39c0-.45-.27-.66-.61-.46h0c-.34.19-.61.72-.61,1.17v.35c0,.22-.08.47-.21.69,0,0,0,0,0,0-.03.06-.05.12-.05.18h0c0,.11.07.17.15.12l1.42-.82c.08-.05.15-.18.15-.29h0c0-.06-.02-.1-.04-.12,0,0,0,0,0,0-.13-.06-.21-.2-.21-.41Z"/>
                <path class="cls-13" d="m121.82,41.55c0,.22-.13.47-.29.56-.16.09-.29,0-.29-.22l.59-.34Z"/>
              </g>
              <g>
                <g>
                  <path class="cls-13" d="m124.74,38.64c-.05,0-.1-.01-.14-.04-.1-.06-.15-.17-.15-.32,0-.27.18-.59.42-.73h0c.13-.07.25-.08.35-.03.1.06.15.17.15.32,0,.27-.18.59-.42.73-.07.04-.15.06-.21.06Z"/>
                  <path class="cls-13" d="m125.56,38.74c-.16-.09-.36-.08-.56.04l-.23.13c-.4.23-.72.78-.72,1.25v.16c.23.13.54.1.88-.09.34-.2.66-.54.88-.92v-.04c0-.24-.09-.44-.25-.53Z"/>
                </g>
                <g>
                  <path class="cls-13" d="m125.87,37.58c-.05,0-.1-.01-.14-.04-.1-.06-.15-.17-.15-.32,0-.27.18-.59.42-.73h0c.13-.07.25-.08.35-.03.1.06.15.17.15.32,0,.27-.18.59-.42.73-.07.04-.15.06-.21.06Z"/>
                  <path class="cls-13" d="m126.69,37.69c-.16-.09-.36-.08-.57.04l-.23.14c-.25.14-.47.41-.59.69.18-.09.36-.09.5,0,.16.09.25.28.25.53v.1c.35-.2.66-.53.89-.92v-.04c0-.25-.09-.44-.25-.53Z"/>
                </g>
              </g>
              <path class="cls-13" d="m129.51,34.77c-.64.37-1.16,1.27-1.16,2.02,0,.32.1.55.26.69l-.15.69c-.02.09.04.12.1.06l.52-.61c.13-.02.28-.06.43-.15.64-.37,1.16-1.27,1.16-2.02s-.52-1.05-1.16-.68Z"/>
              <path class="cls-13" d="m135.09,31.52c.1-.06.2-.09.29-.1.09,0,.17,0,.23.04.07.04.12.1.16.18.04.08.06.19.06.31,0,.1-.01.2-.03.28-.02.09-.05.17-.08.25-.03.08-.07.16-.11.23-.04.07-.08.14-.12.21-.04.07-.07.14-.1.21-.03.07-.05.14-.06.21,0,.03-.01.07-.03.09s-.03.05-.05.06l-.33.19s-.04.01-.05,0c-.01-.01-.02-.04-.02-.07,0-.09.01-.18.04-.27.02-.09.06-.17.09-.25.04-.08.08-.16.12-.23.04-.08.08-.15.12-.21.04-.07.07-.13.09-.19.02-.06.04-.12.04-.18,0-.08-.02-.13-.06-.16-.04-.02-.1-.01-.19.04-.08.05-.14.1-.18.16-.04.06-.06.11-.08.17-.02.05-.03.1-.04.15-.01.04-.03.08-.07.1l-.33.19s-.03,0-.04,0c-.01-.01-.02-.03-.02-.06,0-.1.02-.21.05-.34.03-.13.08-.26.15-.38.07-.13.14-.25.24-.36.09-.11.2-.2.32-.27Zm.24,2.73s0,.06-.02.09c-.01.03-.03.05-.05.06l-.34.2s-.04.01-.05,0c-.01-.01-.02-.04-.02-.07v-.42s0-.06.02-.09c.01-.03.03-.05.05-.06l.34-.2s.04-.01.05,0c.01.01.02.04.02.07v.42Z"/>
            </g>
          </g>
        </g>
        <g>
          <g>
            <path class="cls-13" d="m53.69,86.38v19.12c0,.63.44.89.99.57l68.01-39.27c.55-.32.99-1.08.99-1.71v-19.12c0-.63-.44-.89-.99-.57l-68.01,39.28c-.55.32-.99,1.08-.99,1.71Z"/>
            <path class="cls-3" d="m53.69,86.38v19.12c0,.63.44.89.99.57l68.01-39.27c.55-.32.99-1.08.99-1.71v-19.12c0-.63-.44-.89-.99-.57l-68.01,39.28c-.55.32-.99,1.08-.99,1.71Z"/>
          </g>
          <g>
            <path class="cls-13" d="m59.25,89.16c-2.05,1.18-3.71,4.06-3.71,6.42,0,2.36,1.66,3.32,3.71,2.14,2.05-1.18,3.71-4.06,3.71-6.42,0-2.36-1.66-3.32-3.71-2.14Z"/>
            <g>
              <path class="cls-4" d="m58.81,92.93c-.12,0-.23-.03-.33-.09-.23-.13-.36-.4-.36-.74,0-.63.43-1.37.98-1.69h0c.3-.17.59-.19.82-.06.23.13.36.4.36.74,0,.63-.43,1.37-.98,1.69-.17.1-.34.15-.49.15Z"/>
              <path class="cls-4" d="m60.71,93.18c-.36-.21-.83-.18-1.31.1l-.54.31c-.94.54-1.67,1.81-1.67,2.89v.38c.53.29,1.25.24,2.05-.22.8-.46,1.52-1.24,2.05-2.14v-.09c0-.57-.21-1.01-.58-1.23Z"/>
            </g>
          </g>
          <g>
            <path class="cls-10" d="m65.52,88.38l7.85-4.53c.39-.23.71-.08.71.32s-.32.91-.71,1.14l-7.85,4.54c-.39.23-.71.08-.71-.32,0-.4.32-.91.71-1.14Z"/>
            <path class="cls-10" d="m65.23,91.42l4.62-2.67c.23-.13.42-.05.42.19s-.19.54-.42.67l-4.62,2.67c-.23.13-.42.05-.42-.19,0-.24.19-.54.42-.67Z"/>
          </g>
          <path class="cls-12" d="m54.67,106.09l68.01-39.27c.55-.32.99-1.08.99-1.71v-3.13l-69.99,40.41v3.14c0,.63.44.89.99.57Z"/>
          <g>
            <path class="cls-26" d="m72.22,95.04c-.09,0-.17-.08-.17-.17v-2.14c0-.09.08-.17.17-.17s.17.08.17.17v2.14c0,.09-.08.17-.17.17Z"/>
            <path class="cls-16" d="m63.93,97.85l6.02-3.51c.39-.23.71-.05.71.38,0,.44-.32.98-.71,1.21l-6.02,3.51c-.39.23-.71.05-.71-.38,0-.44.32-.98.71-1.21Z"/>
            <path class="cls-26" d="m83.09,88.72c-.09,0-.17-.08-.17-.17v-2.14c0-.09.08-.17.17-.17s.17.08.17.17v2.14c0,.09-.08.17-.17.17Z"/>
            <path class="cls-16" d="m74.8,91.54l6.02-3.51c.39-.23.71-.05.71.38,0,.44-.32.98-.71,1.21l-6.02,3.51c-.39.23-.71.05-.71-.38,0-.44.32-.98.71-1.21Z"/>
            <path class="cls-26" d="m93.96,82.41c-.09,0-.17-.08-.17-.17v-2.14c0-.09.08-.17.17-.17s.17.08.17.17v2.14c0,.09-.08.17-.17.17Z"/>
            <path class="cls-16" d="m85.66,85.23l6.02-3.51c.39-.23.71-.05.71.38,0,.44-.32.98-.71,1.21l-6.02,3.51c-.39.23-.71.05-.71-.38,0-.44.32-.98.71-1.21Z"/>
            <path class="cls-26" d="m104.82,76.09c-.09,0-.17-.08-.17-.17v-2.14c0-.09.08-.17.17-.17s.17.08.17.17v2.14c0,.09-.08.17-.17.17Z"/>
            <path class="cls-16" d="m96.53,78.91l6.02-3.51c.39-.23.71-.05.71.38,0,.44-.32.98-.71,1.21l-6.02,3.51c-.39.23-.71.05-.71-.38,0-.44.32-.98.71-1.21Z"/>
            <path class="cls-16" d="m107.39,72.6l6.02-3.51c.39-.23.71-.05.71.38,0,.44-.32.98-.71,1.21l-6.02,3.51c-.39.23-.71.05-.71-.38,0-.44.32-.98.71-1.21Z"/>
          </g>
        </g>
      </g>
      <g id="Plants">
        <path class="cls-13" d="m51.3,170.16l6.07-3.5s3.76-11.08,2.81-21.29c-1.18-12.68-7.17-17.14-10.69-15.72-3.52,1.41-2.79,6.47.94,13.24,2.96,5.37,2.96,17.75.88,27.26Z"/>
        <path class="cls-22" d="m51.3,170.16l6.07-3.5s3.76-11.08,2.81-21.29c-1.18-12.68-7.17-17.14-10.69-15.72-3.52,1.41-2.79,6.47.94,13.24,2.96,5.37,2.96,17.75.88,27.26Z"/>
        <path class="cls-4" d="m54.21,168.77c.12,0,.22-.07.26-.19,3.91-11.96,4.07-28.76-3.32-36.33-.11-.11-.28-.11-.39,0-.11.11-.11.28,0,.39,6.98,7.15,7.1,23.81,3.19,35.78-.05.14.03.3.18.35.03,0,.06.01.09.01Z"/>
        <g>
          <path class="cls-13" d="m40.4,176.45c-.63.36-1.92-.43-2.42-.76-.85-.57-1.54-1.38-1.99-2.29-.53-1.06-.67-2.2-.5-3.37.09-.61.26-1.2.43-1.79.17-.58.33-1.16.5-1.74.16-.57.33-1.17.26-1.76-.15-1.19-1.21-2.03-2.17-2.75-1.06-.8-2.17-1.85-2.16-3.28,0-1.11.58-2.13,1.26-3,.69-.87,1.5-1.64,2.12-2.55.45-.66.79-1.43.72-2.23-.05-.49-.25-.96-.49-1.39-.51-.93-1.17-1.79-1.52-2.79-.35-1-.3-2.25.48-2.97.64-.59,1.6-.67,2.47-.61.8.05,1.59.42,2.29.81,2.28,1.27,3.58,3.96,5.99,4.94.93.38,1.95.46,2.92.71.97.26,1.96.75,2.41,1.65.89,1.77-.76,3.95-.14,5.83.55,1.66,2.17,2.3,3.08,3.8.4.66.49,1.41.42,2.18-.11,1.29-.3,2.24-.92,3.68-.51,1.19-2.02,3.32-2.02,3.32-.04.04-10.93,6.32-11.03,6.37Z"/>
          <path class="cls-4" d="m46.91,172.93c.12,0,.23-.09.24-.22,1.17-9.29-3.26-21.83-9.89-27.94-.1-.09-.25-.09-.35.01-.09.1-.09.25.01.35,6.52,6.02,10.89,18.37,9.73,27.52-.02.13.08.26.21.27.01,0,.02,0,.03,0Z"/>
          <path class="cls-4" d="m45.77,161.04c.07,0,.15-.03.2-.1.08-.11.06-.26-.05-.34-3.66-2.74-9.24-2.26-9.48-2.24-.13.01-.23.13-.22.27.01.14.14.23.27.22.06,0,5.64-.48,9.14,2.15.04.03.1.05.15.05Z"/>
          <path class="cls-4" d="m45.22,158.76c.13,0,.24-.1.25-.24.17-4.26,3.38-6.83,3.41-6.85.11-.08.13-.24.04-.34-.08-.11-.24-.13-.34-.04-.14.11-3.43,2.73-3.6,7.22,0,.14.1.25.24.25,0,0,0,0,0,0Z"/>
        </g>
      </g>
      <g id="Post">
        <g>
          <path class="cls-26" d="m105.59,168.72c-8.2-4.73-13.8-12.95-15.21-22.31l-3.24-21.48c-1.25-8.27-5.77-15.7-12.56-20.59l-4.22-3.05v2.41s2.29,1.65,2.29,1.65c6.77,4.89,11.29,12.29,12.55,20.54l3.3,21.63c1.42,9.34,7.02,17.53,15.2,22.25l1.88,1.09v-2.14h0Z"/>
          <g>
            <path class="cls-7" d="m105.59,168.45c-8.12-4.74-13.58-12.78-14.98-22.08l-3.24-21.48c-1.25-8.28-5.86-15.84-12.65-20.74l-3.94-2.84,51.47-29.72,4.1,2.96c6.69,4.83,11.24,12.28,12.47,20.44l3.24,21.48c1.41,9.36,6.86,17.45,14.98,22.27l-51.45,29.71Z"/>
            <path class="cls-16" d="m122.25,71.86l3.98,2.87c6.64,4.79,11.15,12.19,12.37,20.29l3.24,21.48c1.4,9.3,6.76,17.36,14.76,22.24l-51,29.45c-8-4.71-13.37-12.66-14.76-21.85l-3.24-21.48c-1.26-8.34-5.9-15.96-12.74-20.9l-3.65-2.63,51.04-29.47m.03-.54l-51.91,29.97,4.22,3.05c6.79,4.9,11.31,12.32,12.56,20.59l3.24,21.48c1.41,9.36,7.01,17.57,15.21,22.31l51.91-29.97c-8.2-4.73-13.8-12.95-15.21-22.31l-3.24-21.48c-1.25-8.27-5.77-15.7-12.56-20.59l-4.22-3.05h0Z"/>
          </g>
          <polygon class="cls-12" points="105.59 168.72 157.5 138.75 157.5 140.89 105.59 170.86 105.59 168.72"/>
        </g>
        <g>
          <path class="cls-13" d="m80.07,99.67c-1.81.77-2,2.35-.43,3.54,1.57,1.18,4.31,1.52,6.13.75,1.81-.77,2.01-2.35.43-3.54-1.57-1.18-4.32-1.52-6.13-.75Z"/>
          <g>
            <path class="cls-4" d="m82.03,101.6c-.15.01-.31,0-.47-.01-.38-.05-.72-.17-.95-.34-.42-.32-.37-.73.11-.93h0c.26-.11.62-.15,1-.1.38.05.72.17.95.34.42.32.37.73-.11.93-.15.06-.33.1-.53.12Z"/>
            <path class="cls-4" d="m84.6,101.56c-.6-.07-1.17-.02-1.59.16l-.48.2c-.83.35-.91,1.05-.19,1.59l.25.19c.86.1,1.87.07,2.58-.2.78-.3,1.26-.65,1.33-1.15l-.35-.23c-.38-.28-.94-.49-1.56-.56Z"/>
          </g>
        </g>
        <g>
          <path class="cls-10" d="m88.5,96.31l15.24-8.8c.55-.32,1.42-.29,1.91.1.05.04.09.07.14.11.49.39.44.98-.11,1.3l-15.23,8.82c-.55.32-1.37.23-1.86-.16-.05-.04-.11-.08-.16-.13-.5-.39-.48-.92.06-1.24Z"/>
          <path class="cls-10" d="m91.85,99.86l7.63-4.4c.27-.16.31-.46.08-.68l-.14-.13c-.23-.22-.63-.26-.91-.11l-7.59,4.44c-.27.16-.31.46-.08.68l.1.09c.23.22.63.27.91.11Z"/>
        </g>
        <g>
          <path class="cls-14" d="m86.86,108.22l41.14-23.75c.55-.32,1.29-.16,1.65.36.03.04.06.08.08.12.35.52.18,1.21-.37,1.53l-41.15,23.77c-.55.32-1.25.13-1.6-.39-.03-.04-.06-.09-.09-.13-.35-.52-.21-1.19.33-1.51Z"/>
          <path class="cls-14" d="m89.36,112.28l41.18-23.77c.55-.32,1.23-.12,1.5.45.02.04.04.09.06.13.27.57.03,1.3-.52,1.61l-41.18,23.8c-.55.32-1.18.1-1.45-.47-.02-.05-.05-.1-.07-.15-.27-.57-.06-1.28.48-1.59Z"/>
          <path class="cls-14" d="m91.21,116.68l41.21-23.79c.55-.32,1.16-.09,1.34.52.02.07.04.13.06.2.18.61-.14,1.36-.68,1.67l-41.22,23.81c-.55.32-1.11.07-1.28-.53-.02-.07-.04-.15-.06-.22-.18-.6.1-1.34.64-1.66Z"/>
          <path class="cls-14" d="m92.4,121.48l23.95-13.83c.55-.32,1.07-.07,1.16.56l.05.32c.1.62-.27,1.38-.81,1.7l-23.96,13.85c-.55.32-1.06.07-1.16-.56-.02-.11-.03-.22-.05-.34-.09-.62.27-1.38.82-1.7Z"/>
        </g>
        <g>
          <path class="cls-13" d="m141.93,134.5l-39.2,22.64c-1.09.63-2.62.34-3.31-.71-2.48-3.8-4.13-8.53-4.97-14.19l-1.57-10.4c-.19-1.25.54-2.77,1.64-3.4l39.27-22.67c1.09-.63,2.13-.13,2.32,1.12l1.57,10.41c.63,5.37,2.26,10.11,4.92,14.21.68,1.06.43,2.38-.66,3.01Z"/>
          <path class="cls-3" d="m141.93,134.5l-39.2,22.64c-1.09.63-2.62.34-3.31-.71-2.48-3.8-4.13-8.53-4.97-14.19l-1.57-10.4c-.19-1.25.54-2.77,1.64-3.4l39.27-22.67c1.09-.63,2.13-.13,2.32,1.12l1.57,10.41c.63,5.37,2.26,10.11,4.92,14.21.68,1.06.43,2.38-.66,3.01Z"/>
          <path class="cls-13" d="m102.73,157.14l39.2-22.64c1.09-.63,1.35-1.95.66-3.01-1.27-1.97-2.31-4.09-3.11-6.35l-12.16-3.43-5.4,11.98,5.86,4.72-20.46-10.77-10.47,23.79c.73,1.81,1.58,3.48,2.57,5,.69,1.06,2.22,1.34,3.31.71Z"/>
          <path class="cls-13" d="m119.17,119.17c1.44-.83,2.82-.14,3.07,1.54.25,1.68-.71,3.72-2.15,4.56-1.44.83-2.82.14-3.07-1.54-.25-1.68.71-3.72,2.15-4.56Z"/>
        </g>
        <g>
          <g>
            <g>
              <path class="cls-13" d="m131.07,147.91c-.13,0-.26,0-.4-.01-.32-.04-.6-.14-.79-.28-.35-.26-.31-.61.1-.78h0c.22-.09.52-.12.84-.09.32.04.6.14.79.28.35.26.31.61-.09.78-.13.05-.28.09-.44.1Z"/>
              <path class="cls-13" d="m133.22,147.88c-.5-.06-.97-.01-1.33.14l-.4.17c-.69.29-.76.88-.16,1.33l.21.16c.72.08,1.56.06,2.16-.17.65-.25,1.06-.54,1.11-.96l-.3-.19c-.32-.24-.79-.41-1.3-.47Z"/>
            </g>
            <path class="cls-13" d="m133.97,146.16l-1.47.07-.4.35c-.07.06-.06.16,0,.22l.4.31,1.49-.06-.03-.89Zm-1.57.62c-.06,0-.11-.05-.11-.11s.05-.11.11-.11.11.05.11.11-.05.11-.11.11Z"/>
          </g>
          <g>
            <path class="cls-13" d="m141.58,143.56c-.02.22-.29.41-.45.5-.28.16-.64.28-1.03.33-.36-.41.31-1.14,1.48-.84Z"/>
            <path class="cls-13" d="m141.64,142.12c-1.08-.89-2.77-1.22-3.96-.54s-1.42,2.12-.33,3.01c1.09.89,3.04.91,4.22.22,1.18-.68,1.14-1.8.06-2.69Zm-1.81-.19c.19-.11.46-.06.61.09.15.15.14.35-.05.46s-.48.08-.63-.07c-.15-.16-.11-.38.08-.49Zm-2.16,1.66c-.15-.16-.11-.38.08-.49s.46-.06.61.09c.15.15.14.35-.05.46-.19.11-.48.08-.63-.07Zm3.58.67c-.43.25-1.03.4-1.65.4-.54,0-1.04-.11-1.44-.3l3.06-1.73c.39.32.6.67.58.96-.03.31-.32.54-.56.68Z"/>
          </g>
          <path class="cls-13" d="m148.07,138.11c-.09-.16-.23-.31-.4-.46-.75-.62-1.93-.85-2.76-.38s-.99,1.48-.23,2.1c.09.07.2.14.31.2,0,0,0,0,.01,0,1.36.78,3.86.88,3.86.88,0,0,0-1.29-.78-2.36Zm-1.19.86c-.39.23-1.05.22-1.41-.07s-.29-.78.11-1.01c.4-.23.96-.12,1.32.18.36.3.37.67-.02.9Z"/>
        </g>
      </g>
      <g id="Character">
        <g>
          <g>
            <g>
              <path class="cls-23" d="m197.66,142.93l-5.87,17.13c-.17.5-.88.5-1.04,0l-5.79-17.26,12.71.14Z"/>
              <path class="cls-27" d="m190.74,160.05c.17.5.87.5,1.04,0l1.15-3.34h0c-1.01.54-2.23.47-3.17-.18l-.26-.18,1.24,3.69Z"/>
              <path class="cls-13" d="m185.17,66.41v1.68s-.02,2.02-.02,2.02l-.21,72.68c1.34,1.54,3.33,2.31,5.35,2.52,3.07.32,6.22-.69,7.35-2.38l.2-72.63v-3.87c-.14,2.5-12.79,2.5-12.68-.02Z"/>
              <path class="cls-26" d="m185.13,72.79v3.74c-.04,1.08,2.27,1.79,4.94,2.03,3.54.34,7.71-.62,7.76-2.06v-2.76s0-.99,0-.99c-.05,1.44-4.22,2.4-7.77,2.06-2.56-.24-4.79-.9-4.92-1.91h0s-.01-.08,0-.12Z"/>
              <path class="cls-13" d="m185.14,73.73c-.09,2.52,12.61,2.49,12.7-.03l.02-3.75c-.09,2.52-12.79,2.55-12.7.03l-.02,3.75Z"/>
              <path class="cls-26" d="m185.17,66.41l-.02,3.7c-.11,2.47,12.15,2.55,12.7.18.02-.04.02-.09.02-.14v-3.72c-.16,2.5-12.82,2.5-12.7-.02Z"/>
            </g>
            <path class="cls-24" d="m197.92,50.57v-.16c0-1.8-2.84-3.27-6.35-3.27s-6.35,1.46-6.35,3.27v1.7l-.06,14.3c-.05,1.07,2.23,1.78,4.88,2.04,3.54.35,7.73-.59,7.81-2.02t0-.02l.06-15.74s0-.09,0-.1Z"/>
            <ellipse class="cls-6" cx="191.57" cy="50.41" rx="6.35" ry="3.27"/>
            <path class="cls-22" d="m197.85,70.29l.07-19.73c-.09,1.55-2.72,3.01-5.59,3.11l-.2,91.69-.34,14.69,5.87-17.13h0s0,0,0,0l.2-72.63Z"/>
          </g>
          <g>
            <path class="cls-25" d="m177.32,85.57c2.41-.35,5.39,1.47,7.46,4.38,2.07,2.91,9.29,10,10.08,12.25.58,1.65.24,4.73-3.16,3.28-3.29-1.4-13.78-11.69-13.78-11.69l-.6-8.22Z"/>
            <path class="cls-19" d="m176.17,85.57s1.53-.32,2.36-.26c.83.06,2.71.55,4.64,2.43,1.93,1.88,6.94,7.96,6.94,7.96,0,0,.22,1.7-1.46,3.61-1.68,1.9-3.25,1.9-3.25,1.9l-7.45-6.16-1.8-9.47Z"/>
            <path class="cls-25" d="m192.52,98.86l5.27-7.69.02-5.65s1.17.39,1.63,2.21c.46,1.82,1.04,3.94.81,5.49-.23,1.55-3.9,10.93-5.87,12.26-1.98,1.33-1.87-6.63-1.87-6.63Z"/>
          </g>
        </g>
        <g>
          <polygon class="cls-25" points="168.7 83.02 169.73 89.52 176.17 89.18 175.24 81.63 168.7 83.02"/>
          <g>
            <path class="cls-15" d="m164.36,75.05s-1.54,2.33-1.36,2.56c.17.23,1.3.44,1.3.44l.06-2.99Z"/>
            <path class="cls-25" d="m168.63,68.61c-3.11.66-4,2.02-4.3,6.96-.31,5.16.22,6.78.9,7.47.46.47,3,.55,4.28.2,1.6-.44,5.23-1.73,6.93-4.32,2-3.05,2.52-7.19.38-8.88-3.01-2.39-6.93-1.69-8.19-1.42Z"/>
            <path class="cls-15" d="m168.75,83.38s.87-.15,1.64-.41c0,0-.45.61-1.56.9l-.08-.49Z"/>
          </g>
          <g>
            <path class="cls-27" d="m164.13,70.17c.4.24.87.41,1.35.55.76.22.64.5.75,1.2.09.62.39,1.22.85,1.64.29.27.51.29.61.7.1.41.01.87.02,1.29,0,.86.56,1.51.82.36,0,0,.49-1.91,2.1-1.67,1.62.24,1.75,2.05.98,3.47-.47.86-1.71.64-1.71.64,0,0-.28,2.38,1.68,4.32,0,0,1.6,1.19,4.09-.04,1.45-1.89,2.02-2.89,2.85-4.34,1.11-1.94,2.07-4.32,1.7-6.6-.14-.84-.49-1.65-1.08-2.26-.43-.45-.4-.53-.52-1.14-.1-.51-.37-.98-.78-1.31-.62-.5-1.53-.63-2.27-.31,0-.8-.67-1.48-1.44-1.69-.77-.21-1.59-.02-2.31.32-.41-.74-1.22-1.25-2.07-1.31-.85-.05-1.72.35-2.22,1.04-.21-.37-.65-.58-1.08-.62-.43-.04-.86.07-1.27.2-.34.11-.68.24-.98.42-1.13.67-1.73,2.13-1.4,3.4.22.83.7,1.36,1.32,1.73Z"/>
            <path class="cls-27" d="m178.68,69.66l1.86-1.1c-.3-.51-.96-.68-1.48-.38-.51.3-.68.96-.38,1.48Z"/>
          </g>
        </g>
        <g>
          <path class="cls-27" d="m180.41,166.13l.04.42c.05.55.11,1.11.04,1.66-.05.38-.16.9-.51,1.11-.36.21-.8.38-1.21.47-.93.22-1.95.14-2.81-.28-.73-.35-1.3-.91-2.09-1.13-.81-.23-1.65-.31-2.48-.41-.37-.04-.74-.09-1.1-.2-.27-.09-.53-.22-.79-.36-.86-.45-1.71-.97-2.34-1.71-.41-.48-.72-1.05-.84-1.67-.07-.37-.22-1.42.39-1.39,2.99.13,5.95.77,8.94.74.19,0,.39,0,.58.02.37.06.7.25,1,.47.35.25.48.26.92.22.52-.04,1.03-.11,1.55.02.22.06.45.15.53.36.03.07.04.15.04.23.05.48.09.95.14,1.43Z"/>
          <path class="cls-25" d="m180.11,162.55l-.15,2.25c-.15.86-3.07,1.38-3.67-.14l-.29-2.55,4.11.44Z"/>
          <g>
            <path class="cls-27" d="m168.99,171.46s.36,1.17.54,2.19c.15.81.35,2.17.05,2.77-.3.6-1.41.97-3.12.92-1.11-.03-2.85.68-4.05,1.31-1.24.65-3.79.87-5.08.69-1.52-.21-3.08-1.13-3.31-1.77-.23-.64.11-1.28,3.74-2.73.03-.01,5.03-1.51,6.81-3.39h4.42Z"/>
            <path class="cls-25" d="m169.02,170.02s-.03.99-.04,1.56c0,.57-.7,1.4-2.43,1.3-1.22-.07-2.06-.42-1.99-1.42l.03-1.45h4.42Z"/>
          </g>
          <g>
            <path class="cls-13" d="m181.29,145.26c-.51-4.38-.9-6.9-.9-6.9,0,0,.09-6.11.45-11.8.39-6.15.3-13.89.45-15.43,0,0-19.76-4.22-19.92,2.9-.19,8.28.36,25.41.48,27.64.16,3.13.17,6.39.7,11.47.52,5.02,2.05,16.86,2.05,16.86,2.24,1.28,4.42,0,4.42,0,0,0,1.72-14.2,1.65-17.81-.08-4.41-.75-7.81-.75-7.81l1.56-16.07s.61,4.97.77,8.1c.16,3.13.59,5.04,1.37,10.87.67,5.05,2.38,15.72,2.38,15.72,2.24,1.28,4.2-.17,4.2-.17,0,0,1.6-13.22,1.09-17.6Z"/>
            <path class="cls-21" d="m181.29,145.26c-.51-4.38-.9-6.9-.9-6.9,0,0,.09-6.11.45-11.8.39-6.15.3-13.89.45-15.43,0,0-19.76-4.22-19.92,2.9-.19,8.28.36,25.41.48,27.64.16,3.13.17,6.39.7,11.47.52,5.02,2.05,16.86,2.05,16.86,2.24,1.28,4.42,0,4.42,0,0,0,1.72-14.2,1.65-17.81-.08-4.41-.75-7.81-.75-7.81l1.56-16.07s.61,4.97.77,8.1c.16,3.13.59,5.04,1.37,10.87.67,5.05,2.38,15.72,2.38,15.72,2.24,1.28,4.2-.17,4.2-.17,0,0,1.6-13.22,1.09-17.6Z"/>
            <path class="cls-18" d="m178.99,120.86s-1.37,2.26-5.52,3.91l-1.16,3.88-.13,6.82c-.16-2.2-.4-4.6-.71-7.14l.47-4s4.59-1.39,7.05-3.48Z"/>
          </g>
        </g>
        <path class="cls-10" d="m182.05,89.78c-.79-2.82-2.66-4.07-4.73-4.2-.53-.03-1.59.01-1.59.01.15,1.2-3.54,2.04-6.41,1.37-.86.23-2.3.55-3.02.79-2.06.68-4.53,3.26-4.85,9.98,0,0-.33,14.45-.23,18.64,5.09,2.15,10,2.42,12.97,1.84,6.17-1.2,7.19-3.85,7.19-3.85,0,0-.06-3.67-.29-9.53,1.05-8.33,1.3-13.83.96-15.05Z"/>
        <g>
          <path class="cls-25" d="m157.97,113.72c1.19.84,1.71,1.75,1.8,3.21.08,1.31.08,2.74.7,3.93.1.2.64.64.85.58v-1.68c.35-.43,1.28-1.24,1.52-1.74.4-.83-.07-1.84.18-2.73.11-.39.3-.69.31-1.11.01-.98-.26-1.91-1.03-2.53-.9-.73-1.72-1.65-2.53-2.47-1.06-1.06-2.53-2.63-3.59-3.7l7.11-6.82c.82-.78,1.5-1.69,2.03-2.7,1.16-2.23,2.75-6.16.98-8.23-2.53,0-3.97.39-6.56,3.4-2.23,2.6-9.36,11.14-10.27,12.59s-1.44,2.44.31,4.04c1.23,1.12,2.96,2.33,4.48,3.42,1.19.86,2.5,1.67,3.71,2.52Z"/>
          <path class="cls-15" d="m156.19,105.49s-.97.97-2.18,1.49c0,0,1.65-.21,2.67-.99l-.49-.5Z"/>
          <path class="cls-19" d="m167.1,87.51s-1.53-.1-3.07.23-2.57,1.12-5.24,4.13c-2.67,3.01-4.54,5.49-4.54,5.49,0,0-.77,1.7,1.37,3.62,2.14,1.92,4.06,1.59,4.06,1.59l5.99-5.82s4.27-4.48,1.42-9.24Z"/>
        </g>
      </g>
    </g>
  </g>
</svg>