<?xml version="1.0" encoding="UTF-8"?>
<svg id="Layer_2" data-name="Layer 2" xmlns="http://www.w3.org/2000/svg" xmlns:xlink="http://www.w3.org/1999/xlink" viewBox="0 0 217 218.46">
  <defs>
    <style>
      .cls-1 {
        fill: url(#linear-gradient-2);
      }

      .cls-2 {
        fill: url(#linear-gradient-51);
      }

      .cls-3, .cls-4, .cls-5 {
        fill: #fff;
      }

      .cls-6 {
        fill: url(#linear-gradient-17);
      }

      .cls-7 {
        fill: url(#linear-gradient-43);
      }

      .cls-8 {
        fill: url(#linear-gradient-15);
      }

      .cls-9 {
        fill: url(#linear-gradient-18);
      }

      .cls-10 {
        fill: url(#linear-gradient-40);
      }

      .cls-11 {
        fill: url(#_3);
      }

      .cls-12 {
        fill: url(#linear-gradient-28);
      }

      .cls-13 {
        fill: url(#linear-gradient-14);
      }

      .cls-14 {
        fill: url(#linear-gradient-36);
      }

      .cls-15 {
        fill: url(#linear-gradient-20);
      }

      .cls-16 {
        fill: url(#linear-gradient-6);
      }

      .cls-4 {
        opacity: .5;
      }

      .cls-17 {
        fill: url(#linear-gradient-35);
      }

      .cls-18 {
        fill: url(#linear-gradient-48);
      }

      .cls-19 {
        fill: url(#linear-gradient-32);
      }

      .cls-20 {
        fill: url(#linear-gradient-11);
      }

      .cls-21 {
        fill: url(#linear-gradient-50);
      }

      .cls-22 {
        fill: url(#linear-gradient-39);
      }

      .cls-23 {
        fill: url(#linear-gradient-10);
      }

      .cls-24 {
        fill: #666694;
      }

      .cls-25 {
        fill: url(#linear-gradient-49);
      }

      .cls-26 {
        fill: url(#linear-gradient-37);
      }

      .cls-27 {
        fill: url(#linear-gradient-16);
      }

      .cls-28 {
        fill: url(#linear-gradient-31);
      }

      .cls-29 {
        fill: #007f68;
      }

      .cls-30 {
        fill: url(#linear-gradient-41);
      }

      .cls-31 {
        fill: url(#linear-gradient-21);
      }

      .cls-32 {
        opacity: .66;
      }

      .cls-33 {
        fill: url(#linear-gradient-25);
      }

      .cls-34 {
        fill: url(#linear-gradient-5);
      }

      .cls-35 {
        fill: url(#linear-gradient-45);
      }

      .cls-5 {
        opacity: .2;
      }

      .cls-36 {
        fill: url(#linear-gradient-34);
      }

      .cls-37 {
        fill: url(#linear-gradient-7);
      }

      .cls-38 {
        fill: url(#linear-gradient-24);
      }

      .cls-39 {
        fill: url(#linear-gradient-9);
      }

      .cls-40 {
        fill: url(#linear-gradient-22);
      }

      .cls-41 {
        fill: url(#linear-gradient-42);
      }

      .cls-42 {
        fill: url(#linear-gradient-3);
      }

      .cls-43 {
        fill: url(#linear-gradient-27);
      }

      .cls-44 {
        fill: url(#linear-gradient-33);
      }

      .cls-45 {
        fill: url(#linear-gradient-38);
      }

      .cls-46 {
        fill: url(#linear-gradient-29);
      }

      .cls-47 {
        fill: url(#linear-gradient-30);
      }

      .cls-48 {
        fill: url(#linear-gradient-23);
      }

      .cls-49 {
        fill: url(#linear-gradient-19);
      }

      .cls-50 {
        fill: url(#linear-gradient-4);
      }

      .cls-51 {
        fill: url(#linear-gradient-8);
      }

      .cls-52 {
        fill: url(#linear-gradient-44);
      }

      .cls-53 {
        fill: url(#linear-gradient);
        opacity: .3;
      }

      .cls-54 {
        fill: url(#linear-gradient-47);
      }

      .cls-55 {
        fill: url(#linear-gradient-46);
      }

      .cls-56 {
        fill: url(#linear-gradient-12);
      }

      .cls-57 {
        fill: url(#linear-gradient-13);
      }

      .cls-58 {
        fill: url(#linear-gradient-26);
      }
    </style>
    <linearGradient id="linear-gradient" x1="244.88" y1="279.68" x2="53.18" y2="41.6" gradientUnits="userSpaceOnUse">
      <stop offset="0" stop-color="#b9fcf2"/>
      <stop offset="1" stop-color="#f6f8fb"/>
    </linearGradient>
    <linearGradient id="linear-gradient-2" x1="-6295.11" y1="3162.57" x2="-6172.29" y2="3162.57" gradientTransform="translate(-1498.15 -6746.38) rotate(-75.94)" xlink:href="#linear-gradient"/>
    <linearGradient id="linear-gradient-3" x1="98.8" y1="659.73" x2="157.16" y2="590.77" gradientTransform="translate(119.4 -528.76) rotate(4.5)" xlink:href="#linear-gradient"/>
    <linearGradient id="linear-gradient-4" x1="181.74" y1="7.42" x2="155.8" y2="91.97" gradientUnits="userSpaceOnUse">
      <stop offset="0" stop-color="#3c769e"/>
      <stop offset="1" stop-color="#cefbf5"/>
    </linearGradient>
    <linearGradient id="linear-gradient-5" x1="78.48" y1="26.8" x2="140.88" y2="26.8" gradientUnits="userSpaceOnUse">
      <stop offset="0" stop-color="#fdb531"/>
      <stop offset=".66" stop-color="#d4e6cd"/>
      <stop offset="1" stop-color="#cee1ce"/>
    </linearGradient>
    <linearGradient id="linear-gradient-6" x1="140.1" y1="70.65" x2=".12" y2="282.2" gradientUnits="userSpaceOnUse">
      <stop offset="0" stop-color="#66c6ba"/>
      <stop offset="1" stop-color="#1c2e43"/>
    </linearGradient>
    <linearGradient id="linear-gradient-7" x1="206.94" y1="76.44" x2="97.8" y2="182.42" xlink:href="#linear-gradient-6"/>
    <linearGradient id="linear-gradient-8" x1="57.53" y1="57.71" x2="82.7" y2="57.71" gradientUnits="userSpaceOnUse">
      <stop offset="0" stop-color="#2b3582"/>
      <stop offset="1" stop-color="#150e42"/>
    </linearGradient>
    <linearGradient id="linear-gradient-9" x1="735.18" y1="-909.64" x2="708.25" y2="-860.09" gradientTransform="translate(-777.73 826.11) rotate(10.58)" gradientUnits="userSpaceOnUse">
      <stop offset="0" stop-color="#53d8ff"/>
      <stop offset="1" stop-color="#3840f7"/>
    </linearGradient>
    <linearGradient id="linear-gradient-10" x1="1397.07" y1="-6026.57" x2="1197.09" y2="-6171.05" gradientTransform="translate(-6047.66 951.36) rotate(69.68)" gradientUnits="userSpaceOnUse">
      <stop offset="0" stop-color="#fdf53f"/>
      <stop offset=".66" stop-color="#e57a58"/>
      <stop offset="1" stop-color="#d93c65"/>
    </linearGradient>
    <linearGradient id="linear-gradient-11" x1="2846.44" y1="-6130.2" x2="2646.83" y2="-6274.41" gradientTransform="translate(-6459.38 45.23) rotate(71.04) scale(.78 1)" xlink:href="#linear-gradient-10"/>
    <linearGradient id="linear-gradient-12" x1="92.63" y1="45.27" x2="73.25" y2="91.81" gradientUnits="userSpaceOnUse">
      <stop offset="0" stop-color="#cb236d"/>
      <stop offset="1" stop-color="#4c246d"/>
    </linearGradient>
    <linearGradient id="linear-gradient-13" x1="327.79" y1="-267.89" x2="316.13" y2="-238.73" gradientTransform="translate(-268.87 333.32) rotate(3.96)" xlink:href="#linear-gradient-9"/>
    <linearGradient id="linear-gradient-14" x1="320.9" y1="-259.24" x2="299.2" y2="-225.54" gradientTransform="translate(-268.87 333.32) rotate(3.96)" xlink:href="#linear-gradient-9"/>
    <linearGradient id="linear-gradient-15" x1="325.63" y1="-312.05" x2="323.36" y2="-230.41" gradientTransform="translate(-268.87 333.32) rotate(3.96)" xlink:href="#linear-gradient-9"/>
    <linearGradient id="linear-gradient-16" x1="-1526.54" y1="-2704.82" x2="-1535.8" y2="-2686.83" gradientTransform="translate(384.23 -2980.94) rotate(-144.66)" xlink:href="#linear-gradient-9"/>
    <linearGradient id="linear-gradient-17" x1="343.54" y1="-247.79" x2="311.47" y2="-220.26" gradientTransform="translate(-268.87 333.32) rotate(3.96)" xlink:href="#linear-gradient-9"/>
    <linearGradient id="linear-gradient-18" x1="-7575.81" y1="-167.55" x2="-7566.79" y2="-167.55" gradientTransform="translate(7586.98 -144.44) rotate(-3.99)" xlink:href="#linear-gradient-8"/>
    <linearGradient id="linear-gradient-19" x1="-7574.89" y1="-171.75" x2="-7571.23" y2="-171.75" gradientTransform="translate(7586.98 -144.44) rotate(-3.99)" gradientUnits="userSpaceOnUse">
      <stop offset="0" stop-color="#f9b776"/>
      <stop offset="1" stop-color="#f47960"/>
    </linearGradient>
    <linearGradient id="linear-gradient-20" x1="-7552.35" y1="-194.66" x2="-7538.2" y2="-194.66" gradientTransform="translate(7584.65 541.89) rotate(1.01)" xlink:href="#linear-gradient-8"/>
    <linearGradient id="linear-gradient-21" x1="-7541.55" y1="-200.21" x2="-7537.91" y2="-200.21" gradientTransform="translate(7578.62 410.87) rotate(.02)" xlink:href="#linear-gradient-19"/>
    <linearGradient id="_3" data-name="  3" x1="25.2" y1="176.1" x2="17.4" y2="113.68" gradientUnits="userSpaceOnUse">
      <stop offset="0" stop-color="#2b3582"/>
      <stop offset=".65" stop-color="#1d1c58"/>
      <stop offset="1" stop-color="#150e42"/>
    </linearGradient>
    <linearGradient id="linear-gradient-22" x1="-7195.17" y1="170.45" x2="-7221.69" y2="219.18" gradientTransform="translate(7204.6 897.66) rotate(7.79)" xlink:href="#linear-gradient-19"/>
    <linearGradient id="linear-gradient-23" x1="17.24" y1="146.98" x2="51.71" y2="97.69" gradientTransform="matrix(1,0,0,1,0,0)" xlink:href="#linear-gradient-10"/>
    <linearGradient id="linear-gradient-24" x1="-5319.51" y1="-2220.09" x2="-5312.96" y2="-2220.09" gradientTransform="translate(-1269.73 5731.25) rotate(80.76)" xlink:href="#linear-gradient-19"/>
    <linearGradient id="linear-gradient-25" x1="60.94" y1="100.77" x2="-11.35" y2="169.87" gradientTransform="matrix(1,0,0,1,0,0)" xlink:href="#linear-gradient-10"/>
    <linearGradient id="linear-gradient-26" x1="43.51" y1="106.73" x2="57.6" y2="171.74" gradientTransform="matrix(1,0,0,1,0,0)" xlink:href="#linear-gradient-10"/>
    <linearGradient id="linear-gradient-27" x1="-4290.76" y1="-1721.49" x2="-4282.92" y2="-1721.49" gradientTransform="translate(-171.85 3563.96) rotate(63.83) scale(.7 1) skewX(-.01)" xlink:href="#linear-gradient-19"/>
    <linearGradient id="linear-gradient-28" x1="-2216.28" y1="-426.89" x2="-2228.16" y2="-411.18" gradientTransform="translate(2098.33 -832.11) rotate(-35.23)" xlink:href="#linear-gradient-19"/>
    <linearGradient id="linear-gradient-29" x1="-2225.35" y1="-423.12" x2="-2211.17" y2="-423.12" gradientTransform="translate(2098.33 -832.11) rotate(-35.23)" xlink:href="#linear-gradient-8"/>
    <linearGradient id="linear-gradient-30" x1="-2233.68" y1="-414.45" x2="-2224.15" y2="-424.23" gradientTransform="translate(2098.33 -832.11) rotate(-35.23)" xlink:href="#linear-gradient-19"/>
    <linearGradient id="linear-gradient-31" x1="59.5" y1="57.7" x2="84.1" y2="57.7" xlink:href="#linear-gradient-8"/>
    <linearGradient id="linear-gradient-32" x1="156.55" y1="144.67" x2="128.6" y2="186.06" gradientTransform="matrix(1,0,0,1,0,0)" xlink:href="#linear-gradient-10"/>
    <linearGradient id="linear-gradient-33" x1="-5740.73" y1="154.91" x2="-5740.86" y2="156.64" gradientTransform="translate(5880.33)" gradientUnits="userSpaceOnUse">
      <stop offset="0" stop-color="#a737d5"/>
      <stop offset="1" stop-color="#ef497a"/>
    </linearGradient>
    <linearGradient id="linear-gradient-34" x1="-5734.37" y1="156.27" x2="-5734.5" y2="158.01" xlink:href="#linear-gradient-33"/>
    <linearGradient id="linear-gradient-35" x1="-5726.45" y1="138.11" x2="-5728.64" y2="115.65" gradientTransform="translate(5880.33)" xlink:href="#linear-gradient-19"/>
    <linearGradient id="linear-gradient-36" x1="187.93" y1="173.71" x2="182.04" y2="206.77" gradientTransform="matrix(1,0,0,1,0,0)" xlink:href="#linear-gradient-33"/>
    <linearGradient id="linear-gradient-37" x1="-5723.57" y1="560.78" x2="-5716.79" y2="560.78" gradientTransform="translate(5943.74 99.89) rotate(4.46)" xlink:href="#linear-gradient-8"/>
    <linearGradient id="linear-gradient-38" x1="-5752.2" y1="587.5" x2="-5742.45" y2="473.52" gradientTransform="translate(5943.74 99.89) rotate(4.46)" xlink:href="#linear-gradient-19"/>
    <linearGradient id="linear-gradient-39" x1="-5755.05" y1="559.54" x2="-5744.09" y2="559.54" gradientTransform="translate(5943.74 99.89) rotate(4.46)" xlink:href="#linear-gradient-8"/>
    <linearGradient id="linear-gradient-40" x1="-5732.59" y1="589.19" x2="-5722.83" y2="475.19" gradientTransform="translate(5943.74 99.89) rotate(4.46)" xlink:href="#linear-gradient-19"/>
    <linearGradient id="linear-gradient-41" x1="175.16" y1="120.87" x2="154.88" y2="151.5" gradientTransform="matrix(1,0,0,1,0,0)" xlink:href="#linear-gradient-10"/>
    <linearGradient id="linear-gradient-42" x1="172.55" y1="130.78" x2="181.37" y2="205.47" gradientTransform="matrix(1,0,0,1,0,0)" xlink:href="#linear-gradient-9"/>
    <linearGradient id="linear-gradient-43" x1="174.92" y1="127.34" x2="170.06" y2="104.49" gradientTransform="matrix(1,0,0,1,0,0)" xlink:href="#linear-gradient-19"/>
    <linearGradient id="linear-gradient-44" x1="182.6" y1="174.37" x2="209.39" y2="169.73" gradientTransform="matrix(1,0,0,1,0,0)" xlink:href="#linear-gradient-33"/>
    <linearGradient id="linear-gradient-45" x1="184.05" y1="122.11" x2="187.97" y2="166.8" gradientTransform="matrix(1,0,0,1,0,0)" xlink:href="#linear-gradient-19"/>
    <linearGradient id="linear-gradient-46" x1="210.04" y1="127.92" x2="193.25" y2="169.02" gradientTransform="matrix(1,0,0,1,0,0)" xlink:href="#linear-gradient-33"/>
    <linearGradient id="linear-gradient-47" x1="-5722.43" y1="1223.48" x2="-5706.74" y2="1234.14" gradientTransform="translate(6000.69 -346.65) rotate(7.69)" xlink:href="#linear-gradient-19"/>
    <linearGradient id="linear-gradient-48" x1="-5286.33" y1="1643.99" x2="-5257.12" y2="1672.81" gradientTransform="translate(6000.69 -346.65) rotate(7.69)" xlink:href="#linear-gradient-8"/>
    <linearGradient id="linear-gradient-49" x1="-5722.02" y1="1222.17" x2="-5706.34" y2="1232.83" gradientTransform="translate(6000.69 -346.65) rotate(7.69)" xlink:href="#linear-gradient-19"/>
    <linearGradient id="linear-gradient-50" x1="166.58" y1="89.73" x2="195.78" y2="118.55" xlink:href="#linear-gradient-8"/>
    <linearGradient id="linear-gradient-51" x1="59.79" y1="26.75" x2="122.2" y2="26.75" xlink:href="#linear-gradient-5"/>
  </defs>
  <g id="Layer_1-2" data-name="Layer 1">
    <g>
      <path class="cls-53" d="m192.14,185.79c-4.4,4.64-8.57,7.62-11.86,9.99-38.69,27.76-84.48,19.67-94.21,17.69-14.37-2.92-42.14-8.56-62.22-32.17C-6.53,145.57-1.8,89.28,21.77,52.13,26.08,45.33,48.85,7.61,95.12,1.56c28.01-3.66,60.65,3.72,84.3,23.53,49.63,41.58,46.09,125.57,12.73,160.7Z"/>
      <path class="cls-1" d="m48.37,40.76c-1.42-6.86,17-19.05,11.21-32.74l-14.18-4.85s2.07,18.61-2.51,25.54c-4.58,6.93-7.76,2.59-7.06-2.42.69-5.01,8.2-17.55,5.09-22.96,0,0-2.49-4.27-7.3-.01-4.81,4.26-15.49.7-18.89-2.86,0,0,.18,2.88-2.49,9.59-2.67,6.7-5.84,13.26.01,16.14,5.85,2.88,14.67,3.55,14.64,7.56-.03,4.01-16.35,6.14-21.6-5.72,0,0-5.06,10.34-3.92,13.75,1.14,3.41,7.33,6.87,16.88,4.44,9.55-2.43,14.65-.68,14.63,2.33-.02,3.01-28.77,5.91-32.44-4.07,0,0-1.09,21.42.13,23.85,1.22,2.43,13.8,2.04,21.23-1.11,7.43-3.15,15.08-.54,16.79,2.06,1.71,2.6-8.51,1.11-13.14,2.88-4.63,1.77-24.97.5-24.97.5,0,0,2.45,1.51,3.16,8.8.71,7.28,6.13,18.87,10.55,17.7,4.42-1.17,24.23-10.82,31.13-11.47,6.89-.66,12.57.28,9.51,2.92-3.06,2.64-11.95,3.62-18.12,6.2-6.16,2.58-21.18,11.19-24.97,8.55,0,0,6.82,18.43,25.25,19.38,0,0,8.41-5.17,12.61-13.46,4.2-8.29,6.33-11.58,9.54-11.15,3.21.43.25,6.12-2.5,11.22-2.75,5.09-8.91,17.07-13.21,17.94,0,0,27.82-.2,30.93-18.92,2.91-17.56,1.03-19.65.78-19.84.97.65,30.33,20.08,39.66-18.28,0,0-4.58,8.16-10.82,7.69-6.25-.46-15.95,4.93-16.2.49-.25-4.45,22.43-2.71,26.35-11.43,3.92-8.72-1.32-22.34-11.36-25.56,0,0,.47,8.76-7.29,14.48-7.76,5.73-19.77,11.34-17.44,4.09,2.33-7.25,25.11-18.35,25.86-24.74.75-6.39-18.86-17.67-18.86-17.67,0,0-.15,3.37-4.72,13.78-4.57,10.41-11.92,21.31-13.33,18.48-1.42-2.83,3.88-9.61,8.38-15.84,4.5-6.24,6.58-16,3.4-18.56-3.19-2.56-14.8-7.91-14.8-7.91,0,0-3.2,14.49-4.01,21.19-.81,6.7-10.18,16.9-11.6,10.05Zm25.62,35.58c-6.08,6.96-6.27-.85-5.26-6.15.77-4.02,11.34-.81,5.26,6.15Zm-10.58-14c-3.92,4.69-7.04,4.16-6.81.77.51-7.79,10.73-5.46,6.81-.77Zm-12.9-13.47c-1.96,2.68-3.41,3.19-4.81-.31-1.41-3.5,6.77-2.38,4.81.31Z"/>
      <g>
        <path class="cls-42" d="m125.48,166s34.82-64.94,78.87-93.71c2.96-1.93,6.89.16,6.92,3.69.18,23.65-5.99,93.6-85.79,90.01Z"/>
        <path class="cls-4" d="m133.27,163.46c-.21.12-.06.43.16.34,8.08-3.22,40.7-20.95,63.37-67.51.07-.15-.14-.27-.23-.13-6.3,10.52-30.83,48.94-63.3,67.3Z"/>
      </g>
      <g>
        <path class="cls-50" d="m109.78,152.35S128.74,56.9,173.31,3.58c3-3.58,8.77-2.46,10.16,2,9.34,29.81,28.5,120.55-73.69,146.77Z"/>
        <path class="cls-4" d="m118.99,145.91c-.22.23.1.58.35.38,9.3-7.46,44.97-43.73,56.07-113.83.04-.23-.3-.3-.35-.08-4.05,16.3-20.84,76.48-56.07,113.53Z"/>
      </g>
      <g>
        <path class="cls-34" d="m139.57,53.23c0-.09-.36-8.87-2.57-19.06-2.03-9.35-6.08-21.83-13.85-28.21-4.33-3.56-9.43-4.9-15.16-4-6.72,1.06-12.37,4.38-16.81,9.88-3.58,4.43-6.39,10.28-8.34,17.38-3.35,12.14-3.03,23.85-3.03,23.97l-1.32.04c0-.12-.32-12.03,3.08-24.36,2.01-7.28,4.9-13.28,8.59-17.86,4.65-5.76,10.58-9.24,17.63-10.35,6.12-.96,11.57.48,16.2,4.29,6.47,5.32,11.28,15.07,14.3,28.97,2.24,10.3,2.6,19.18,2.6,19.27l-1.32.05Z"/>
        <path class="cls-16" d="m22.4,202.03L45.55,42.42l86.95-1.46,28.02,169.95H29.93c-4.65,0-8.21-4.2-7.53-8.87Z"/>
        <path class="cls-37" d="m149.39,42.42l-16.89-1.46,28.02,169.95h16.76c3.4,0,5.94-3.18,5.25-6.56l-33.15-161.92Z"/>
      </g>
      <g>
        <path class="cls-51" d="m76.89,66.74c-8.47,0-15.3-2.73-18.1-7.45-1.93-3.26-1.63-6.93.83-10.35.21-.3.62-.36.92-.15.3.21.36.62.15.92-2.14,2.97-2.41,6.13-.77,8.91,2.34,3.96,9.52,8.03,22.03,6.48.36-.05.69.21.73.57.04.36-.21.69-.57.73-1.8.22-3.55.33-5.23.33Z"/>
        <polygon class="cls-39" points="73.38 111.12 112.32 78.29 71.04 105.46 73.38 111.12"/>
        <g>
          <path class="cls-23" d="m132.72,131.59l-14.54-37.7-48.36,18.69,14.26,37.5c.54,1.42,2.33,2.05,4.01,1.41l42.58-16.19c1.67-.64,2.6-2.3,2.06-3.72Z"/>
          <path class="cls-5" d="m128.57,130.68l-13.41-35.27-43.17,16.42,13.41,35.27c.51,1.34,2.13,1.96,3.61,1.4l37.79-14.37c1.49-.57,2.28-2.11,1.77-3.45Z"/>
          <path class="cls-3" d="m124.91,121.4c-.16,0-.31-.1-.37-.26l-7.63-20.07c-.08-.2.02-.43.23-.51.2-.08.43.02.51.23l7.63,20.07c.08.2-.02.43-.23.51-.05.02-.09.03-.14.03Z"/>
          <path class="cls-3" d="m127.93,129.36c-.16,0-.31-.1-.37-.26l-1.67-4.39c-.08-.2.02-.43.23-.51.2-.08.43.03.51.23l1.67,4.39c.08.2-.02.43-.23.51-.05.02-.09.03-.14.03Z"/>
          <path class="cls-29" d="m99.69,115.59c.92,6.37-1.36,9.98-4.41,10.42-3.12.45-6.12-2.44-6.99-8.25-.83-5.72,1.06-9.84,4.49-10.33,3.53-.51,6.13,2.72,6.91,8.17Zm-2.51,23.1l8.41-33.12,2.4-.35-8.41,33.12-2.4.35Zm-5.7-21.59c.47,3.49,1.76,5.92,3.44,5.68,1.68-.24,2.15-2.78,1.62-6.45-.48-3.35-1.56-5.95-3.37-5.69-1.71.25-2.18,3.07-1.69,6.46Zm25.37,8.83c.91,6.32-1.32,9.97-4.41,10.42-3.08.44-6.12-2.44-6.97-8.3-.82-5.67,1.06-9.84,4.45-10.33,3.53-.51,6.13,2.77,6.92,8.21Zm-8.21,1.52c.46,3.45,1.76,5.92,3.44,5.68,1.71-.25,2.15-2.78,1.62-6.45-.49-3.4-1.56-5.95-3.37-5.69-1.71.25-2.18,3.07-1.69,6.46Z"/>
        </g>
        <g>
          <path class="cls-20" d="m118.5,94.84l-11.64-33.89c-.16-.47-.57-.84-1.15-1.05l-18.38-6.53c-.74-.26-1.7-.24-2.62.08l-14.32,4.92c-.92.32-1.69.88-2.12,1.55l-10.45,16.44c-.33.52-.42,1.06-.26,1.53l11.54,33.59,49.39-16.64Z"/>
          <path class="cls-5" d="m115.6,95.43l-10.9-31.71c-.15-.44-.52-.8-1.04-1l-16.54-6.45c-.67-.26-1.53-.25-2.34.03l-12.71,4.37c-.81.28-1.5.8-1.86,1.42l-9.05,15.24c-.29.48-.36.99-.21,1.43l10.9,31.71,43.74-15.03Z"/>
          <path class="cls-3" d="m64.08,89.65c-.16,0-.32-.1-.37-.27l-3.39-9.85c-.23-.66-.19-1.39.1-2.06l1.41-3.24c.09-.2.32-.29.52-.2.2.09.29.32.2.52l-1.41,3.24c-.21.49-.24,1.01-.08,1.49l3.39,9.85c.07.21-.04.43-.25.5-.04.01-.09.02-.13.02Z"/>
          <path class="cls-3" d="m68.48,66.12c-.07,0-.15-.02-.22-.07-.18-.12-.23-.37-.11-.55l1.96-2.97c.43-.65,1.19-1.2,2.09-1.51l12.71-4.37c.9-.31,1.83-.34,2.57-.09l16.19,5.44c.63.21,1.07.61,1.25,1.14l.36,1.04c.07.21-.04.43-.25.5-.21.07-.43-.04-.5-.25l-.36-1.04c-.1-.28-.37-.51-.76-.64l-16.19-5.44c-.57-.19-1.34-.16-2.06.09l-12.71,4.37c-.73.25-1.36.7-1.69,1.2l-1.96,2.97c-.08.12-.2.18-.33.18Z"/>
          <g>
            <g>
              <g>
                <g>
                  <path class="cls-29" d="m77.94,84.54l-2.41-3.9-3.9-.83-.21.95,3.49.73,7.47,12.06.22.34,14.61-4.33c1.42-.42,2.54-1.5,2.96-2.92l.41-1.05c.38-1.3.5-2.7.11-4l-1.03-3.49-21.73,6.44Zm21.72-2.64c.33,1.12.27,2.32-.06,3.44l-.32,1.15c-.32,1.1-1.17,2.06-2.27,2.38l-13.9,4.12-1.59-2.59-3.02-4.89,20.43-6.05.73,2.45Z"/>
                  <path class="cls-29" d="m101.98,93.33c.08.26-.06.58-.32.66l-17.14,5.08c-.26.08-.56-.23-.64-.49l-2.4-8.08c-.03-.09,0-.09.02-.17l1.61,2.66.23-.07,1.46,4.94,16.56-4.91c.26-.08.55.12.62.38Z"/>
                </g>
                <g>
                  <rect class="cls-29" x="89.57" y="81.73" width=".65" height="9.18" transform="translate(-20.82 29.09) rotate(-16.5)"/>
                  <g>
                    <rect class="cls-29" x="84.04" y="83.37" width=".65" height="9.18" transform="translate(-21.51 27.59) rotate(-16.5)"/>
                    <rect class="cls-29" x="94.96" y="80.13" width=".65" height="9.18" transform="translate(-20.14 30.56) rotate(-16.5)"/>
                  </g>
                </g>
                <g>
                  <rect class="cls-29" x="78.99" y="84.45" width="21.23" height=".58" transform="translate(-20.38 28.94) rotate(-16.5)"/>
                  <rect class="cls-29" x="80.81" y="87.45" width="19.77" height=".58" transform="translate(-21.19 29.38) rotate(-16.5)"/>
                </g>
              </g>
              <path class="cls-29" d="m86.91,99.07c-1.12.33-1.75,1.5-1.42,2.62.33,1.12,1.5,1.75,2.62,1.42,1.12-.33,1.75-1.5,1.42-2.62-.33-1.12-1.5-1.75-2.62-1.42Zm.96,3.24c-.67.2-1.38-.18-1.58-.86-.2-.67.18-1.38.86-1.58.67-.2,1.38.18,1.58.86.2.67-.18,1.38-.86,1.58Z"/>
              <path class="cls-29" d="m99.47,95.34c-1.12.33-1.75,1.5-1.42,2.62.33,1.12,1.5,1.75,2.62,1.42,1.12-.33,1.75-1.5,1.42-2.62-.33-1.12-1.5-1.75-2.62-1.42Zm.96,3.24c-.67.2-1.38-.18-1.58-.86-.2-.67.18-1.38.86-1.58.67-.2,1.38.18,1.58.86.2.67-.18,1.38-.86,1.58Z"/>
            </g>
            <path class="cls-29" d="m73.95,80.01c.16.52-.14,1.08-.67,1.23l-3.16.94c-.52.16-1.08-.14-1.23-.67h0c-.16-.52.14-1.08.67-1.23l3.16-.94c.52-.16,1.08.14,1.23.67h0Z"/>
          </g>
          <g>
            <path class="cls-3" d="m114.7,97.85c-.16,0-.31-.1-.37-.26-.08-.2.03-.43.23-.51l1.48-.56c.2-.08.43.03.51.23.08.2-.03.43-.23.51l-1.48.56s-.09.03-.14.03Z"/>
            <path class="cls-3" d="m77.95,111.71c-.16,0-.31-.1-.37-.26-.08-.2.03-.43.23-.51l3.06-1.15c.2-.08.43.03.51.23.08.2-.03.43-.23.51l-3.06,1.15s-.09.03-.14.03Zm6.12-2.31c-.16,0-.31-.1-.37-.26-.08-.2.03-.43.23-.51l3.06-1.15c.2-.08.43.03.51.23.08.2-.03.43-.23.51l-3.06,1.15s-.09.03-.14.03Zm6.13-2.31c-.16,0-.31-.1-.37-.26-.08-.2.03-.43.23-.51l3.06-1.15c.2-.08.43.03.51.23.08.2-.03.43-.23.51l-3.06,1.15s-.09.03-.14.03Zm6.13-2.31c-.16,0-.31-.1-.37-.26-.08-.2.03-.43.23-.51l3.06-1.15c.2-.08.43.03.51.23.08.2-.03.43-.23.51l-3.06,1.15s-.09.03-.14.03Zm6.13-2.31c-.16,0-.31-.1-.37-.26-.08-.2.03-.43.23-.51l3.06-1.15c.2-.08.43.03.51.23.08.2-.03.43-.23.51l-3.06,1.15s-.09.03-.14.03Zm6.13-2.31c-.16,0-.31-.1-.37-.26-.08-.2.03-.43.23-.51l3.06-1.15c.2-.08.43.03.51.23.08.2-.03.43-.23.51l-3.06,1.15s-.09.03-.14.03Z"/>
            <path class="cls-3" d="m73.4,113.43c-.16,0-.31-.1-.37-.26-.08-.2.03-.43.23-.51l1.48-.56c.2-.08.43.03.51.23s-.03.43-.23.51l-1.48.56s-.09.03-.14.03Z"/>
          </g>
          <circle class="cls-56" cx="82.9" cy="68.63" r="3.77"/>
        </g>
        <g>
          <path class="cls-57" d="m67.13,104.76l.02.02c-4.93,2.94-9.93,5.96-13.23,6.99-.18.06-.16.31.02.35,1.92.39,3.35,2.39,5.08,3.4,1.86-2.31,6.44-6.05,10.97-8.33.13-.07.28.04.26.19-.63,4.95-1.38,9.58-2.91,12.14-.04.07-.03.17.04.23,1.46,1.27,2.6,2.77,3.51,4.43.09.17.35.1.34-.09-.11-3.47,1.09-9.18,2.23-14.79,0-.02.01-.04.02-.06l.37-.61c-1.17-2.56-2.38-5.13-3.92-7.28l-2.8,3.42Z"/>
          <path class="cls-13" d="m45.5,117.33c-3.26,4.83-3.39,10.44-.31,12.52,3.09,2.08,8.23-.15,11.49-4.99,3.26-4.83,3.39-10.44.31-12.52-3.09-2.08-8.23.15-11.49,4.99Zm10.11-2.68c2.12,1.43,1.78,5.65-.76,9.42-2.54,3.77-6.32,5.67-8.44,4.25-2.12-1.43-1.78-5.65.76-9.42s6.32-5.67,8.44-4.25Z"/>
          <path class="cls-8" d="m73.48,109.23l6.54-53.01c.02-.17-.22-.21-.26-.05l-11.55,47.28,2.04,3.92c-.68,5.08-1.39,10.05-2.91,12.14l4.02,2.39c.16-3.12,1.07-7.76,2.12-12.67Z"/>
          <circle class="cls-27" cx="72.13" cy="104.61" r="1.16"/>
          <path class="cls-6" d="m69.25,119.7c-3.39-1.54-8.09,1.5-10.51,6.8s-1.63,10.85,1.75,12.4c3.39,1.54,8.09-1.5,10.51-6.8,2.42-5.3,1.63-10.85-1.75-12.4Zm-.45,11.79c-1.89,4.14-5.31,6.64-7.63,5.57-2.33-1.06-2.68-5.28-.79-9.42,1.89-4.14,5.31-6.64,7.63-5.57,2.33,1.06,2.68,5.28.79,9.42Z"/>
        </g>
        <g>
          <path class="cls-9" d="m18.74,211.67s-.89,1.65-.83,6.08c0,.41.36.74.77.71l7.82-.55c.31-.02.52-.35.4-.64-.55-1.32-2.17-4.53-5.39-6.21l-2.76.6Z"/>
          <path class="cls-49" d="m18.19,208.71l.7,3.68c.06.32.33.56.65.57.43.02,1.06.01,1.65-.13.54-.13.9-.65.87-1.2l-.25-3.58-3.62.67Z"/>
          <path class="cls-15" d="m38.03,210.15s-1.54,2.31-1.57,5.51c0,.75.61,1.37,1.37,1.38l12.17.22c.57.01.81-.72.35-1.05-2.28-1.66-6.75-4.76-10-6.01l-2.33-.04Z"/>
          <path class="cls-31" d="m37.13,206.61l.94,4.59c.11.51.61.86,1.12.75.31-.07.68-.2,1.07-.45.37-.23.56-.68.49-1.11l-.98-5.56-2.64,1.78Z"/>
          <path class="cls-11" d="m15.38,143.47s-3.08,3.12-3.45,6.64c-.37,3.52,5.94,59.92,5.94,59.92,0,0,3.32.32,4.94-.83,0,0-.55-36.85.38-45.43,0,0,10.65,37.47,13.34,44.18,0,0,3.19.16,4.16-.51,0,0-8.09-49.29-11.33-57.87l-13.98-6.11Z"/>
          <path class="cls-24" d="m22.98,162.43c-.08,0-.16-.05-.19-.13l-1.74-5.18-3.08-1.68c-.1-.05-.13-.17-.08-.27.05-.1.17-.13.27-.08l3.15,1.72s.08.06.09.11l1.77,5.25c.03.1-.02.22-.12.25-.02,0-.04.01-.06.01Z"/>
          <path class="cls-40" d="m38.6,103.2l-5.7,8.57s4.64,3.19,8.02,3.37l2.89-7.67-5.2-4.26Z"/>
          <path class="cls-48" d="m30.47,112.72s1.68,2.09,2.16,3.78c.48,1.69,5.17,5.71,14.14-2.67l2.16,1.04s-5.96,16.27-13.61,13.12c-6.91-2.84-8.61-6.54-8.61-6.54l3.76-8.74Z"/>
          <path class="cls-38" d="m61.83,126.39l8.82-2.61,2.76,3.06-1.63,3.4s0-2.03-1.13-2.21c-1.13-.18-6.15.63-7.65.51-1.49-.13-1.18-2.14-1.18-2.14Z"/>
          <path class="cls-33" d="m15.5,143.46s-.89-24.99,17.98-32.56c0,0,5.61.59,8.32,3.07,0,0,2.21,9.66.42,13.65-1.61,3.57-11.26,10.03-12.86,21.96,0,0-7.93-1.27-13.86-6.11Z"/>
          <path class="cls-58" d="m41.4,113.83s3.95,5.73,2.4,10.28c-2.4,7.01,3.04,5.82,9.11,3.87,6.07-1.95,9.21-1.68,9.21-1.68,0,0,1.98,1.66,1.17,3.42,0,0-9.82,6.48-21.89,6.88-5.87.2-8.09-4.03-8.01-7.16.08-3.16,1.41-6.51,3.08-10.51.36-.85,4.93-5.11,4.93-5.11Z"/>
          <path class="cls-43" d="m54.53,111.57s-3.52-2.69-5.59-2.08c-1.88.55-2.68,2.86-2.68,4.14,0,.49.27.9.73,1.12l1.31.63c.73.36,1.59-.17,1.6-.99l.46-1.68,4.18-1.16Z"/>
          <g>
            <path class="cls-12" d="m43.7,96.15c.09.13,2.85,10.1,2.85,10.1l-5.73,1.46-4.02-9.07s5.39-4.64,6.9-2.49Z"/>
            <path class="cls-46" d="m39.06,99.34c-.14.22-.17.5-.09.74l1.72,4.87c.03.07.06.14.11.21.25.35,1.14,1.41,2.19.43.9-.83,1.73-1.58,2.51-1.8.45-.13.92.14,1.05.6.26.94.73,2.84.92,4.59.05.44-.26.84-.69.92-1.14.21-3.39.56-5.29.44-.31-.02-.59-.21-.72-.49-.57-1.25-2.2-4.76-2.81-5.68-.57-.85-1.94-.85-2.56-.8-.24.02-.47-.06-.65-.22-.53-.48-1.39-1.6-.12-2.93.32-.33.3-.86-.03-1.18-.58-.58-1.14-1.55-.17-2.76.98-1.22,2.26-1.08,3.09-.8.37.12.79,0,1.01-.32.1-.14.25-.25.5-.25.47,0,.84-.35.85-.82,0-.8.32-1.77,1.69-2.2,2.5-.78,4.06,1.64,4.22,3.44.16,1.8-2.61,2.5-4.23,2.37-1.19-.09-2.09,1.05-2.48,1.66Z"/>
            <path class="cls-47" d="m38.61,105.94s-.4-3.13-1.71-3.29c-1.3-.15-2.57.92-1.28,2.68,1.61,2.19,2.98.61,2.98.61Z"/>
          </g>
        </g>
        <path class="cls-28" d="m80.16,68.05c-.05,0-.1,0-.16,0-.36,0-.65-.31-.65-.67s.31-.66.67-.65c1.45.03,2.34-.38,2.63-1.22.92-2.59-2.99-8.65-8.2-12.72-7.59-5.93-12.28-4.01-13.94-2.91-.3.2-.71.12-.91-.18-.2-.3-.12-.71.18-.91,4.01-2.66,9.65-1.58,15.48,2.97,2.67,2.08,5.14,4.77,6.78,7.37,1.76,2.79,2.42,5.21,1.85,6.83-.34.97-1.27,2.1-3.75,2.1Z"/>
      </g>
      <g>
        <g>
          <path class="cls-19" d="m149.45,155.75l-12.82-2.37c-.19-.03-.32.08-.37.27l-4.48,19.48c-.02.1,0,.2.06.28.06.08.15.14.24.15l17.4,2.59c.1.02.05-.01.12-.08.08-.07-.04-.16-.04-.27v-19.7c0-.17.04-.32-.13-.35Z"/>
          <path class="cls-44" d="m140.06,154.97c0,.25-.21.46-.46.46s-.46-.21-.46-.46.21-.46.46-.46.46.21.46.46Z"/>
          <path class="cls-36" d="m146.42,156.33c0,.25-.21.46-.46.46s-.46-.21-.46-.46.21-.46.46-.46.46.21.46.46Z"/>
        </g>
        <path class="cls-3" d="m145.96,156.43h0c-.05,0-.1-.04-.1-.1,0-.02,0-2.08-.26-4.13-.33-2.68-.93-4.14-1.73-4.22-1.91-.2-4.11,6.62-4.17,7,0,.05-.04.09-.1.09s-.1-.05-.1-.1c0-.17,1.54-5.17,3.27-6.72.39-.35.76-.5,1.12-.46.92.1,1.56,1.58,1.91,4.4.26,2.07.26,4.13.26,4.15,0,.05-.04.1-.1.1Z"/>
        <path class="cls-17" d="m163.53,124.26s-7.06,16.11-17.1,18.6c-1.94.38-4.22.21-5.24.85-1.16.72.25,2.66.81,4.14.56,1.47.78.78,1.03.31s-.8-1.95.57-2.54c1.38-.58.96.31.31,1.09-.65.77-.63,1.96-.58,2.03.04.06,1.09-.46,2.07-.92.84-.39,1.31-1.48,1.43-1.78,1.99-.23,14.43-2.19,19.71-15.27,0,0,.51-12.99-3.02-6.51Z"/>
        <path class="cls-3" d="m192.89,162.36s-.09-.03-.1-.08c0-.05-.85-5.31-2.49-6.24-.28-.16-.55-.18-.84-.06-2.21.88-1.1,5.86-1.08,5.91.01.05-.02.11-.07.12-.05.01-.11-.02-.12-.07-.05-.21-1.16-5.19,1.2-6.13.35-.14.69-.11,1.01.07,1.71.98,2.55,6.16,2.58,6.38,0,.05-.03.1-.08.11,0,0-.01,0-.02,0Z"/>
        <polygon class="cls-14" points="195.11 161.89 186.78 161.12 184.92 162.15 186.51 164.14 194.12 163.36 195.11 161.89"/>
        <path class="cls-26" d="m193.91,212.65l.14,3.19c.03.6.46,1.12,1.06,1.23,1,.19,2.62.44,4.22.4.7-.02,1.21-.69,1.05-1.38-.29-1.25-.86-3.14-1.8-4.29l-3.5-.27c-.65-.05-1.19.48-1.17,1.13Z"/>
        <path class="cls-45" d="m169.34,173.5l-.86,3.43s.42,20.22.14,28.27c-.04,1.26-.47,2.48-1.21,3.5l-3.88,5.32,9.16-4.48.26-1.05-1.28-2.08,3.63-22.33c.21-1.31.04-2.66-.49-3.88l-1.55-3.54-3.92-3.16Z"/>
        <path class="cls-22" d="m162.9,214.8l2.79.22c.52.04,1.03-.16,1.39-.55.96-1.06,2.94-3.13,3.8-3.12,1.17.01.7,4.13.7,4.13l.65.05,1.22-5.07c.31-1.27-.23-2.6-1.35-3.3h0s-.42,1.94-1.93,2.7c-1.51.76-6.17,3.52-6.17,3.52,0,0-.54-.12-1.14-.06-.89.09-.87,1.41.02,1.48Z"/>
        <path class="cls-10" d="m181.2,176.09s9.89,22.92,11.34,28.09c1.45,5.17,1.77,9.41,1.77,9.81,0,.62.72,1.28,2.84,1.44,1.1.09,1.67-.31,1.97-.72.25-.35.3-.8.14-1.2-.57-1.41-2.36-5.92-2.99-7.95-.76-2.42-1.95-13.24-2.78-17.03-.82-3.79-1.77-7.91-6.32-11.99,0,0-3.07-3.51-5.97-.47Z"/>
        <path class="cls-30" d="m176.69,139.45c-2-12.92,6.14-19.5,6.14-19.5-2.43-2.73-6.11-4.79-8.93-6.1-2.55-1.18-5.56-.76-7.68,1.08-2.34,2.02-4.88,4.88-4.54,7.56.36,2.84,4.54,17.17,4.54,17.17,0,0,4.69,2.69,10.48-.2Z"/>
        <path class="cls-41" d="m182.83,146.25c-.93-3.76-6.15-6.8-6.15-6.8-5.78,2.89-10.48.2-10.48.2,0,0-1.42,4.09-.97,8.03.45,3.94,3.24,29.25,3.24,29.25,7.34,2.09,19.04-.04,19.04-.04-4.09-8.8-3.75-26.88-4.69-30.64Z"/>
        <path class="cls-7" d="m173.46,105.86l1.58,11.12c.16.98-.71.76-1.67.5-1.57-.42-3.58-1.2-4.17-2.5-.06-.13-.08-.28-.09-.42l-.45-7.66c-.04-.61.33-1.17.91-1.37l2.09-.74c.8-.28,1.67.23,1.8,1.07Z"/>
        <polygon class="cls-52" points="199.13 181.82 201.99 180.18 195.11 161.89 193.46 163.01 199.13 181.82"/>
        <path class="cls-3" d="m191.38,164.35s0,0,0,0c-.05,0-.1-.05-.09-.11,0-.05.37-5.38-1.15-7.12-.29-.33-.64-.51-1.02-.53-.38-.02-.73.11-1.04.4-1.64,1.53-1.74,6.8-1.74,6.86,0,.05-.04.11-.1.1-.05,0-.1-.05-.1-.1,0-.22.1-5.41,1.8-7,.35-.33.75-.48,1.19-.46.45.03.84.23,1.16.6,1.6,1.83,1.2,7.21,1.2,7.27,0,.05-.05.09-.1.09Z"/>
        <path class="cls-35" d="m178.84,124.98c.41.54,6.6,7.91,8.38,16.13,1.77,8.22,1.18,13.71,1.18,13.71,0,0-1.8,1.34-1.15,2.3.65.95.48,1.6,1.31,1.79.83.18,1.86.45,1.73-1.19-.13-1.63,1.83-1.96,1.5-2.95-.32-.98,1.89-27.52-8.8-34.72-.05-.03-.1-.07-.15-.1-4.52,1.63-4.64,4.16-3.99,5.03Z"/>
        <polygon class="cls-55" points="184.91 162.21 193.46 163.01 199.13 181.82 186.87 182.14 184.91 162.21"/>
        <g class="cls-32">
          <path class="cls-3" d="m199.31,181.53s-.02,0-.03,0c-.06-.02-.1-.08-.08-.14l.55-2.09-4.33-13.43c-.02-.06.01-.12.07-.14.06-.02.12.01.14.07l4.34,13.46s0,.04,0,.06l-.56,2.12c-.01.05-.06.08-.11.08Z"/>
        </g>
        <g class="cls-32">
          <path class="cls-3" d="m201.79,180.22s-.03,0-.05-.01l-1.48-.71c-.06-.03-.08-.09-.05-.15.03-.06.1-.08.15-.05l1.48.71c.06.03.08.09.05.15-.02.04-.06.06-.1.06Z"/>
        </g>
        <g>
          <path class="cls-54" d="m171.71,97.04s-3.38.92-6.18,5.25c-2.8,4.33-1.46,6.69.54,7.26,2,.57,5.06.94,8.69-1.62,3.63-2.55,1.33-11.93-3.05-10.89Z"/>
          <path class="cls-18" d="m172.92,105.17s3.33-6.44-2.66-7.33l-1.55.8s-1.69-4.05,2.16-5.35c3.86-1.3,9.03,1.02,9.91,6.09.88,5.08-.44,8.1-3.32,10.08-2.87,1.98-3.57-.8-3.57-.8,0,0,1.69-1.99,1.28-3.23-.41-1.24-1.91-.01-1.91-.01l-.35-.24Z"/>
          <path class="cls-25" d="m172.95,106.02s1.69-3.32,3.13-1.71c1.44,1.61-1.76,3.04-2.99,3.48l-.14-1.77Z"/>
          <path class="cls-21" d="m177.91,98.39s11.63-3.58,13.55,8.55c1.91,12.13,3.24,16.02,6.12,13.93,0,0-.47,4.53-6.01,2.51-14.37-5.26-5.63-22.1-13.65-24.99Z"/>
        </g>
      </g>
      <path class="cls-2" d="m60.46,53.5c-.35,0-.65-.28-.66-.64,0-.12-.32-12.03,3.08-24.36,2.01-7.28,4.9-13.28,8.59-17.86,4.65-5.76,10.58-9.24,17.63-10.35,6.12-.96,11.57.48,16.2,4.29,6.47,5.32,11.28,15.07,14.3,28.97,2.24,10.3,2.6,19.18,2.6,19.27.01.36-.27.67-.63.68-.36.02-.67-.27-.68-.63,0-.09-.36-8.87-2.57-19.06-2.03-9.35-6.08-21.83-13.85-28.21-4.33-3.56-9.42-4.9-15.16-4-6.72,1.06-12.37,4.38-16.81,9.88-3.58,4.43-6.39,10.28-8.34,17.38-3.35,12.14-3.03,23.85-3.03,23.97.01.36-.27.67-.64.68,0,0-.01,0-.02,0Z"/>
    </g>
  </g>
</svg>