<?xml version="1.0" encoding="UTF-8"?>
<svg xmlns="http://www.w3.org/2000/svg" viewBox="0 0 171.33 172.99">
  <defs>
    <style>
      .cls-1, .cls-2 {
        mix-blend-mode: multiply;
      }

      .cls-1, .cls-3 {
        fill: #00cbb0;
      }

      .cls-4 {
        fill: #1d5351;
      }

      .cls-5 {
        fill: #fff;
      }

      .cls-6 {
        stroke: #007f68;
        stroke-width: 1.53px;
      }

      .cls-6, .cls-7, .cls-8, .cls-9 {
        stroke-linecap: round;
        stroke-linejoin: round;
      }

      .cls-6, .cls-7, .cls-8, .cls-9, .cls-10 {
        fill: none;
      }

      .cls-11 {
        fill: #fe814b;
      }

      .cls-2 {
        opacity: .4;
      }

      .cls-2, .cls-12 {
        fill: #f8ab74;
      }

      .cls-13 {
        isolation: isolate;
      }

      .cls-14 {
        fill: #cad5d0;
      }

      .cls-15 {
        fill: #f8ab72;
      }

      .cls-16 {
        fill: #32328c;
      }

      .cls-7 {
        stroke: #c46567;
      }

      .cls-7, .cls-8 {
        stroke-width: 1.21px;
      }

      .cls-17 {
        fill: #244049;
      }

      .cls-18 {
        fill: #fe632e;
      }

      .cls-8 {
        stroke: #00cbb0;
      }

      .cls-19 {
        fill: #fe642e;
      }

      .cls-9 {
        stroke: #333588;
        stroke-width: 1.47px;
      }

      .cls-20 {
        opacity: .3;
      }

      .cls-21 {
        fill: #007f68;
      }

      .cls-22 {
        fill: #c46567;
      }

      .cls-23 {
        fill: #fefffd;
      }

      .cls-24 {
        fill: #32338c;
      }

      .cls-25 {
        fill: #fe642f;
      }

      .cls-26 {
        fill: #f0f4fd;
      }

      .cls-27 {
        fill: #f8ab73;
      }

      .cls-10 {
        stroke: #1d5351;
        stroke-miterlimit: 10;
        stroke-width: .38px;
      }

      .cls-28 {
        fill: #f0f4ff;
      }

      .cls-29 {
        fill: #333588;
      }
    </style>
  </defs>
  <g class="cls-13">
    <g id="Layer_2" data-name="Layer 2">
      <g id="Layer_1-2" data-name="Layer 1">
        <g>
          <g>
            <path class="cls-28" d="m18.34,132.69c-20.21-23.79-13.13-59.06-1.1-69.75,12.03-10.69,31.11-16.56,41.34-29.04,10.23-12.49,22-21.43,43.53-14.98,21.53,6.44,21.21,23.18,27.66,33.54,6.46,10.36,35.25,16.14,33.61,42.72-1.64,26.58-19.91,26.53-28.25,33.08-8.33,6.55-21.48,37.47-47.79,37.79-32.24.39-51.9-13.2-69.01-33.34Z"/>
            <g>
              <g class="cls-20">
                <path class="cls-10" d="m91.16,4.6l-1.14,3.96c-1.04.28-2.04.69-2.96,1.2l-3.65-2-3.26,3.22,2.03,3.6c-.52.91-.93,1.89-1.22,2.92l-4.01,1.12v4.56l4.01,1.12c.29,1.03.7,2.01,1.22,2.92l-2.03,3.6,3.26,3.22,3.65-2c.92.52,1.91.92,2.96,1.2l1.14,3.96h4.62l1.14-3.96c1.04-.28,2.04-.69,2.96-1.2l3.65,2,3.26-3.22-2.03-3.6c.52-.91.93-1.89,1.22-2.92l4.01-1.12v-4.56l-4.01-1.12c-.29-1.03-.7-2.01-1.22-2.92l2.03-3.6-3.26-3.22-3.65,2c-.92-.52-1.91-.92-2.96-1.2l-1.14-3.96h-4.62Zm2.31,7.78c4.75,0,8.63,3.83,8.63,8.52s-3.88,8.52-8.63,8.52-8.63-3.83-8.63-8.52,3.88-8.52,8.63-8.52Z"/>
              </g>
              <g class="cls-20">
                <path class="cls-10" d="m158.61,79.66l-.76,2.64c-.69.19-1.35.46-1.97.8l-2.43-1.33-2.17,2.14,1.35,2.4c-.35.6-.62,1.26-.81,1.94l-2.67.75v3.04l2.67.75c.19.69.46,1.34.81,1.94l-1.35,2.4,2.17,2.14,2.43-1.33c.61.34,1.27.61,1.97.8l.76,2.64h3.08l.76-2.64c.69-.19,1.35-.46,1.97-.8l2.43,1.33,2.17-2.14-1.35-2.4c.35-.6.62-1.26.81-1.94l2.67-.75v-3.04l-2.67-.75c-.19-.69-.46-1.34-.81-1.94l1.35-2.4-2.17-2.14-2.43,1.33c-.61-.34-1.27-.61-1.97-.8l-.76-2.64h-3.08Zm1.54,5.18c3.16,0,5.74,2.55,5.74,5.67s-2.58,5.67-5.74,5.67-5.74-2.55-5.74-5.67,2.58-5.67,5.74-5.67Z"/>
              </g>
              <g class="cls-20">
                <path class="cls-10" d="m20.73,86.6l-1.65,5.73c-1.51.41-2.94.99-4.27,1.74l-5.28-2.9-4.72,4.66,2.93,5.21c-.76,1.31-1.35,2.73-1.76,4.22l-5.8,1.62v6.6l5.8,1.62c.42,1.49,1.01,2.91,1.76,4.22l-2.93,5.21,4.72,4.66,5.28-2.9c1.33.75,2.77,1.33,4.27,1.74l1.65,5.73h6.68l1.65-5.73c1.51-.41,2.94-.99,4.27-1.74l5.28,2.9,4.72-4.66-2.93-5.21c.76-1.31,1.35-2.73,1.76-4.22l5.8-1.62v-6.6l-5.8-1.62c-.42-1.49-1.01-2.91-1.76-4.22l2.93-5.21-4.72-4.66-5.28,2.9c-1.33-.75-2.77-1.33-4.27-1.74l-1.65-5.73h-6.68Zm3.34,11.26c6.87,0,12.48,5.54,12.48,12.32s-5.61,12.32-12.48,12.32-12.48-5.54-12.48-12.32,5.61-12.32,12.48-12.32Z"/>
              </g>
            </g>
            <g>
              <g>
                <path class="cls-29" d="m80.17,160.12h0c.86-1.98,2.47-3.55,4.51-4.4l.06-.03-.27-.12c-1.91-.85-3.42-2.35-4.26-4.22l-.04-.08-.21.42c-.81,1.6-2.14,2.9-3.78,3.72l-.58.29h.04c1.95.82,3.52,2.3,4.41,4.16l.12.26Z"/>
                <path class="cls-4" d="m85.92,162.83h0c.43-.99,1.24-1.78,2.25-2.2h.03s-.14-.07-.14-.07c-.95-.43-1.71-1.18-2.13-2.11l-.02-.04-.11.21c-.41.8-1.07,1.45-1.89,1.86l-.29.14h.02c.98.41,1.76,1.15,2.21,2.08l.06.13Z"/>
              </g>
              <g>
                <path class="cls-4" d="m159.67,48.7h0c-.64-1.48-1.85-2.66-3.37-3.29l-.05-.02.2-.09c1.43-.64,2.56-1.76,3.18-3.15l.03-.06.16.31c.61,1.2,1.6,2.17,2.82,2.78l.44.22h-.03c-1.46.61-2.64,1.72-3.3,3.11l-.09.19Z"/>
                <path class="cls-29" d="m155.38,50.73h0c-.32-.74-.92-1.33-1.68-1.64h-.02s.1-.06.1-.06c.71-.32,1.28-.88,1.59-1.58v-.03s.09.16.09.16c.3.6.8,1.09,1.41,1.39l.22.11h-.01c-.73.31-1.32.86-1.65,1.56l-.05.1Z"/>
              </g>
              <g>
                <path class="cls-4" d="m8,81.96h0c-.64-1.48-1.85-2.66-3.37-3.29l-.05-.02.2-.09c1.43-.64,2.56-1.76,3.18-3.15l.03-.06.16.31c.61,1.2,1.6,2.17,2.82,2.78l.44.22h-.03c-1.46.61-2.64,1.72-3.3,3.11l-.09.19Z"/>
                <path class="cls-29" d="m3.71,83.98h0c-.32-.74-.92-1.33-1.68-1.64h-.02s.1-.06.1-.06c.71-.32,1.28-.88,1.59-1.58v-.03s.09.16.09.16c.3.6.8,1.09,1.41,1.39l.22.11h-.01c-.73.31-1.32.86-1.65,1.56l-.05.1Z"/>
              </g>
            </g>
          </g>
          <g>
            <path class="cls-21" d="m123.5,34.89c2.8.36,5.48,1.27,7.99,2.57,7.28,3.77,13.82,8.95,19.17,15.17,2.16,2.51,4.2,5.36,4.53,8.65.39,3.77-1.51,7.36-3.34,10.67-1.53,2.76-3.37,5.78-6.42,6.58-2.5.66-5.12-.39-7.38-1.65-8.83-4.92-15.45-13.31-19.25-22.67-1.85-4.55-2.53-8.87-2.22-13.74.09-1.36-3.49-1.49-2.53-2.57,1.36-1.54,5.62-3.49,9.46-3Z"/>
            <g>
              <path class="cls-27" d="m145.86,43.09c-.29.39-.61.77-.97,1.11-1.21,1.16-2.7,2-4.25,2.63-1.15.47-2.37.83-3.61.81-.14,0-.28-.01-.42-.03.06.24.15.47.3.67.46.62,1.31.78,2.09.83,2.08.12,4.18-.24,6.09-1.06.21-.09.43-.19.54-.39.12-.2.11-.44.1-.68-.07-1.33,0-2.62.13-3.89Z"/>
              <path class="cls-11" d="m140.65,46.83c1.55-.63,3.04-1.46,4.25-2.63.35-.34.67-.71.97-1.11.21-2.11.57-4.18.68-6.32-2.16-.51-5.65,1.73-7.15,3.15-1.94,1.82-3.16,4.5-2.87,7.15.02.18.05.37.1.54.14.01.28.02.42.03,1.24.02,2.46-.34,3.61-.81Z"/>
            </g>
            <path class="cls-25" d="m155.2,27.21c1.32-1.85,2.65-3.73,3.46-5.85.81-2.12,1.06-4.55.19-6.64-.87-2.1-3.03-3.73-5.29-3.54.71-1.46-.15-3.07-1.34-4.17-1.19-1.1-2.82-1.59-4.42-1.83-4.53-.7-9.15.25-13.73.05-1.69-.07-3.42-.32-4.89-1.16-1.47-.84-2.63-2.37-2.63-4.06-.59,1.29-1.26,2.84-1.16,4.26.1,1.41.87,2.85,2.18,3.4-1.32.37-2.69-.44-3.54-1.51-.85-1.07-1.19-2.46-1.28-3.83-1.45.91-2.45,2.42-2.99,4.04-.49,1.48-.75,3.06-.49,4.6.26,1.53,1.08,3.02,2.39,3.85-.63.11-1.3.17-1.89-.07-.04.87.46,1.69,1.13,2.24s1.5.86,2.33,1.11c2.85.85,5.84,1.08,8.76,1.65,6.89,1.34,13.26,4.53,19.81,7.06.92.35,2.43.64,3.39.4Z"/>
            <g>
              <path class="cls-12" d="m148.01,26.17c-.99-3.5-.47-7.27.63-10.74-3.44,3.24-8.51,4.04-13.2,3.41,1.56-.76,2.98-1.82,4.14-3.11-4.66-.3-9.47.83-14.12.4-.53,1.61-.88,3.29-1.07,4.84-.41,3.34-.15,6.73.41,10.05.6,3.62,1.61,7.3,3.9,10.17,2.29,2.87,6.13,4.75,9.69,3.84,1.33-.34,2.54-1.03,3.65-1.82,4.12-2.92,7.1-7.19,9.11-11.83-1.49-1.38-2.59-3.23-3.15-5.2Z"/>
              <path class="cls-25" d="m139.57,15.73c-1.16,1.29-2.58,2.35-4.14,3.11,4.69.64,9.76-.16,13.2-3.41-1.09,3.47-1.61,7.24-.63,10.74.55,1.96,1.66,3.82,3.15,5.2.26-.6.51-1.21.73-1.83.98-2.64,1.69-5.42,1.71-8.24.02-2.82-.67-5.69-2.3-8-2.29-3.24-6.18-5.03-10.09-5.77-1.91-.36-3.88-.5-5.78-.12-2.53.5-5.98,1.93-7.63,4.06-1.02,1.33-1.79,2.95-2.35,4.65,4.65.43,9.46-.7,14.12-.4Z"/>
            </g>
            <g>
              <path class="cls-27" d="m149.22,26.2c-.54,1.45-.55,3.06-.27,4.58.21,1.18.69,2.45,1.78,2.95.8.37,1.77.23,2.54-.21.77-.44,1.36-1.13,1.86-1.86.76-1.1,1.36-2.34,1.51-3.66.15-1.32-.18-2.74-1.09-3.72-.89-.95-2.46-1.64-3.69-1.07-1.24.57-2.17,1.72-2.64,2.98Z"/>
              <path class="cls-24" d="m154.93,25.71c-.81-1.02-2.4-.74-3.12.23-.81.94-.94,2.21-1.09,3.41l-.37-.15c.81-1.07,2.54-1.06,2.82.42.28,1.22-.85,2.18-1.92,2.38.94-.34,1.93-1.25,1.62-2.31-.13-.48-.51-.87-.97-.88-.72-.05-1.26.67-1.66,1.2.15-1.47.26-3.13,1.31-4.29.82-1,2.67-1.22,3.38,0h0Z"/>
            </g>
            <path class="cls-24" d="m135.24,22.24c.67,3.47-.04,7.22-1.82,10.26l-.05-.16c.52.32,1.09.55,1.69.69-.62-.04-1.24-.2-1.81-.49-.13-.06-.1-.03-.05-.16,1.52-3.16,2.18-6.64,2.03-10.15h0Z"/>
            <g>
              <path class="cls-18" d="m134.05,37.89c.4.26.83.44,1.27.48,1.19.11,2.31-.97,3.1-2.01-1.58-.11-3.2.46-4.36,1.53Z"/>
              <path class="cls-24" d="m134.88,35.92c-1.52-.16-3.76-1.52-3.76-1.52,0,0,1.28,2.43,2.94,3.49,1.17-1.07,2.78-1.63,4.36-1.53.68-.9,1.11-1.76,1.11-1.76,0,0-3.14,1.46-4.65,1.31Z"/>
            </g>
            <path class="cls-16" d="m130.85,25.78c.04.81-.35,1.48-.87,1.51-.52.03-.97-.61-1.01-1.42-.04-.81.35-1.48.87-1.51.52-.03.97.61,1.01,1.42Z"/>
            <path class="cls-16" d="m141.41,25.98c.04.81-.35,1.48-.87,1.51-.52.03-.97-.61-1.01-1.42-.04-.81.35-1.48.87-1.51s.97.61,1.01,1.42Z"/>
            <path class="cls-19" d="m126.83,22.64c.47-1.91,3.28-4.61,4.97-2.37,0,0-.05.16-.05.16-1.06.63-1.39.75-2.49.86-.79.25-1.6.74-2.29,1.44l-.15-.09h0Z"/>
            <path class="cls-19" d="m143.17,22.73c-.7-.7-1.51-1.18-2.29-1.44-1.1-.11-1.42-.23-2.49-.86,0,0-.05-.16-.05-.16.36-.59.98-.82,1.57-.85,1.64.15,2.95,1.74,3.4,3.23,0,0-.15.09-.15.09h0Z"/>
            <g>
              <path class="cls-2" d="m130.32,32.6c0,.65-.87,1.17-1.95,1.17s-1.95-.52-1.95-1.17.87-1.17,1.95-1.17,1.95.52,1.95,1.17Z"/>
              <path class="cls-2" d="m143.87,32.6c0,.65-.87,1.17-1.95,1.17s-1.95-.52-1.95-1.17.87-1.17,1.95-1.17,1.95.52,1.95,1.17Z"/>
            </g>
            <g>
              <path class="cls-12" d="m126.61.06c-.56,2.67.85,5.54,3.17,6.8,2.42,1.21,5.28.81,7.9.63,3.93-.18,8.45-1.35,12.04.89,1.11.8,1.94,2.09,1.9,3.47-.03-1.38-.91-2.58-2.02-3.3-3.59-2.04-7.96-.84-11.88-.63-2.69.15-5.6.56-8.09-.77-2.44-1.39-3.73-4.44-3.01-7.08h0Z"/>
              <path class="cls-12" d="m150.07,14.18c-.22-1.56-1.42-2.83-2.82-3.41-4.54-1.71-9.04,1.47-13.59,1.86-4.48.73-10.52-.38-11.68-5.51-.35-1.54-.16-3.19.52-4.59-.62,1.43-.73,3.06-.32,4.54,1.27,4.91,7.08,5.86,11.42,5.14,4.56-.37,9.16-3.53,13.73-1.63,1.42.67,2.58,2.02,2.73,3.6h0Z"/>
              <path class="cls-12" d="m148.48,13.45c-1.04-1.67-3.27-1.83-4.92-1.08-1.72.69-2.98,2.18-4.4,3.44.58-.75,1.18-1.49,1.86-2.17,1.79-2.07,6.06-3.25,7.46-.19h0Z"/>
              <path class="cls-12" d="m153.81,13.37c4.13-.84,4.88,5.02,3.49,7.78-.44,1.06-1.03,2.04-1.73,2.94,1.6-2.82,2.95-6.46,1.06-9.41-.6-.89-1.69-1.51-2.83-1.31h0Z"/>
              <path class="cls-12" d="m150.83,15.17c3.26-.2,3.61,5.34,2.61,7.53-.05.16-.18.46-.41.38.22.02.26-.24.3-.41.49-2.21.44-7.15-2.5-7.49h0Z"/>
            </g>
          </g>
          <g>
            <rect class="cls-28" x="17.02" y="29.62" width="48.01" height="52.19" transform="translate(-6.79 5.71) rotate(-7.35)"/>
            <rect class="cls-4" x="12.96" y="18.51" width="48.01" height="11.37" transform="translate(-2.79 4.93) rotate(-7.35)"/>
            <rect class="cls-3" x="10.71" y="33.11" width="6.54" height="52.19" transform="translate(-7.46 2.28) rotate(-7.35)"/>
            <rect class="cls-17" x="6.64" y="22" width="6.54" height="11.37" transform="translate(-3.46 1.5) rotate(-7.35)"/>
            <rect class="cls-23" x="18.17" y="35.63" width="7.34" height="9.96" transform="translate(-5.02 3.13) rotate(-7.35)"/>
            <rect class="cls-23" x="26.81" y="34.51" width="7.34" height="9.96" transform="translate(-4.8 4.22) rotate(-7.35)"/>
            <rect class="cls-23" x="35.44" y="33.4" width="7.34" height="9.96" transform="translate(-4.59 5.32) rotate(-7.35)"/>
            <rect class="cls-23" x="44.08" y="32.29" width="7.34" height="9.96" transform="translate(-4.38 6.42) rotate(-7.35)"/>
            <rect class="cls-23" x="52.72" y="31.17" width="7.34" height="9.96" transform="translate(-4.16 7.51) rotate(-7.35)"/>
            <rect class="cls-23" x="19.61" y="46.8" width="7.34" height="9.96" transform="translate(-6.43 3.4) rotate(-7.35)"/>
            <rect class="cls-23" x="28.25" y="45.69" width="7.34" height="9.96" transform="translate(-6.22 4.5) rotate(-7.35)"/>
            <rect class="cls-23" x="36.88" y="44.57" width="7.34" height="9.96" transform="translate(-6.01 5.6) rotate(-7.35)"/>
            <rect class="cls-23" x="45.52" y="43.46" width="7.34" height="9.96" transform="translate(-5.79 6.69) rotate(-7.35)"/>
            <rect class="cls-23" x="54.16" y="42.34" width="7.34" height="9.96" transform="translate(-5.58 7.79) rotate(-7.35)"/>
            <rect class="cls-23" x="21.05" y="57.97" width="7.34" height="9.96" transform="translate(-7.85 3.68) rotate(-7.35)"/>
            <rect class="cls-23" x="29.69" y="56.86" width="7.34" height="9.96" transform="translate(-7.64 4.78) rotate(-7.35)"/>
            <rect class="cls-23" x="38.32" y="55.74" width="7.34" height="9.96" transform="translate(-7.42 5.87) rotate(-7.35)"/>
            <rect class="cls-23" x="46.96" y="54.63" width="7.34" height="9.96" transform="translate(-7.21 6.97) rotate(-7.35)"/>
            <rect class="cls-23" x="55.6" y="53.51" width="7.34" height="9.96" transform="translate(-7 8.07) rotate(-7.35)"/>
            <rect class="cls-23" x="22.49" y="69.14" width="7.34" height="9.96" transform="translate(-9.27 3.96) rotate(-7.35)"/>
            <rect class="cls-23" x="31.13" y="68.03" width="7.34" height="9.96" transform="translate(-9.06 5.05) rotate(-7.35)"/>
            <rect class="cls-23" x="39.77" y="66.91" width="7.34" height="9.96" transform="translate(-8.84 6.15) rotate(-7.35)"/>
            <rect class="cls-23" x="48.4" y="65.8" width="7.34" height="9.96" transform="translate(-8.63 7.24) rotate(-7.35)"/>
            <rect class="cls-23" x="57.04" y="64.68" width="7.34" height="9.96" transform="translate(-8.42 8.34) rotate(-7.35)"/>
            <path class="cls-6" d="m9.77,21.97l-.41-3.2c-.26-2.01,1.16-3.85,3.17-4.11l2.23-.29c2.01-.26,3.85,1.16,4.11,3.17l.71,5.52c.26,2.01-1.16,3.85-3.17,4.11h0"/>
            <path class="cls-6" d="m16.12,21.15l-.41-3.2c-.26-2.01,1.16-3.85,3.17-4.11l2.23-.29c2.01-.26,3.85,1.16,4.11,3.17l.71,5.52c.26,2.01-1.16,3.85-3.17,4.11h0"/>
            <path class="cls-6" d="m22.48,20.33l-.41-3.2c-.26-2.01,1.16-3.85,3.17-4.11l2.23-.29c2.01-.26,3.85,1.16,4.11,3.17l.71,5.52c.26,2.01-1.16,3.85-3.17,4.11h0"/>
            <path class="cls-6" d="m28.83,19.51l-.41-3.2c-.26-2.01,1.16-3.85,3.17-4.11l2.23-.29c2.01-.26,3.85,1.16,4.11,3.17l.71,5.52c.26,2.01-1.16,3.85-3.17,4.11h0"/>
            <path class="cls-6" d="m35.18,18.69l-.41-3.2c-.26-2.01,1.16-3.85,3.17-4.11l2.23-.29c2.01-.26,3.85,1.16,4.11,3.17l.71,5.52c.26,2.01-1.16,3.85-3.17,4.11h0"/>
            <path class="cls-6" d="m41.54,17.87l-.41-3.2c-.26-2.01,1.16-3.85,3.17-4.11l2.23-.29c2.01-.26,3.85,1.16,4.11,3.17l.71,5.52c.26,2.01-1.16,3.85-3.17,4.11h0"/>
            <path class="cls-6" d="m47.89,17.05l-.41-3.2c-.26-2.01,1.16-3.85,3.17-4.11l2.23-.29c2.01-.26,3.85,1.16,4.11,3.17l.71,5.52c.26,2.01-1.16,3.85-3.17,4.11h0"/>
          </g>
          <g>
            <circle class="cls-21" cx="81.9" cy="88.13" r="58.2"/>
            <circle class="cls-4" cx="84.64" cy="88.13" r="58.2"/>
            <g>
              <path class="cls-5" d="m93.72,116.86c10.5-4.24,20.04-11.29,26.22-20.77,7.18-11.02,9.35-24.38,8.72-37.68-9.54-14.11-25.7-23.39-44.02-23.39-29.33,0-53.1,23.77-53.1,53.1,0,9.72,2.61,18.83,7.17,26.67,17.04,8.06,37.47,9.14,55,2.07Z"/>
              <path class="cls-28" d="m128.66,58.41c.63,13.29-1.54,26.66-8.72,37.68-6.18,9.49-15.72,16.54-26.22,20.77-17.53,7.07-37.96,5.99-55-2.07,9.2,15.81,26.32,26.43,45.93,26.43,29.33,0,53.1-23.77,53.1-53.1,0-11.01-3.35-21.23-9.09-29.71Z"/>
            </g>
            <polygon class="cls-29" points="84.06 88.81 59.08 66.54 85.22 87.44 84.06 88.81"/>
            <polygon class="cls-29" points="85.64 87.5 97.17 129.82 83.65 88.76 85.64 87.5"/>
            <circle class="cls-22" cx="84.64" cy="88.13" r="3.93"/>
            <g>
              <line class="cls-9" x1="84.64" y1="35.03" x2="84.64" y2="46.31"/>
              <line class="cls-9" x1="84.64" y1="129.94" x2="84.64" y2="141.23"/>
              <line class="cls-9" x1="137.74" y1="88.13" x2="126.46" y2="88.13"/>
              <line class="cls-9" x1="42.83" y1="88.13" x2="31.54" y2="88.13"/>
            </g>
            <g>
              <line class="cls-9" x1="39.82" y1="59.65" x2="49.35" y2="65.71"/>
              <line class="cls-9" x1="119.94" y1="110.55" x2="129.46" y2="116.6"/>
              <line class="cls-9" x1="113.12" y1="43.31" x2="107.06" y2="52.83"/>
              <line class="cls-9" x1="62.22" y1="123.42" x2="56.17" y2="132.95"/>
            </g>
            <g>
              <line class="cls-9" x1="129.46" y1="59.65" x2="119.94" y2="65.71"/>
              <line class="cls-9" x1="49.35" y1="110.55" x2="39.82" y2="116.6"/>
              <line class="cls-9" x1="56.17" y1="43.31" x2="62.22" y2="52.83"/>
              <line class="cls-9" x1="107.06" y1="123.42" x2="113.12" y2="132.95"/>
            </g>
          </g>
          <g>
            <rect class="cls-14" x="7.6" y="126.16" width="54.81" height="30.12" transform="translate(-47.77 21.57) rotate(-20.75)"/>
            <polygon class="cls-22" points="35.01 141.22 4.05 136.85 36.27 144.55 55.3 117.43 35.01 141.22"/>
          </g>
          <g>
            <g>
              <rect class="cls-29" x="103.32" y="104.67" width="49.09" height="63.32" transform="translate(34.74 -25.73) rotate(13.28)"/>
              <rect class="cls-3" x="104.21" y="104.88" width="49.09" height="63.32" transform="translate(34.81 -25.93) rotate(13.28)"/>
              <rect class="cls-5" x="107.95" y="110.97" width="41.05" height="53.51" transform="translate(35.08 -25.83) rotate(13.28)"/>
              <path class="cls-21" d="m129.45,99.09h14.7c2.36,0,4.27,1.91,4.27,4.27v2.45h-23.24v-2.45c0-2.36,1.91-4.27,4.27-4.27Z" transform="translate(27.2 -28.69) rotate(13.28)"/>
              <g>
                <path class="cls-26" d="m124.14,117.31c-.5,2.12-2.63,3.44-4.75,2.93s-3.44-2.63-2.93-4.75c.5-2.12,2.63-3.44,4.75-2.93,2.12.5,3.44,2.63,2.93,4.75Z"/>
                <polyline class="cls-7" points="118.45 114.73 120.1 117.39 124.85 114.46"/>
                <g>
                  <line class="cls-8" x1="127.99" y1="115.68" x2="149.73" y2="120.81"/>
                  <line class="cls-8" x1="127.42" y1="118.08" x2="149.17" y2="123.21"/>
                  <line class="cls-8" x1="126.85" y1="120.48" x2="148.6" y2="125.61"/>
                </g>
              </g>
              <g>
                <path class="cls-26" d="m121.25,129.53c-.5,2.12-2.63,3.44-4.75,2.93-2.12-.5-3.44-2.63-2.93-4.75s2.63-3.44,4.75-2.93c2.12.5,3.44,2.63,2.93,4.75Z"/>
                <polyline class="cls-7" points="115.57 126.96 117.22 129.62 121.96 126.69"/>
                <g>
                  <line class="cls-8" x1="125.1" y1="127.91" x2="146.85" y2="133.04"/>
                  <line class="cls-8" x1="124.53" y1="130.31" x2="146.28" y2="135.44"/>
                  <line class="cls-8" x1="123.97" y1="132.71" x2="145.71" y2="137.84"/>
                </g>
              </g>
              <g>
                <path class="cls-26" d="m118.36,141.76c-.5,2.12-2.63,3.44-4.75,2.93-2.12-.5-3.44-2.63-2.93-4.75.5-2.12,2.63-3.44,4.75-2.93,2.12.5,3.44,2.63,2.93,4.75Z"/>
                <polyline class="cls-7" points="112.68 139.18 114.33 141.85 119.07 138.92"/>
                <g>
                  <line class="cls-8" x1="122.21" y1="140.14" x2="143.96" y2="145.27"/>
                  <line class="cls-8" x1="121.65" y1="142.54" x2="143.39" y2="147.67"/>
                  <line class="cls-8" x1="121.08" y1="144.94" x2="142.83" y2="150.07"/>
                </g>
              </g>
              <path class="cls-1" d="m118.74,105.68h33.73v1.96c0,.95-.77,1.73-1.73,1.73h-30.27c-.95,0-1.73-.77-1.73-1.73v-1.96h0Z" transform="translate(28.33 -28.28) rotate(13.28)"/>
            </g>
            <g>
              <path class="cls-26" d="m115.57,154.01c-.5,2.12-2.63,3.44-4.75,2.93-2.12-.5-3.44-2.63-2.93-4.75.5-2.12,2.63-3.44,4.75-2.93,2.12.5,3.44,2.63,2.93,4.75Z"/>
              <polyline class="cls-7" points="109.88 151.44 111.53 154.1 116.28 151.17"/>
              <g>
                <line class="cls-8" x1="119.42" y1="152.39" x2="141.16" y2="157.52"/>
                <line class="cls-8" x1="118.85" y1="154.79" x2="140.59" y2="159.92"/>
                <line class="cls-8" x1="118.28" y1="157.19" x2="140.03" y2="162.32"/>
              </g>
            </g>
          </g>
          <g>
            <path class="cls-5" d="m145.86,55.23c-1.08,2.48-2.41,4.83-4,7.03,1.08-2.48,2.42-4.83,4-7.03h0Z"/>
            <g>
              <path class="cls-21" d="m151.46,72.64s-3.83,6.01-7.63,10.49c-3.79,4.48-9.14,9.5-9.14,9.5l-28.61-11.99,4.2-9.8,20.95,6.47,12.07-17.08,8.16,12.4Z"/>
              <g>
                <path class="cls-15" d="m105.77,68.96l4.51,1.9-2.96,6.9-2.93-1-6.47.27-1.9-.95c-.7-.35-.96-1.21-.58-1.89l.52-.92-.46-.36c-.65-.51-.71-1.48-.11-2.06l.52-.5-.7-.95c-.5-.67-.28-1.63.46-2.02l.71-.37-.23-1.26c-.13-.71.32-1.4,1.02-1.58h0c.91-.22,1.88-.04,2.64.51l5.96,4.28Z"/>
                <path class="cls-15" d="m105.85,69.42c-1.37-2.94-2.77-5.96-3.02-9.19-.01-.16-.03-.34-.16-.43-.08-.05-.17-.06-.26-.06-.76,0-1.45.56-1.73,1.27-.27.71-.17,1.52.16,2.21.07.15.15.31.15.47,0,.14-.08.28-.15.4-.24.42-.48.84-.72,1.26,1.5,1.82,3.51,3.3,5.73,4.08Z"/>
                <path class="cls-24" d="m103.23,67.46c-1.07-.7-2.05-1.51-2.93-2.44,1.07.7,2.05,1.52,2.93,2.44,0,0-.89-.92,0,0Z"/>
              </g>
              <g>
                <path class="cls-12" d="m101.74,28.86l6.92,2.67c.9.35,1.46,1.25,1.36,2.21l-.35,3.52-2.4,3.93s-.98-.27-.63-1.37c.35-1.1,1.53-4.05,1.53-4.05v-2.08s-1.14,4.8-2.22,5.7c-1.08.89-5-.85-6.07-1.71-.52-.42.4-1.78.53-3.81.13-2.13-.48-4.92,1.32-5Z"/>
                <path class="cls-24" d="m106.17,30.47c.45,3.19-.48,6.58-2.48,9.1,1.75-2.69,2.63-5.89,2.48-9.1,0,0,.15,3.21,0,0Z"/>
                <path class="cls-24" d="m103.53,29.56c.24,2.75-.35,5.57-1.61,8.02-.2.32-.33.76-.72.91.37-.18.46-.61.63-.95,1.12-2.51,1.67-5.23,1.7-7.97h0Z"/>
              </g>
            </g>
          </g>
        </g>
      </g>
    </g>
  </g>
</svg>