<?xml version="1.0" encoding="UTF-8"?>
<svg id="Layer_2" data-name="Layer 2" xmlns="http://www.w3.org/2000/svg" xmlns:xlink="http://www.w3.org/1999/xlink" viewBox="0 0 237.33 202.82">
  <defs>
    <style>
      .cls-1 {
        fill: #d1dee5;
      }

      .cls-2 {
        fill: url(#_Áåçûìÿííûé_ãðàäèåíò_136-2);
      }

      .cls-3 {
        fill: #172755;
      }

      .cls-4 {
        fill: #fff;
      }

      .cls-5 {
        fill: #1660a8;
      }

      .cls-6 {
        fill: #c5c5e2;
      }

      .cls-7 {
        fill: #029388;
      }

      .cls-8, .cls-9 {
        opacity: .34;
      }

      .cls-8, .cls-10 {
        fill: #66187f;
      }

      .cls-11 {
        fill: #0d726e;
      }

      .cls-12 {
        opacity: .42;
      }

      .cls-12, .cls-13 {
        fill: #11b7ae;
      }

      .cls-14 {
        fill: #dd2400;
      }

      .cls-15 {
        fill: #a8a7c0;
      }

      .cls-16 {
        fill: #aa2400;
      }

      .cls-17 {
        fill: #046865;
      }

      .cls-18 {
        opacity: .58;
      }

      .cls-19 {
        fill: #2d48b5;
      }

      .cls-20 {
        fill: #003663;
      }

      .cls-21 {
        fill: #2d3368;
      }

      .cls-22 {
        fill: #6f7f87;
      }

      .cls-23 {
        fill: #79d3bd;
      }

      .cls-24 {
        fill: #004e15;
      }

      .cls-25 {
        fill: #576c7c;
      }

      .cls-26 {
        fill: #c5fff4;
      }

      .cls-27 {
        fill: #7fd3c2;
      }

      .cls-28 {
        fill: #f0fffc;
      }

      .cls-29 {
        fill: #a6e2d6;
      }

      .cls-30 {
        fill: #6accba;
      }

      .cls-31 {
        fill: #e6e6ff;
      }

      .cls-32 {
        fill: #ffb68e;
      }

      .cls-33 {
        opacity: .53;
      }

      .cls-34 {
        fill: #bdfff4;
      }

      .cls-35 {
        fill: #020023;
      }

      .cls-36 {
        fill: #003030;
      }

      .cls-37 {
        fill: #13e5d6;
      }

      .cls-38 {
        fill: #195193;
      }

      .cls-39 {
        fill: #087777;
      }

      .cls-40 {
        fill: #ef8b59;
      }

      .cls-41 {
        fill: #0d1e43;
      }

      .cls-42 {
        fill: #0c1b3f;
      }

      .cls-43 {
        fill: url(#_Áåçûìÿííûé_ãðàäèåíò_136-3);
      }

      .cls-44 {
        fill: #ff3c00;
      }

      .cls-45 {
        fill: #2e77ce;
      }

      .cls-46 {
        fill: #cfe5e1;
      }

      .cls-47 {
        fill: #bc2800;
      }

      .cls-48 {
        fill: url(#_Áåçûìÿííûé_ãðàäèåíò_17);
      }

      .cls-49 {
        fill: url(#_Áåçûìÿííûé_ãðàäèåíò_136);
      }

      .cls-50 {
        fill: #004345;
      }

      .cls-51 {
        fill: #093e72;
      }

      .cls-52 {
        fill: #583360;
      }
    </style>
    <linearGradient id="_Áåçûìÿííûé_ãðàäèåíò_136" data-name="Áåçûìÿííûé ãðàäèåíò 136" x1="39.45" y1="80.41" x2="72.91" y2="80.41" gradientUnits="userSpaceOnUse">
      <stop offset=".11" stop-color="#ffffa4"/>
      <stop offset=".41" stop-color="#ffd234"/>
      <stop offset=".8" stop-color="#ff9200"/>
    </linearGradient>
    <linearGradient id="_Áåçûìÿííûé_ãðàäèåíò_17" data-name="Áåçûìÿííûé ãðàäèåíò 17" x1="186.57" y1="74.84" x2="155.05" y2="87.43" gradientUnits="userSpaceOnUse">
      <stop offset=".24" stop-color="#0c5a58"/>
      <stop offset=".49" stop-color="#046865"/>
      <stop offset=".79" stop-color="#0b817e"/>
      <stop offset="1" stop-color="#2aa3a0"/>
    </linearGradient>
    <linearGradient id="_Áåçûìÿííûé_ãðàäèåíò_136-2" data-name="Áåçûìÿííûé ãðàäèåíò 136" x1="26.47" y1="-599.17" x2="16.62" y2="-588.26" gradientTransform="translate(-104.98 658.19) rotate(16.97)" xlink:href="#_Áåçûìÿííûé_ãðàäèåíò_136"/>
    <linearGradient id="_Áåçûìÿííûé_ãðàäèåíò_136-3" data-name="Áåçûìÿííûé ãðàäèåíò 136" x1="-4.89" y1="-591.72" x2="9.78" y2="-591.72" gradientTransform="translate(-104.98 658.19) rotate(16.97)" xlink:href="#_Áåçûìÿííûé_ãðàäèåíò_136"/>
  </defs>
  <g id="Layer_1-2" data-name="Layer 1">
    <g>
      <path class="cls-34" d="m21.15,171.18S-10.09,123.88,3.37,114.45c13.46-9.43,27.23,4.87,23.81-6.89-6.07-20.85,1.44-81.04,53.44-63.72,17.53,5.84,6.57-18.77,27.92-35.66,14.53-11.49,46.74-14.25,56.14,14.29,4.27,12.96,9.31,23.49,20.16,19.67,32.86-11.56,1.57,68.25,17.48,65.78,15.91-2.47,33.6,6.35,24.38,35.75-3.81,12.15-9.03,22.39-12.1,29.56l-193.44-2.06Z"/>
      <g>
        <path class="cls-29" d="m114.04,147.51s-9.59-23.16-5.68-27.82c3.92-4.66,11.92,14.76,13.79,11.89,1.87-2.87-5.02-28.16,1.7-32.92,6.73-4.76,5.79,28.02,9.45,24.33,3.66-3.68,4.3-17.79,8.02-12.92,3.72,4.87-5.64,20.1-1.64,20.19s6.51-5.43,7.9-1.36c1.38,4.07-10,34.85-10,34.85l-23.55-16.25Z"/>
        <path class="cls-4" d="m119.72,148.11c-.06,0-.12-.05-.13-.13,0-.07-.99-7.21-3.44-14.23-2.45-7.01-7.07-12.88-7.12-12.94-.05-.06-.04-.15,0-.21.05-.05.14-.05.18.01.05.06,4.7,5.96,7.17,13.02,2.47,7.05,3.45,14.23,3.46,14.3.01.08-.04.16-.11.17,0,0-.01,0-.02,0Z"/>
        <path class="cls-4" d="m128.31,148.87c-.07,0-.12-.06-.13-.13,0-.06-.58-6.22-2.49-21.77-1.91-15.57-.02-30.21,0-30.36.01-.08.08-.14.15-.12.07.01.12.09.11.17-.02.15-1.9,14.75,0,30.27,1.9,15.55,2.48,21.72,2.49,21.78,0,.08-.04.15-.12.16,0,0,0,0-.01,0Z"/>
        <path class="cls-4" d="m131.12,148.08s0,0-.01,0c-.07,0-.12-.08-.12-.16,0-.08.77-8.17,4.66-22.92,3.9-14.77,6.96-18.61,7.09-18.76.05-.06.13-.06.18,0,.05.06.06.15,0,.21-.03.04-3.16,3.97-7.03,18.65-3.88,14.72-4.64,22.79-4.65,22.87,0,.08-.06.13-.13.13Z"/>
        <path class="cls-4" d="m138.19,148.11c-.06,0-.12-.05-.13-.13-.02-.14-.41-3.41,3.17-9.96.61-1.12,1.19-2.15,1.72-3.12,2.56-4.6,4.24-7.64,4.22-9.87,0-.08.06-.15.13-.15h0c.07,0,.13.06.13.15.03,2.33-1.58,5.23-4.26,10.04-.53.96-1.11,2-1.72,3.11-3.53,6.46-3.14,9.73-3.13,9.76.01.08-.04.16-.11.17,0,0-.01,0-.02,0Z"/>
        <path class="cls-4" d="m139.09,114.42c-.05,0-.11-.04-.12-.1l-.92-3.15c-.02-.08.01-.16.08-.19.07-.02.14.02.16.09l.92,3.15c.02.08-.01.16-.08.19-.01,0-.03,0-.04,0Z"/>
        <path class="cls-4" d="m137.58,118.88c-.06,0-.12-.05-.13-.12l-.6-3.84c-.01-.08.03-.16.11-.17.07-.02.14.04.15.12l.6,3.84c.01.08-.03.16-.11.17,0,0-.02,0-.02,0Z"/>
        <path class="cls-4" d="m135.96,124.48c-.05,0-.1-.04-.12-.1l-1.19-3.61c-.03-.08,0-.16.08-.19.07-.03.14,0,.17.09l1.19,3.61c.03.08,0,.16-.08.19-.01,0-.03,0-.05,0Z"/>
        <path class="cls-4" d="m134.92,128.54c-.05,0-.1-.04-.12-.1l-1.61-5.4c-.02-.08.01-.16.08-.19.07-.03.14.02.16.09l1.61,5.4c.02.08-.01.16-.08.19-.01,0-.03,0-.04,0Z"/>
        <path class="cls-4" d="m125.42,123.14s-.07-.02-.1-.05c-.05-.06-.04-.15,0-.21l5.71-5.83c.05-.05.14-.05.18.01.05.06.04.15,0,.21l-5.71,5.83s-.06.04-.09.04Z"/>
        <path class="cls-4" d="m125.42,118.88s-.07-.02-.1-.05c-.05-.06-.05-.15,0-.21l5.15-5.43c.05-.05.13-.05.18,0,.05.06.05.15,0,.21l-5.15,5.43s-.06.04-.09.04Z"/>
        <path class="cls-4" d="m124.97,114.14s-.07-.02-.1-.05c-.05-.06-.04-.16.01-.21l4.62-4.53c.05-.05.14-.05.18.02.05.06.04.16-.01.21l-4.62,4.53s-.05.04-.08.04Z"/>
        <path class="cls-4" d="m124.97,109.88s-.08-.02-.1-.05c-.05-.06-.04-.16.02-.21l4.62-4.29c.06-.05.14-.04.18.02.05.06.04.16-.02.21l-4.62,4.29s-.05.03-.08.03Z"/>
        <path class="cls-4" d="m125.12,105.59s-.07-.02-.1-.05c-.05-.06-.04-.15.01-.21l3.19-3.17c.05-.05.14-.05.18.01.05.06.04.15-.01.21l-3.19,3.17s-.06.04-.09.04Z"/>
        <path class="cls-4" d="m114.87,130.39h-6.88c-.07,0-.13-.07-.13-.15s.06-.15.13-.15h6.88c.07,0,.13.07.13.15s-.06.15-.13.15Z"/>
        <path class="cls-4" d="m109.13,135.79c-.06,0-.12-.05-.13-.12-.01-.08.03-.16.1-.17l7.28-1.55c.07-.02.14.04.15.12.01.08-.03.16-.1.17l-7.28,1.55s-.02,0-.02,0Z"/>
        <path class="cls-4" d="m110.2,140.72c-.06,0-.11-.04-.12-.11-.02-.08.02-.16.09-.18l7.43-2.5c.07-.02.14.02.16.1.02.08-.02.16-.09.18l-7.43,2.5s-.02,0-.04,0Z"/>
        <path class="cls-4" d="m112.08,145.08c-.05,0-.11-.04-.12-.1-.02-.08.02-.16.08-.19l6.63-2.44c.07-.02.14.02.16.1.02.08-.02.16-.08.19l-6.63,2.44s-.03,0-.04,0Z"/>
        <path class="cls-4" d="m138.17,146.5c-.06,0-.11-.04-.12-.11-.02-.08.02-.16.09-.18l5.16-1.69c.07-.02.14.02.16.1.02.08-.02.16-.09.18l-5.16,1.69s-.02,0-.04,0Z"/>
        <path class="cls-4" d="m138.73,144.36c-.05,0-.1-.04-.12-.1-.02-.08.01-.16.08-.19l5.78-2.37c.07-.03.14.01.17.09.02.08-.01.16-.08.19l-5.78,2.37s-.03,0-.04,0Z"/>
        <path class="cls-4" d="m139.74,141.53c-.06,0-.11-.04-.13-.11-.02-.08.02-.16.09-.18l6.03-1.78c.07-.02.14.03.16.11.02.08-.02.16-.09.18l-6.03,1.78s-.02,0-.03,0Z"/>
        <path class="cls-4" d="m141.04,138.81c-.06,0-.11-.05-.13-.12-.02-.08.03-.16.1-.18l5.84-1.49c.07-.02.14.03.16.11.02.08-.03.16-.1.18l-5.84,1.49s-.02,0-.03,0Z"/>
        <path class="cls-4" d="m142.49,136.16c-.06,0-.11-.05-.13-.12-.01-.08.03-.16.1-.18l4.81-1.14c.07-.01.14.03.15.12.01.08-.03.16-.1.18l-4.81,1.14s-.02,0-.03,0Z"/>
        <path class="cls-4" d="m143.77,133.85c-.06,0-.11-.04-.12-.1-.02-.08.02-.16.09-.18l4.42-1.58c.07-.02.14.02.16.1.02.08-.02.16-.09.18l-4.42,1.58s-.03,0-.04,0Z"/>
        <path class="cls-4" d="m145.12,131.36c-.05,0-.1-.04-.12-.1-.02-.08.01-.16.08-.19l3.09-1.24c.07-.03.14.01.17.09.02.08-.01.16-.08.19l-3.09,1.24s-.03,0-.04,0Z"/>
        <path class="cls-4" d="m145.98,129.68s-.1-.03-.12-.09c-.03-.07,0-.16.06-.2l2.21-1.14c.07-.04.14,0,.17.07.03.07,0,.16-.06.2l-2.21,1.14s-.04.01-.05.01Z"/>
      </g>
      <path class="cls-4" d="m208.33,176.47l-.46-2.14c-.03-.14-.74-3.57,0-13.55.64-8.72,4.45-28.84,5.42-33.89-2.23,2.62-8.58,10.93-10.01,22.18-1.74,13.66,2.87,23.84,2.91,23.94l-.59.27c-.05-.1-4.73-10.45-2.97-24.3,1.76-13.86,10.87-23.33,10.97-23.43l.76-.78-.21,1.07c-.05.25-4.9,25.05-5.63,34.97-.35,4.73-.36,7.99-.29,10.1.73-5.86,2.69-18.18,6.91-25.75,5.68-10.21,12.19-12.63,12.47-12.73l.68-.24-16.66,41.52-.6-.24,16.09-40.1c-1.84.93-6.93,4.07-11.41,12.11-5.59,10.04-7.18,28.61-7.19,28.79l-.18,2.18Z"/>
      <path class="cls-4" d="m201.3,173.62c-.04-.08-4.46-8.01-6.48-18.41-2.03-10.47,4.83-21.71,4.9-21.82l.53-.85,3.01,40.9-.65.05-2.86-38.84c-1.56,2.86-5.95,11.93-4.29,20.44,2,10.3,6.36,18.14,6.4,18.22l-.57.32Z"/>
      <ellipse class="cls-27" cx="59.43" cy="174.26" rx="40.88" ry="4.6"/>
      <g>
        <g>
          <polygon class="cls-4" points="44.23 148.79 90.27 148.79 93.97 150.47 50.2 150.47 44.23 148.79"/>
          <polygon class="cls-4" points="93.97 175.76 50.2 175.76 50.2 150.47 93.97 150.47 93.97 152.49 91.22 153.97 93.97 155.23 93.97 155.54 93.97 156.66 93.22 158.6 93.97 159.91 93.97 161.19 91.52 162.69 93.97 162.69 93.97 163.41 93.97 163.92 93.97 165.02 92.67 166.09 93.97 168.12 92.95 170.21 93.97 171.94 93.97 172.63 93.97 173.75 93.34 174.45 93.97 175.23 93.97 175.76"/>
          <polygon class="cls-13" points="50.2 175.76 47.4 174.92 47.21 149.63 50.2 150.47 50.2 175.76"/>
          <polygon class="cls-28" points="64.28 157.51 50.2 157.51 57.24 159.69 64.28 157.51"/>
          <polygon class="cls-13" points="50.2 170.52 55.35 169.18 50.2 169.18 51.07 165.66 49.87 163.41 50.2 170.52"/>
          <polygon class="cls-13" points="50.2 156.31 56.9 156.31 49.55 155.23 50.2 156.31"/>
          <polygon class="cls-13" points="49.01 151.66 59.58 151.66 49.55 150.72 49.01 151.66"/>
          <polygon class="cls-13" points="49.01 171.46 59.58 170.99 49.55 170.52 49.01 171.46"/>
          <polygon class="cls-13" points="48.52 174.7 54.3 174.7 49.05 173.75 48.52 174.7"/>
          <polygon class="cls-13" points="50.16 155.54 50.85 153.89 49.55 152.4 50.16 155.54"/>
          <polygon class="cls-13" points="44.23 174.09 44.23 171.87 47.4 172.75 44.23 171.55 44.23 168.68 45.97 168.79 44.23 168.21 44.23 163.11 44.85 161.9 44.18 160.75 44.18 159.06 47.06 158.96 44.13 158 44.13 155.23 44.59 154.24 44.23 153.28 44.23 151.19 46.93 152.12 44.23 150.47 44.23 148.79 48.52 149.99 48.52 175.23 44.23 174.09"/>
          <polygon class="cls-34" points="77 170.52 58.51 170.52 68.02 171.94 77 170.52"/>
          <polygon class="cls-34" points="91.75 163.75 78.83 163.75 90.89 166.09 91.75 163.75"/>
          <polygon class="cls-28" points="93.97 155.23 81.58 155.14 96.71 156.66 93.97 155.23"/>
          <polygon class="cls-34" points="69.34 165.19 50.85 165.19 56.53 166.62 69.34 165.19"/>
          <polygon class="cls-28" points="82.86 159.2 69.59 159.2 78.14 160.3 82.86 159.2"/>
          <polygon class="cls-28" points="90.1 174.33 76.83 174.33 85.53 174.89 90.1 174.33"/>
          <polygon class="cls-13" points="85.75 161.73 61.19 161.65 79.12 162.54 85.75 161.73"/>
          <polygon class="cls-13" points="94.14 152.49 78.36 152.4 92.32 153.29 94.14 152.49"/>
          <polygon class="cls-13" points="84.26 172.37 70.46 172.43 80.96 173.1 84.26 172.37"/>
          <polygon class="cls-28" points="63.26 153.87 50.85 153.87 54.3 154.74 63.26 153.87"/>
          <polygon class="cls-28" points="62.45 174.02 50.05 174.02 53.49 174.89 62.45 174.02"/>
          <polygon class="cls-4" points="48.8 157.44 44.18 155.89 42.72 156.93 48.8 157.44"/>
          <polygon class="cls-4" points="50.2 166.03 44.67 164.47 46.13 166.09 50.2 166.03"/>
        </g>
        <g>
          <polygon class="cls-4" points="49.04 127.98 95.09 127.98 98.78 129.43 55.02 129.43 49.04 127.98"/>
          <polygon class="cls-4" points="98.78 151.34 55.02 151.34 55.02 129.43 98.78 129.43 98.78 131.18 96.04 132.47 98.78 133.56 98.78 133.82 98.78 134.8 98.03 136.47 98.78 137.61 98.78 138.72 96.34 140.02 98.78 140.02 98.78 140.64 98.78 141.08 98.78 142.03 97.49 142.96 98.78 144.72 97.76 146.53 98.78 148.03 98.78 148.63 98.78 149.6 98.16 150.2 98.78 150.88 98.78 151.34"/>
          <polygon class="cls-13" points="55.02 151.34 52.21 150.61 52.02 128.7 55.02 129.43 55.02 151.34"/>
          <polygon class="cls-34" points="69.1 135.53 55.02 135.53 62.06 137.42 69.1 135.53"/>
          <polygon class="cls-13" points="55.02 146.79 60.17 145.64 55.02 145.64 55.88 142.59 54.69 140.64 55.02 146.79"/>
          <polygon class="cls-13" points="55.02 134.49 61.72 134.49 54.37 133.56 55.02 134.49"/>
          <polygon class="cls-13" points="53.83 130.46 64.4 130.46 54.37 129.65 53.83 130.46"/>
          <polygon class="cls-13" points="53.83 147.61 64.4 147.2 54.37 146.79 53.83 147.61"/>
          <polygon class="cls-13" points="53.33 150.41 59.11 150.41 53.87 149.6 53.33 150.41"/>
          <polygon class="cls-13" points="54.98 133.82 55.66 132.4 54.37 131.11 54.98 133.82"/>
          <polygon class="cls-13" points="49.04 149.89 49.04 147.97 52.21 148.73 49.04 147.69 49.04 145.2 50.79 145.3 49.04 144.8 49.04 140.38 49.67 139.34 49 138.33 49 136.87 51.88 136.78 48.95 135.96 48.95 133.56 49.41 132.7 49.04 131.87 49.04 130.05 51.74 130.86 49.04 129.43 49.04 127.98 53.33 129.02 53.33 150.88 49.04 149.89"/>
          <polygon class="cls-34" points="81.82 146.79 63.32 146.79 72.84 148.03 81.82 146.79"/>
          <polygon class="cls-28" points="96.57 140.94 83.65 140.94 95.71 142.96 96.57 140.94"/>
          <polygon class="cls-28" points="98.78 133.56 86.39 133.48 101.52 134.8 98.78 133.56"/>
          <polygon class="cls-34" points="74.16 142.18 55.66 142.18 61.35 143.42 74.16 142.18"/>
          <polygon class="cls-34" points="87.67 136.99 74.4 136.99 82.96 137.95 87.67 136.99"/>
          <polygon class="cls-28" points="94.91 150.1 81.64 150.1 90.35 150.58 94.91 150.1"/>
          <polygon class="cls-13" points="90.56 139.19 66.01 139.12 83.93 139.89 90.56 139.19"/>
          <polygon class="cls-13" points="98.96 131.18 83.17 131.11 97.14 131.88 98.96 131.18"/>
          <polygon class="cls-13" points="89.07 148.4 75.28 148.45 85.78 149.03 89.07 148.4"/>
          <polygon class="cls-28" points="68.07 132.38 55.66 132.38 59.11 133.13 68.07 132.38"/>
          <polygon class="cls-28" points="67.27 149.83 54.86 149.83 58.31 150.58 67.27 149.83"/>
          <polygon class="cls-4" points="53.62 135.47 49 134.12 47.54 135.03 53.62 135.47"/>
          <polygon class="cls-4" points="55.02 142.91 49.49 141.56 50.95 142.96 55.02 142.91"/>
        </g>
        <g>
          <polygon class="cls-4" points="35.7 103.24 81.75 102.64 85.44 104.31 41.68 104.31 35.7 103.24"/>
          <polygon class="cls-4" points="85.44 129.61 41.68 129.61 41.68 104.31 85.44 104.31 85.44 106.33 82.7 107.82 85.44 109.07 85.44 109.39 85.44 110.51 84.69 112.44 85.44 113.76 85.44 115.04 83 116.54 85.44 116.54 85.44 117.25 85.44 117.77 85.44 118.86 84.15 119.93 85.44 121.96 84.42 124.06 85.44 125.79 85.44 126.48 85.44 127.6 84.81 128.3 85.44 129.08 85.44 129.61"/>
          <polygon class="cls-13" points="41.68 129.61 38.87 128.77 38.49 103.85 41.68 104.31 41.68 129.61"/>
          <polygon class="cls-34" points="55.76 111.35 41.68 111.35 48.72 113.53 55.76 111.35"/>
          <polygon class="cls-13" points="41.68 124.36 46.83 123.02 41.68 123.02 42.54 119.51 41.35 117.25 41.68 124.36"/>
          <polygon class="cls-13" points="41.68 110.15 48.38 110.15 41.03 109.07 41.68 110.15"/>
          <polygon class="cls-13" points="40.49 105.5 51.06 105.5 41.03 104.56 40.49 105.5"/>
          <polygon class="cls-13" points="40.49 125.3 51.06 124.83 41.03 124.36 40.49 125.3"/>
          <polygon class="cls-13" points="39.99 128.54 45.77 128.54 40.53 127.6 39.99 128.54"/>
          <polygon class="cls-13" points="41.64 109.39 42.32 107.74 41.03 106.25 41.64 109.39"/>
          <polygon class="cls-13" points="35.7 127.94 35.7 125.71 38.87 126.59 35.7 125.4 35.7 122.52 37.45 122.63 35.7 122.05 35.7 116.96 36.33 115.75 35.65 114.59 35.65 112.91 38.54 112.8 35.61 111.85 35.61 109.07 36.07 108.09 35.7 107.12 35.7 105.03 38.4 105.97 35.7 104.31 35.7 103.24 41.68 104.31 39.99 129.08 35.7 127.94"/>
          <polygon class="cls-34" points="68.48 124.36 49.98 124.36 59.5 125.79 68.48 124.36"/>
          <polygon class="cls-34" points="83.23 117.6 70.31 117.6 82.37 119.93 83.23 117.6"/>
          <polygon class="cls-28" points="85.44 109.07 73.05 108.99 88.18 110.51 85.44 109.07"/>
          <polygon class="cls-34" points="60.82 119.03 42.32 119.03 48 120.46 60.82 119.03"/>
          <polygon class="cls-34" points="74.33 113.04 61.06 113.04 69.62 114.15 74.33 113.04"/>
          <polygon class="cls-28" points="81.57 128.18 68.3 128.18 77 128.73 81.57 128.18"/>
          <polygon class="cls-13" points="77.22 115.58 52.67 115.5 70.59 116.38 77.22 115.58"/>
          <polygon class="cls-13" points="85.62 106.33 69.83 106.25 83.8 107.13 85.62 106.33"/>
          <polygon class="cls-13" points="75.73 126.22 61.94 126.27 72.44 126.94 75.73 126.22"/>
          <polygon class="cls-34" points="54.73 107.71 42.32 107.71 45.77 108.58 54.73 107.71"/>
          <polygon class="cls-28" points="53.93 127.86 41.52 127.86 44.97 128.73 53.93 127.86"/>
          <polygon class="cls-4" points="40.27 111.29 35.66 109.73 34.2 110.78 40.27 111.29"/>
          <polygon class="cls-4" points="41.68 119.88 36.15 118.31 37.61 119.93 41.68 119.88"/>
        </g>
        <polygon class="cls-13" points="53.93 134.8 88.01 129.61 52.67 130.05 53.93 134.8"/>
        <polygon class="cls-12" points="53.33 150.88 55.66 151.34 94.14 151.74 91.22 153.97 49.49 165.19 48.8 157.44 49.55 150.72 53.33 150.88"/>
      </g>
      <g>
        <g>
          <polygon class="cls-50" points="73.44 103.7 41.19 103.7 41.72 96.96 73.67 96.82 73.44 103.7"/>
          <polygon class="cls-11" points="73.44 103.7 54.06 103.7 41.62 98.17 41.72 96.96 73.67 96.82 73.44 103.7"/>
          <polygon class="cls-31" points="68.69 98.22 68.6 102.3 58.86 102.3 58.86 98.37 68.69 98.22"/>
          <polygon class="cls-31" points="57.98 98.38 58.05 102.3 56.49 102.3 56.33 98.38 57.98 98.38"/>
        </g>
        <g>
          <polygon class="cls-21" points="72.09 96.96 39.83 96.96 40.27 90.08 72.31 90.08 72.09 96.96"/>
          <polygon class="cls-19" points="72.09 96.96 66.68 96.9 43.14 90.11 72.31 90.08 72.09 96.96"/>
          <polygon class="cls-31" points="67.34 91.48 67.25 95.56 57.51 95.56 57.51 91.64 67.34 91.48"/>
          <polygon class="cls-31" points="56.63 91.64 56.69 95.56 55.13 95.56 54.98 91.64 56.63 91.64"/>
        </g>
        <g>
          <polygon class="cls-15" points="35.79 90.07 67.59 90.07 67.48 83.48 35.56 83.19 35.79 90.07"/>
          <polygon class="cls-6" points="67.59 90.07 58.36 90.11 40.54 83.23 67.48 83.48 67.59 90.07"/>
          <polygon class="cls-31" points="40.54 84.59 40.62 88.67 50.36 88.67 50.36 84.75 40.54 84.59"/>
          <polygon class="cls-31" points="51.24 84.75 51.18 88.67 52.74 88.67 52.89 84.75 51.24 84.75"/>
        </g>
        <g>
          <g>
            <polygon class="cls-49" points="72.08 83.54 72.91 77.27 71.08 77.46 39.45 80.62 39.51 81.19 71.56 78.36 70.87 82.93 39.6 82.96 39.57 83.46 72.08 83.54"/>
            <path class="cls-22" d="m71.27,80.27s-1.22-2.23-2.35-1.68c-1.13.55-1.22,1.83-1.22,1.83l.33.2s.28-1.76,1.22-1.74,1.52,1.74,1.52,1.74c0,0,.22,1.17-.74,1.74-.96.56-1.55.07-1.7-.18-.15-.26-.26-1-.26-1l-.37.04s.03,1.07.41,1.41c.41.36,1.25.52,1.96.22.5-.21,1.02-.87,1.02-.87l.19-1.7Z"/>
          </g>
          <polygon class="cls-4" points="69.08 79.77 39.95 81.62 39.61 82.23 39.86 82.62 69.27 81.62 69.27 80.76 69.48 79.96 69.08 79.77"/>
        </g>
      </g>
      <path class="cls-27" d="m116.63,179.93c0-2.53-15.83-4.58-35.36-4.58s-35.36,2.05-35.36,4.58,15.83,4.58,35.36,4.58,35.36-2.05,35.36-4.58Z"/>
      <path class="cls-27" d="m222.3,179.93c0-2.53-17.58-4.58-39.27-4.58s-39.27,2.05-39.27,4.58,17.58,4.58,39.27,4.58,39.27-2.05,39.27-4.58Z"/>
      <g>
        <g>
          <path class="cls-50" d="m162.02,76.39s-5.09,12.44-10.23,14.49c-6.92,2.75-16.69,3.43-16.69,3.43l-.51-2.5s9.31-3.51,14.84-7.26c2.15-1.46,6.4-13.54,7.17-14.48,1.13-1.36,6.53.18,5.42,6.32Z"/>
          <g class="cls-18">
            <polygon class="cls-36" points="155.41 72.61 158.17 72.61 157.85 77.11 153.64 76.83 155.41 72.61"/>
            <polygon class="cls-36" points="157.9 77.24 161.02 77.24 158.74 81.55 157.96 81.7 157.9 77.24"/>
            <polygon class="cls-36" points="153.64 76.83 153.95 76.83 153.58 81.33 151.55 81.39 153.64 76.83"/>
            <polygon class="cls-36" points="153.69 81.32 158.09 81.32 157.01 85.53 153.76 85.77 153.69 81.32"/>
            <path class="cls-36" d="m158.09,69.65h0c2.28-.2,3.94,1.25,3.55,3.32v.05s-3.5-.04-3.5-.04l-.05-3.33Z"/>
            <polygon class="cls-36" points="149.15 85.68 153.55 85.67 153.23 90.17 149.22 90.13 149.15 85.68"/>
            <polygon class="cls-36" points="148.83 84.93 149.42 84.55 149.37 85.7 147.57 85.68 148.83 84.93"/>
            <polygon class="cls-36" points="143.83 87.86 146.86 87.86 146.54 92.36 142.52 92.31 142.47 88.47 143.83 87.86"/>
            <polygon class="cls-36" points="135.42 91.48 139.76 89.74 139.47 93.91 135.45 93.87 135.42 91.48"/>
          </g>
          <path class="cls-40" d="m134.58,91.81s-4.22-.44-4.6.23c-.38.67,1,.46.88.93-.13.47-4.96,1.44-4.26,1.93s2.18.24,2.18.24c0,0-1.98.58-1.42.87s2.4-.19,2.4-.19c0,0-1.12.69-.53.92.59.22,1.89-.25,1.89-.25,0,0-.75,1.35,0,.97.75-.39,3.98-3.16,3.98-3.16l-.51-2.5Z"/>
          <path class="cls-36" d="m160.77,79.93c1.13-1.88,1.51-5.73.73-7.79-.09-.23-.29,1.2-.3,1.29-.11,3.24-7.36,12.12-7.87,12.79-.51.67-1.07,2.74-1.19,2.14-.13-.6-.53-3.5-.88-3.24-.65.49.59,4.14.59,4.14,0,0-1.87-2.21-2-1.78-.13.43.92,2.77.8,2.86-.13.09-1.46-1.8-1.64-1.04-.17.76.09,1.61-.89,1.84-.98.23-13.15,2.38-13.15,2.38l.4.84s9.9-1.2,15.42-2.94c3.82-1.2,7.67-7.66,9.97-11.51Z"/>
          <polygon class="cls-4" points="134.16 91.65 134.71 94.72 135.51 94.3 134.97 91.67 134.16 91.65"/>
        </g>
        <g>
          <path class="cls-32" d="m169.19,69.53s-2.94-6.54-2.8-8.61c.14-2.07.62-6.37-2.81-7.27-3.43-.9-4.72,2.21-5.03,3.45-.31,1.24-.94,4.64-.72,4.71.22.07.99-.4.99-.4,0,0-.32,2.15.59,2.9.91.75,2.2.57,2.2.57,0,0,.76,2.01.52,2.9-.24.9-.77,2.01-.77,2.01,0,0,6.8,3.01,7.83-.26Z"/>
          <path class="cls-40" d="m166.26,70.29s-.03-.07-.07-.2c-.25-.72-1.11-3.25-1.68-5.65-.67-2.83-1.38-5.55-.73-5.74,1.07-.32,1.45-1.91,1.45-1.91,0,0-1.16-.92-1.36-.42-.19.5-.23,1.72-.54,1.72s-.43-.58-1.09-1.73c-.67-1.15-1.41-1.57-1.41-1.57,0,0,1.65-.12,2.74.15s3.22,6.75,3.48,8.6c.26,1.85,2.3,6.06,2.3,6.06,0,0-2.15,2.35-3.1.69Z"/>
          <path class="cls-3" d="m167.05,63.54s-1.62-1.07-2.19-2.28c-.57-1.21-.69-1.87-.42-2.36.59-1.04.12-3.11-.39-2.58s-.4,2.06-.77,1.66c-.36-.4-.07-2.34-1.23-2.96-1.15-.62-2.36.14-3.24-.31-1.41-.72.38-2.1,3.79-2.3,1.15-.07,3.14.15,4,1.55.57.93-.65,1.55.43,1.62s1.62.75,1.47,1.61c-.31,1.79-2.03,4.16-1.46,6.35Z"/>
          <path class="cls-35" d="m164.71,57.86s1.03.69,1.94-.29c.9-.98,1.04-1.85,1.04-1.85,0,0,1.14.27.88,1.56-.27,1.34-1.28,3.3-1.45,4.37-.17,1.07-.06,1.89-.06,1.89,0,0-2.04-.91-2.81-3.49-.23-.77.4-1.63.47-2.18Z"/>
        </g>
        <g>
          <path class="cls-45" d="m173.37,173.42c-.18.97.29,2.43.29,2.43l-4.01,1.05.48-6.6,3.94.49s-.49,1.45-.7,2.63Z"/>
          <path class="cls-38" d="m170.92,176.2s1.11-1.26,1.27-1.82c.18-.61.41-1.27.31-1.76-.1-.49-1.58-1.29-1.58-1.29l2.9.27s-.43,1.8-.38,2.46c.05.65.2,1.52.2,1.52l-2.72.61Z"/>
          <path class="cls-41" d="m173.86,175.57c0,.72-.04,3.29-.04,3.29l-10.33.04.64-1.78s1.3-.28,3.02-1.09c1.84-.87,1.83-1.53,1.83-1.53,0,0,1.17-.03,1.15.9-.03.92-.21.83-.21.83l3.94-.67Z"/>
          <path class="cls-35" d="m164.09,178.49c-.09,0-.16-.07-.16-.16,0-.09.07-.17.16-.17l9.5-.39c.09,0,.17.07.17.16,0,.09-.07.17-.16.17l-9.5.39h0Z"/>
        </g>
        <g>
          <path class="cls-45" d="m160.11,173.42c-.18.97.29,2.43.29,2.43l-4.01,1.05.48-6.6,3.94.49s-.49,1.45-.7,2.63Z"/>
          <path class="cls-38" d="m157.66,176.2s1.11-1.26,1.27-1.82c.18-.61.41-1.27.31-1.76-.1-.49-1.58-1.29-1.58-1.29l2.9.27s-.43,1.8-.38,2.46.2,1.52.2,1.52l-2.72.61Z"/>
          <path class="cls-41" d="m160.6,175.57c0,.72-.04,3.29-.04,3.29l-10.33.04.64-1.78s1.3-.28,3.02-1.09c1.84-.87,1.83-1.53,1.83-1.53,0,0,1.17-.03,1.15.9-.03.92-.21.83-.21.83l3.94-.67Z"/>
          <path class="cls-35" d="m150.82,178.49c-.09,0-.16-.07-.16-.16,0-.09.07-.17.16-.17l9.5-.39c.09,0,.17.07.17.16,0,.09-.07.17-.16.17l-9.5.39h0Z"/>
        </g>
        <path class="cls-39" d="m167.83,170.99s-1.58-19.23-1.79-26.19c-.24-7.8-3.76-35.95-1.57-38.89,1.34-1.81,6.51.69,8.12,1.17,2.08.62-.04-2.07,1.05-1.17,2.57,2.13,2.97,5.49,2.86,9.2-.33,11.28-2.86,29.34-2.86,29.34l.86,26.19-6.67.36Z"/>
        <path class="cls-39" d="m160.14,140.26s7.53-24.22,7.32-25.16c-.21-.94-.05-3.84,3.97-3.64,4.02.2,3.63-1.46,3.63-1.46,0,0-12.32-8.39-14.1-8.06-1.78.33-4.71,3.53-4.71,3.53,0,0-1.29,24.85-.91,36.12.38,11.27.77,28.32.77,28.32l4.69.33-.66-29.98Z"/>
        <path class="cls-50" d="m156.18,107.09s1.73,1.84,5.58,3.02c4.06,1.24,9.65,1.64,9.92,2.2.27.57,1.58,26.7,1.13,27.26s-3.42,3.23-3.02,3.23,3.52-1.78,3.45-1.37c-.07.4-3.25,4.2-2.37,3.88s2.37-1.29,2.37-1.29c0,0-.87,1.54-.77,1.94.11.4-5.71,11.28-5.71,11.28l.54,16.37h8.36l-.55-29.74s1.82-27.97,1.83-30.07c.02-2.1,0-5.38,0-5.38,0,0-2.16,2.19-4.53,1.38-2.37-.81-6.27-3.63-6.27-3.63l-7.99-.04-1.98.96Z"/>
        <path class="cls-46" d="m166.77,106s-2.71.25-5.35,0c-1.75-.16-3.26-.56-3.26-.56,0,0,1.85-2.76,3.96-2.76,1.69,0,4.65,3.31,4.65,3.31h0Z"/>
        <path class="cls-50" d="m172.82,116.91c4.12.87,6.29-.5,6.13-1.59-.59-3.96-4.17-26.65-2.7-31.18,1.72-5.34,1.12-11.34-.33-12.26-1.73-1.11-9.54-2.64-14.44-2.69-.2,0-.35-.09-.54-.09-1.63.03-2.9.34-3.34.83-1.73,1.96-4.55,11.64-3.03,16.24,1.52,4.6.59,17.98.59,17.98,0,0,7.33-4.58,11.62.87,3.55,4.5,2.94,11.23,6.04,11.89Z"/>
        <path class="cls-4" d="m169.64,70.35l-6.81,14.52-1.4-15.56s6.38.5,8.21,1.04Z"/>
        <path class="cls-46" d="m165.31,79.58s1.62-4.92.76-7.35c-.31-.86-1.02-1.22-1.02-1.22l-1.39.19-2.07.17-.24-2.24,1.46-.21,1.36.61,4.71.43.89.16-4.46,9.46Z"/>
        <path class="cls-44" d="m163.55,69.21l1.17,2.28s1.82-1.77,1.83-1.94c0-.22-3-.35-3-.35Z"/>
        <polygon class="cls-44" points="164.64 70.43 162.43 80.49 162.81 85.14 164.68 80.93 165.29 70.35 164.64 70.43"/>
        <path class="cls-17" d="m159.82,88.4s1.49,5.51,4.43,10.36c3.78,6.25,8.68,17.35,8.68,17.35l-.11.8c-2.78-.15-7.96-11.84-10.04-13.84-.56-.54-4.41,11.58-5.53,12.4-1.96,1.44-1.94.58-2.45.3-.67-.37.63-24.51-.03-26.97-.66-2.46-1.63-5.77-1.52-6.9.11-1.13,4.06-11.9,4.06-11.9,0,0,.79-.89,2.86-.89h.78s.06,16.38.06,16.38l-1.18,2.92Z"/>
        <g class="cls-33">
          <polygon class="cls-36" points="172.02 77.75 176.95 78.29 173.74 83.05 171.42 82.77 172.02 77.75"/>
          <polygon class="cls-36" points="167.65 82.3 171.63 82.96 170.59 87.98 166.08 87.32 166.52 83.59 167.65 82.3"/>
          <polygon class="cls-36" points="170.75 87.98 175.71 88.64 174.67 93.66 170.15 93 170.75 87.98"/>
          <polygon class="cls-36" points="165.29 92.37 170.25 93.02 169.21 98.04 164.69 97.39 165.29 92.37"/>
          <polygon class="cls-36" points="161.37 86.42 166.33 87.07 165.29 92.09 160.78 91.44 161.37 86.42"/>
          <polygon class="cls-36" points="155.16 91.08 160.81 91.47 159.78 96.5 154.93 95.99 155.16 91.08"/>
          <polygon class="cls-36" points="159.72 96.73 164.67 97.39 163.64 102.41 159.12 101.76 159.72 96.73"/>
          <polygon class="cls-36" points="163.58 102.42 168.53 103.07 167.5 108.1 165.89 107.86 163.41 103.83 163.58 102.42"/>
          <polygon class="cls-36" points="168.83 98 173.79 98.66 172.76 103.68 168.24 103.02 168.83 98"/>
          <polygon class="cls-36" points="174.34 93.66 176.25 93.91 176.73 99.11 173.74 98.68 174.34 93.66"/>
          <polygon class="cls-36" points="172.85 103.73 177.35 104.33 177.55 105.64 176.77 109.41 172.25 108.76 172.85 103.73"/>
          <polygon class="cls-36" points="167.36 108.1 172.31 108.75 171.28 113.77 169.33 113.49 166.98 109.87 167.36 108.1"/>
          <path class="cls-36" d="m171.29,113.77l4.96.66-.57,2.75-1.64-.02c-1.68-.02-2.76-.77-2.97-1.49l.23-1.91Z"/>
          <polygon class="cls-36" points="176.45 109.54 178.12 109.76 178.83 114.99 175.86 114.56 176.45 109.54"/>
          <polygon class="cls-36" points="154.79 101.48 158.96 101.89 157.92 106.91 154.69 106.57 154.79 101.48"/>
          <polygon class="cls-36" points="158.08 106.91 160.81 107.27 158.96 112.15 157.48 111.93 158.08 106.91"/>
          <path class="cls-36" d="m154.61,111.37l2.96.51-.7,3.42c-.15.72-.95,1.11-1.61.78l-.57-.29-.07-4.42Z"/>
          <polygon class="cls-36" points="153.85 85.39 156.91 85.8 155.88 90.82 155.29 90.73 153.85 85.39"/>
          <polygon class="cls-36" points="157.22 80.88 159.4 81.17 161.24 86.12 161.15 86.56 156.63 85.91 157.22 80.88"/>
          <polygon class="cls-36" points="155.21 75.66 158.21 75.92 157.18 80.94 153.64 80.42 155.21 75.66"/>
        </g>
        <path class="cls-36" d="m162.17,90.31l.26,7.74,1.19-9.57,5.6-7.1v-.63l4.27-3.04s3.66-3.21,2.56-5.58c-.29-.62-3.08-1.3-3.08-1.3l-3.61,8.89-2.03-.41.96,2.25-6.16,7.25.05,1.5Z"/>
        <path class="cls-35" d="m162.77,103.23c-.09,0-.16-.07-.16-.16l-.65-14.33.04-.05,6.1-7.17-1.05-2.44,2.21.45,3.41-7.96c.03-.08.13-.12.21-.09.08.04.12.13.09.21l-3.52,8.2-1.86-.37.88,2.06-6.19,7.28.65,14.2c0,.09-.07.17-.16.17,0,0,0,0,0,0Z"/>
        <polygon class="cls-36" points="157.52 70.18 157.52 77.75 159.39 77.75 158.17 79.38 162.12 88.8 159.3 79.49 160.32 77.09 158.54 76.47 158.54 69.79 157.52 70.18"/>
        <path class="cls-35" d="m175.58,117.3c-.61,0-1.5-.05-2.78-.23-2.02-.28-4.65-4.93-6.97-9.03-1.26-2.24-2.46-4.36-3.09-4.79-.33.3-1.23,2.65-2.02,4.74-1.27,3.34-2.71,7.13-3.63,7.8-.61.45-1.18.63-1.67.54-.51-.09-.75-.45-.76-.47-.05-.07-.03-.18.05-.22.07-.05.17-.03.22.05,0,.01.18.26.56.33.4.07.87-.09,1.41-.49.84-.62,2.33-4.52,3.52-7.65,1.3-3.41,1.87-4.82,2.24-4.95.07-.02.14-.02.2.02.69.41,1.82,2.41,3.26,4.95,2.17,3.84,4.87,8.61,6.73,8.87,3.02.42,3.81.13,3.82.13.08-.03.18,0,.21.09.03.08,0,.18-.09.21-.02,0-.31.12-1.21.12Z"/>
        <path class="cls-35" d="m159.82,85.64h-4.61c-.09,0-.16-.07-.16-.16s.07-.16.16-.16h4.61c.09,0,.16.07.16.16s-.07.16-.16.16Z"/>
        <path class="cls-35" d="m174.65,99.95s0,0-.01,0l-5.32-.43c-.09,0-.16-.09-.15-.18,0-.09.09-.15.18-.15l5.32.43c.09,0,.16.09.15.18,0,.08-.08.15-.16.15Z"/>
        <path class="cls-35" d="m155.32,101.39c-.08,0-.15-.06-.16-.13-.02-.09.04-.17.13-.19l3.09-.55c.08-.02.17.04.19.13.02.09-.04.17-.13.19l-3.09.55s-.02,0-.03,0Z"/>
        <polygon class="cls-44" points="157.7 82.79 155.91 85.33 159.12 85.33 157.7 82.79"/>
        <polygon class="cls-47" points="156.96 85.33 158 83.87 157.55 83 157.7 82.79 159.12 85.33 156.96 85.33"/>
        <polygon class="cls-4" points="168.55 70.76 169.35 69.6 167.16 68.7 166.08 70.01 166.72 70.35 166.82 70.88 168.55 70.76"/>
        <polygon class="cls-4" points="163.96 69.96 163.16 68.33 161.15 68.33 161.87 69.96 163.02 70.35 163.16 69.67 163.96 69.96"/>
        <polygon class="cls-47" points="166.76 70.57 165.61 70.52 166.23 69.79 166.76 69.79 166.76 70.57"/>
        <polygon class="cls-47" points="163.82 69.67 163.17 69.37 163.07 70.13 164.25 70.54 163.82 69.67"/>
        <polygon class="cls-47" points="165.56 70.57 164.82 71.01 164.16 70.35 164.49 71.11 165.24 71.18 165.56 70.57"/>
        <path class="cls-50" d="m165.08,125.61s.2-2.28-.37-3.42c-.34-.67-2.05-1.16-2.36-2.41-.23-.94-.23-7.4-.23-7.4,0,0-1.73,16.79-2.3,19.74-.57,2.95-.67,6.32-.67,6.32,0,0-4.39,1.35-3.63,1.7.76.35,3.92-.59,3.72,0s-3.87,2.59-3.07,2.59,3.27-1.06,3.17-.71c-.1.35-1.83,2.71-1.83,2.71l2.3-.94-3.94,16.26-.3,13.73,8.18-.17s-.17-31.37-.03-33.26c.15-1.88,1.36-14.73,1.36-14.73Z"/>
        <path class="cls-35" d="m171.44,144.96c-.05,0-.1-.02-.13-.07-.05-.07-.04-.17.04-.23l2.58-1.84c.64-.4,1.08-1.14,1.18-1.99.08-.64.13-1.16.15-1.55.07-1.09,1.29-22.06,1.3-22.27,0-.09.08-.15.17-.15.09,0,.16.08.15.17-.01.21-1.23,21.18-1.3,22.28-.02.39-.08.92-.15,1.56-.11.94-.61,1.77-1.32,2.22l-2.58,1.84s-.06.03-.09.03Z"/>
        <path class="cls-35" d="m171.75,143.72s-.07-.01-.1-.03c-.07-.05-.09-.16-.03-.23l2.11-2.77-2.9,1.07c-.09.03-.18-.01-.21-.1-.03-.08.01-.18.1-.21l3.42-1.26c.07-.03.14,0,.19.06.04.06.04.14,0,.2l-2.45,3.21s-.08.06-.13.06Z"/>
        <path class="cls-35" d="m156.63,142.83c-.07,0-.13-.04-.16-.11-.03-.09.02-.18.11-.2,2.53-.78,6.35-1.99,6.99-2.27l1.22-14.18-.27-3.91c-.33-.19-1.59-.94-2.19-2.01-.67-1.2-.38-7.51-.37-7.78,0-.09.08-.17.17-.15.09,0,.16.08.16.17-.11,2.24-.18,6.7.33,7.6.63,1.12,2.12,1.92,2.14,1.92.05.03.08.08.09.13l.28,4.02-1.23,14.3c0,.05-.03.1-.08.13-.45.26-6.45,2.12-7.13,2.33-.02,0-.03,0-.05,0Z"/>
        <path class="cls-35" d="m156.43,139.93s-.04,0-.04,0c-.09-.03-.14-.12-.11-.2.02-.08.1-.13.18-.11.21,0,2.09-.38,3.59-.69l-1.9-.45c-.09-.02-.14-.11-.12-.2s.11-.14.2-.12l2.6.62c.07.02.13.08.13.16,0,.08-.05.14-.13.16-3.6.76-4.25.84-4.4.84Z"/>
        <path class="cls-35" d="m159.77,148.54s-.03,0-.04,0c-.09-.02-.14-.11-.12-.2l1.54-5.82-1.5.31c-.09.02-.17-.04-.19-.13-.02-.09.04-.17.13-.19l1.76-.37c.06-.01.11,0,.15.05.04.04.05.1.04.15l-1.61,6.08c-.02.07-.08.12-.16.12Z"/>
        <path class="cls-35" d="m176.32,101c-.07,0-.14-.05-.16-.12l-3.39-11.58c-.02-.09.02-.18.11-.2.08-.03.18.02.2.11l3.39,11.58c.02.09-.02.18-.11.2-.02,0-.03,0-.05,0Z"/>
        <path class="cls-35" d="m175.86,93.3c-.07,0-.14-.05-.16-.12l-1.66-5.79c-.02-.09.03-.18.11-.2.09-.03.18.02.2.11l1.66,5.79c.02.09-.03.18-.11.2-.02,0-.03,0-.05,0Z"/>
        <g>
          <path class="cls-48" d="m176.79,79.11s-7.6,13.25-13.71,14.79c-8.21,2.06-19.32,1.36-19.32,1.36l-.2-2.89s11.02-2.56,17.81-5.95c2.64-1.32,9.24-14.3,10.26-15.24.82-.76,3.19-.74,4.59.98,1.11,1.37,1.53,3.97.57,6.96Z"/>
          <g class="cls-18">
            <polygon class="cls-36" points="169.91 73.86 173.08 74.58 171.99 79.3 167.29 78.36 169.91 73.86"/>
            <polygon class="cls-36" points="172.02 79.46 175.54 79.93 172.32 84.43 171.42 84.49 172.02 79.46"/>
            <polygon class="cls-36" points="167.29 78.36 167.64 78.4 166.54 83.42 164.25 83.18 167.29 78.36"/>
            <polygon class="cls-36" points="166.67 83.42 171.63 84.08 169.77 88.66 166.08 88.45 166.67 83.42"/>
            <path class="cls-36" d="m173.53,70.82h0c2.59.12,3.84,2.51,3.5,4.27l-.02.05-3.93-.57.45-3.76Z"/>
            <polygon class="cls-36" points="160.9 87.65 165.86 88.3 164.82 93.33 160.31 92.67 160.9 87.65"/>
            <polygon class="cls-36" points="160.66 86.76 161.37 86.42 161.15 87.71 159.12 87.42 160.66 86.76"/>
            <polygon class="cls-36" points="154.54 89.19 157.99 89.76 156.95 94.78 152.43 94.13 152.83 89.77 154.54 89.19"/>
            <polygon class="cls-36" points="144.56 92.13 149.74 90.72 148.82 95.15 144.24 94.82 144.56 92.13"/>
          </g>
          <path class="cls-32" d="m143.57,92.37s-4.69-1.13-5.22-.43c-.53.7,1.06.67.85,1.18-.21.51-5.8.88-5.08,1.54.71.66,2.42.6,2.42.6,0,0-2.32.35-1.73.76.59.41,2.73.14,2.73.14,0,0-1.36.61-.73.95.63.34,2.16,0,2.16,0,0,0-1.05,1.41-.15,1.09s4.95-2.96,4.95-2.96l-.2-2.89Z"/>
          <path class="cls-36" d="m174.87,82.54c2.83-4.06,2.79-6.14,2.22-8.57-.06-.28-.75,1.6-.77,1.7-.61,3.64-10.11,12.55-10.79,13.23-.67.67-1.62,2.93-1.67,2.24-.05-.69-.07-4.02-.5-3.78-.8.45.05,4.75.05,4.75,0,0-1.77-2.77-1.98-2.3-.21.47.62,3.26.47,3.34-.16.08-1.37-2.25-1.69-1.42s-.14,1.83-1.28,1.95c-1.14.11-15.17.71-15.17.71l.32,1.01s11.34.14,17.81-.99c4.48-.78,10.06-7.66,12.97-11.84Z"/>
          <polygon class="cls-4" points="143.11 92.13 143.28 95.67 144.24 95.38 144.03 92.27 143.11 92.13"/>
        </g>
        <path class="cls-3" d="m163.54,59.14s0,.08.01.21c.05.75.19,3.26.02,3.98-.2.86-.55,1.33-2.12,1.8s-3.89.3-3.66-.68c.23-.98,1.04-3.04,1.04-3.04,0,0,1.95.52,2.77-.12.82-.64,1.09-3.15,1.64-2.87l.3.73Z"/>
        <path class="cls-35" d="m146.8,95.41c-1.44,0-2.36-.02-2.4-.02-.09,0-.16-.08-.16-.17,0-.09.07-.16.16-.16h0c.14,0,14.17.28,19.12-1.4,4.92-1.67,12.75-13.77,12.82-13.89.05-.08.15-.1.22-.05.08.05.1.15.05.22-.32.5-7.97,12.31-12.99,14.02-3.74,1.27-12.56,1.43-16.83,1.43Z"/>
        <path class="cls-35" d="m163.95,93.72l-2.66-3.83c-.05-.07-.03-.18.04-.23.07-.05.18-.03.23.04l1.99,2.86-.35-5.21c0-.09.06-.17.15-.17.09,0,.17.06.17.15l.43,6.38Z"/>
        <path class="cls-35" d="m161.89,93.82s-.09-.02-.12-.05l-2.08-2.31c-.06-.07-.05-.17.01-.23.07-.06.17-.06.23.01l2.08,2.31c.06.07.05.17-.01.23-.03.03-.07.04-.11.04Z"/>
      </g>
      <g>
        <g>
          <path class="cls-44" d="m77.69,173.42c.18.97-.29,2.43-.29,2.43l4.01,1.05-.48-6.6-3.94.49s.49,1.45.7,2.63Z"/>
          <path class="cls-47" d="m80.14,176.2s-1.11-1.26-1.27-1.82c-.18-.61-.41-1.27-.31-1.76.1-.49,1.58-1.29,1.58-1.29l-2.9.27s.43,1.8.38,2.46-.2,1.52-.2,1.52l2.72.61Z"/>
          <path class="cls-41" d="m77.2,175.57c0,.72.04,3.29.04,3.29l10.33.04-.64-1.78s-1.3-.28-3.02-1.09c-1.84-.87-1.83-1.53-1.83-1.53,0,0-1.17-.03-1.15.9.03.92.21.83.21.83l-3.94-.67Z"/>
          <path class="cls-35" d="m86.98,178.49h0l-9.5-.39c-.09,0-.16-.08-.16-.17,0-.09.08-.15.17-.16l9.5.39c.09,0,.16.08.16.17,0,.09-.08.16-.16.16Z"/>
        </g>
        <g>
          <path class="cls-44" d="m97.24,173.42c.18.97-.29,2.43-.29,2.43l4.01,1.05-.48-6.6-3.94.49s.49,1.45.7,2.63Z"/>
          <path class="cls-47" d="m99.69,176.2s-1.11-1.26-1.27-1.82c-.18-.61-.41-1.27-.31-1.76.1-.49,1.58-1.29,1.58-1.29l-2.9.27s.43,1.8.38,2.46c-.05.65-.2,1.52-.2,1.52l2.72.61Z"/>
          <path class="cls-41" d="m96.75,175.57c0,.72.04,3.29.04,3.29l10.33.04-.64-1.78s-1.3-.28-3.02-1.09c-1.84-.87-1.83-1.53-1.83-1.53,0,0-1.17-.03-1.15.9.03.92.21.83.21.83l-3.94-.67Z"/>
          <path class="cls-35" d="m106.53,178.49h0l-9.5-.39c-.09,0-.16-.08-.16-.17,0-.09.08-.15.17-.16l9.5.39c.09,0,.16.08.16.17,0,.09-.08.16-.16.16Z"/>
        </g>
        <g>
          <g>
            <path class="cls-32" d="m88.45,69.66s2.36-6.72,2.24-8.6c-.12-1.88-.53-5.78,2.4-6.6,2.93-.81,4.04,2.01,4.31,3.13.26,1.13.8,4.21.62,4.27s-.85-.37-.85-.37c0,0,.28,1.96-.5,2.63-.78.68-1.88.52-1.88.52,0,0-.84,2.76-.63,3.57.21.81,1.26,2.61,1.26,2.61,0,0-6.08,1.79-6.96-1.18Z"/>
            <path class="cls-40" d="m90.8,69.56s.02-.06.06-.18c.22-.65.95-2.95,1.44-5.12.57-2.57,1.18-5.04.62-5.21-.91-.29-1.24-1.73-1.24-1.73,0,0,1-.84,1.16-.38.16.45.2,1.56.46,1.56s.37-.53.93-1.57c.57-1.04,1.21-1.43,1.21-1.43,0,0-1.41-.11-2.35.14-.94.25-2.76,6.13-2.98,7.81-.23,1.68-1.91,6.93-1.91,6.93,0,0,1.79.71,2.59-.79Z"/>
            <path class="cls-3" d="m90.12,63.42s1.38-.97,1.88-2.07c.49-1.1.59-1.7.36-2.14-.5-.94-.1-2.82.33-2.34.43.48.34,1.87.66,1.5.31-.36.06-2.12,1.05-2.69.99-.56,2.08.22,2.77-.28.55-.39,1.33-1.23,1.76-1.61.96-.84,2.34-3.4,1.53-5.26-.91-2.09-2.4.82-5.09,1.97-3.17,1.35-6.56,2.96-6.33,3.91.23.95,2.01,1.71,1.09,1.78-.93.07-1.38.68-1.26,1.46.27,1.62,1.74,3.78,1.25,5.76Z"/>
            <path class="cls-35" d="m92.13,58.27s-.89.62-1.66-.27-.89-1.68-.89-1.68c0,0-.97.25-.75,1.41.23,1.22,1.1,3,1.24,3.97.15.97.05,1.71.05,1.71,0,0,1.74-.83,2.4-3.17.2-.7-.34-1.48-.4-1.98Z"/>
          </g>
          <path class="cls-45" d="m82.03,170.3s4.62-15.02,6.79-23.52c1.93-7.57,6.26-37.93,4.07-40.87-1.34-1.81-6.51.69-8.12,1.17-2.08.62.04-2.07-1.05-1.17-2.57,2.13-2.97,5.49-2.86,9.2.33,11.28,1.38,28.76,1.38,28.76l-5.24,26.58,5.04-.15Z"/>
          <path class="cls-45" d="m97.21,140.26s-7.53-24.22-7.32-25.16c.21-.94.05-3.84-3.97-3.64-4.02.2-3.63-1.46-3.63-1.46,0,0,12.32-8.39,14.1-8.06s4.71,3.53,4.71,3.53c0,0,2.75,23.27,2.36,34.54-.38,11.27-2.22,29.9-2.22,29.9l-4.69.33.66-29.98Z"/>
          <path class="cls-38" d="m101.17,107.09s-1.73,1.84-5.58,3.02c-4.06,1.24-9.65,1.64-9.92,2.2-.27.57-1.58,26.7-1.13,27.26.45.57,3.42,3.23,3.02,3.23s-3.52-1.78-3.45-1.37,3.25,4.2,2.37,3.88-2.37-1.29-2.37-1.29c0,0,1.09,2.5.99,2.91-.11.4-1.59,9.7-1.32,12.28.27,2.59.54,3.55.54,3.55l-2.76,9.04-4.86-.13s3.98-21.79,4.5-23.89c.53-2.1,1.04-3.91,1.04-3.91,0,0-1.75-28.3-1.83-30.07-.09-2.1,0-5.38,0-5.38,0,0,2.16,2.19,4.53,1.38,2.37-.81,6.27-3.63,6.27-3.63l7.99-.04,1.98.96Z"/>
          <path class="cls-51" d="m90.78,105.73s1.8.39,4.15.25c2.35-.15,4.47-.56,4.47-.56,0,0-1.79,1.44-6.22,2.01-2.01.26-3.43.8-4.32,1.35-.89.56-3.94,1.79-5.25,1.9-1.31.11-1.93-.87-1.93-.87l9.09-4.07Z"/>
          <path class="cls-46" d="m90.58,106s2.71.25,5.35,0c1.75-.16,3.26-.56,3.26-.56,0,0-1.85-2.76-3.96-2.76-1.69,0-4.65,3.31-4.65,3.31h0Z"/>
          <path class="cls-38" d="m80.98,109.12c-.73-.82-1.01-1.27-.84-3.05.37-3.99,2.43-17.4.97-21.93-1.72-5.34-1.12-11.34.33-12.26,1.73-1.11,9.54-2.64,14.44-2.69.2,0,.35-.09.54-.09,1.63.03,2.9.34,3.34.83,1.73,1.96,4.55,11.64,3.03,16.24-1.52,4.6-.59,17.98-.59,17.98,0,0-7.33-4.58-11.62.87-3.55,4.5-7.49,6.46-9.6,4.1Z"/>
          <path class="cls-4" d="m87.72,70.35l6.81,14.52,1.4-15.56s-6.38.5-8.21,1.04Z"/>
          <path class="cls-46" d="m92.04,79.58s-1.62-4.92-.76-7.35c.31-.86,1.02-1.22,1.02-1.22l1.39.19,2.07.17.24-2.24-1.46-.21-1.36.61-4.71.43-.89.16,4.46,9.46Z"/>
          <path class="cls-45" d="m97.03,77.09s2.71,4.41,9.58,9.36c6.87,4.95,17.58,6.35,17.58,6.35l.84-2.77s-11.34-5.25-16.7-10.62c-5.02-5.03-7.13-8.04-7.92-9.19-1.13-1.66-3.28,4.66-3.38,6.87Z"/>
          <path class="cls-44" d="m93.8,69.21l-1.17,2.28s-1.82-1.77-1.83-1.94c0-.22,3-.35,3-.35Z"/>
          <polygon class="cls-44" points="92.71 70.43 94.92 80.49 94.54 85.14 92.67 80.93 92.06 70.35 92.71 70.43"/>
          <path class="cls-32" d="m125.03,90.03s5.82-.02,6.18.78c.36.8-2.18.39-2.08.93.09.55,5.45,2.15,4.61,2.64-.84.48-3.41-.83-3.41-.83,0,0,3.1,1.73,2.44,2s-3.52-.96-3.52-.96c0,0,2.02,1.39,1.33,1.58s-2.68-1.19-2.68-1.19c0,0,1.27,2.32.47,1.81-.8-.52-4.17-3.99-4.17-3.99l.84-2.77Z"/>
          <path class="cls-45" d="m92.8,82.39s1.31,10.29-1.63,15.15c-3.78,6.25-6.63,11.88-6.63,11.88l-.67.68c2.78-.15,7.64-4.7,9.72-6.7.56-.54,1.71-.9,2.37-.49,2.06,1.3,6.21,4.28,6.72,4,.67-.37-.75-15.65-.09-18.11.66-2.46,1.63-5.77,1.52-6.9-.11-1.13-4.06-11.9-4.06-11.9,0,0-.79-.89-2.86-.89h-.78s-1.62,17.83-1.62,17.83l-2-4.54Z"/>
          <path class="cls-51" d="m95.18,90.31l-.26,7.74-1.19-9.57-5.6-7.1v-.63l-4.27-3.04s-3.66-3.21-2.56-5.58c.29-.62,3.08-1.3,3.08-1.3l3.61,8.89,2.03-.41-.96,2.25,6.16,7.25-.05,1.5Z"/>
          <path class="cls-35" d="m94.77,102.84h0c-.09,0-.16-.08-.16-.17l.46-13.81-6.19-7.28.88-2.06-1.86.37-3.52-8.2c-.04-.08,0-.18.09-.21.08-.03.18,0,.21.09l3.41,7.96,2.21-.45-1.05,2.44,6.14,7.22v.06s-.46,13.87-.46,13.87c0,.09-.08.16-.16.16Z"/>
          <polygon class="cls-38" points="99.84 70.18 99.84 77.75 97.97 77.75 99.19 79.38 95.23 88.8 98.06 79.49 97.03 77.09 98.82 76.47 98.82 69.79 99.84 70.18"/>
          <path class="cls-35" d="m83.17,110.3c-.77,0-1.41-.2-1.92-.58-.88-.67-1.01-1.68-1.02-1.72-.01-.09.05-.17.14-.18.09-.01.17.05.18.14,0,0,.13.92.9,1.51.59.45,1.39.6,2.39.47,2.46-.34,6.36-3.78,8.69-5.84.6-.53,1.08-.95,1.4-1.2,1.34-1.05,2.94.27,4.34,1.44.35.29.68.57,1,.8,1.49,1.09,3.29,1.5,3.31,1.51.09.02.14.11.12.19-.02.09-.11.14-.19.12-.08-.02-1.88-.43-3.43-1.56-.33-.24-.66-.52-1.02-.81-1.38-1.14-2.8-2.32-3.93-1.43-.31.25-.79.66-1.39,1.19-2.36,2.08-6.31,5.56-8.86,5.91-.25.03-.49.05-.72.05Z"/>
          <path class="cls-35" d="m102.14,85.64h-4.61c-.09,0-.16-.07-.16-.16s.07-.16.16-.16h4.61c.09,0,.16.07.16.16s-.07.16-.16.16Z"/>
          <path class="cls-35" d="m82.7,99.95c-.08,0-.16-.06-.16-.15,0-.09.06-.17.15-.18l5.32-.43c.1,0,.17.06.18.15,0,.09-.06.17-.15.18l-5.32.43s0,0-.01,0Z"/>
          <path class="cls-35" d="m101.91,98.25s-.02,0-.03,0l-3.09-.56c-.09-.02-.15-.1-.13-.19.02-.09.1-.15.19-.13l3.09.56c.09.02.15.1.13.19-.01.08-.08.13-.16.13Z"/>
          <polygon class="cls-44" points="99.66 82.79 101.45 85.33 98.24 85.33 99.66 82.79"/>
          <polygon class="cls-47" points="100.4 85.33 99.35 83.87 99.8 83 99.66 82.79 98.24 85.33 100.4 85.33"/>
          <polygon class="cls-4" points="88.8 70.76 88 69.6 90.19 68.7 91.28 70.01 90.63 70.35 90.54 70.88 88.8 70.76"/>
          <polygon class="cls-4" points="93.39 69.96 94.2 68.33 96.2 68.33 95.48 69.96 94.34 70.35 94.2 69.67 93.39 69.96"/>
          <polygon class="cls-47" points="90.6 70.57 91.75 70.52 91.12 69.79 90.6 69.79 90.6 70.57"/>
          <polygon class="cls-47" points="93.53 69.67 94.18 69.37 94.28 70.13 93.1 70.54 93.53 69.67"/>
          <polygon class="cls-47" points="91.79 70.57 92.53 71.01 93.2 70.35 92.86 71.11 92.11 71.18 91.79 70.57"/>
          <path class="cls-38" d="m103.53,84.43s-2.52-10.39-2.09-10.18c.43.21,2.44,6.67,2.95,7.48.51.81,5.13,5.99,5.33,5.33s1.44-3.25,1.48-2.76c.05.49-.42,3-.42,3,0,0,2.05-3.38,2.15-2.87.1.5-.77,3.8-.63,3.92s1.33-1.84,1.44-.97.05,1.85,1.14,2.22c1.09.37,9.5,2.34,9.5,2.34l-.2.87s-6.25-.55-12.31-3.1c-6.06-2.55-8.35-5.27-8.35-5.27Z"/>
          <path class="cls-38" d="m92.27,125.61s.32-2.73.41-3.56c.02-.19,2.04-.95,2.35-2.21.23-.94.54-6.34.54-6.34,0,0,1.4,15.66,1.97,18.61.57,2.95.67,6.32.67,6.32,0,0,4.39,1.35,3.63,1.7-.76.35-3.92-.59-3.72,0,.2.59,3.87,2.59,3.07,2.59s-3.27-1.06-3.17-.71c.1.35,1.83,2.71,1.83,2.71l-2.3-.94,4.29,19.79-.77,8.34-5.08-.13s.15-29.89,0-31.78c-.15-1.88-3.7-14.4-3.7-14.4Z"/>
          <path class="cls-35" d="m92.65,107.72c-1.85,0-3.48-.27-3.49-.27-.09-.02-.15-.1-.13-.19.02-.09.1-.15.19-.13.02,0,2.23.37,4.41.24.09,0,.17.06.17.15,0,.09-.06.17-.15.17-.33.02-.66.03-.99.03Z"/>
          <path class="cls-35" d="m93.48,108.38l-.05-2.84,4-.3.05,2.76-4,.38Zm.28-2.54l.04,2.18,3.35-.32-.04-2.11-3.35.25Z"/>
          <path class="cls-35" d="m97.48,107.45c-.08,0-.14-.05-.16-.13-.02-.09.04-.17.13-.19.01,0,1.07-.22,1.68-.47.59-.24,1.11-.79,1.12-.79.06-.06.16-.07.23,0,.07.06.07.16,0,.23-.02.02-.58.6-1.23.87-.63.26-1.69.48-1.73.49-.01,0-.02,0-.03,0Z"/>
          <path class="cls-35" d="m93.63,106.97c-.08,0-.16-.07-.16-.15,0-.09.06-.17.15-.17l2.6-.18c.09,0,.17.06.17.15,0,.09-.06.17-.15.17l-2.6.18s0,0-.01,0Z"/>
          <path class="cls-35" d="m86.05,144.96s-.07,0-.09-.03l-2.58-1.84c-.71-.44-1.2-1.27-1.31-2.21-.08-.64-.13-1.17-.15-1.56-.07-1.1-1.52-26.11-1.54-26.36,0-.09.06-.17.15-.17.09,0,.17.06.17.15.01.25,1.47,25.26,1.54,26.36.02.39.08.91.15,1.54.1.84.54,1.58,1.17,1.98l2.59,1.85c.07.05.09.15.04.23-.03.04-.08.07-.13.07Z"/>
          <path class="cls-35" d="m85.6,143.72s-.1-.02-.13-.06l-2.45-3.21c-.04-.06-.04-.14,0-.2.04-.06.12-.08.19-.06l3.42,1.26c.08.03.13.12.1.21-.03.08-.12.13-.21.1l-2.9-1.07,2.11,2.77c.05.07.04.17-.03.23-.03.02-.06.03-.1.03Z"/>
          <path class="cls-35" d="m76.83,171.72s-.02,0-.03,0c-.09-.02-.15-.1-.13-.19.17-.92,4.27-22.54,4.74-24.33.02-.09.11-.14.2-.12.09.02.14.11.12.2-.46,1.78-4.69,24.08-4.73,24.31-.01.08-.08.13-.16.13Z"/>
          <path class="cls-35" d="m100.73,142.83s-.05,0-.08-.02c-.04-.02-4.3-2.4-4.75-2.65-.04-.02-.07-.06-.08-.1l-3.57-13.93s-.04-.05-.03-.07l.3-4.01c0-.06.04-.11.09-.13.01,0,1.51-.8,2.14-1.92.5-.9.43-5.37.33-7.6,0-.09.06-.17.15-.17.09-.01.17.06.17.15.01.27.3,6.57-.37,7.78-.59,1.06-1.85,1.82-2.19,2.01l-.27,3.91,3.55,13.84c.67.38,4.65,2.6,4.69,2.62.08.04.11.14.06.22-.03.05-.09.08-.14.08Z"/>
          <path class="cls-35" d="m100.93,139.93c-.14,0-.8-.09-4.4-.84-.07-.02-.13-.08-.13-.16,0-.08.05-.14.12-.16l2.61-.62c.09-.02.18.03.2.12.02.09-.03.17-.12.2l-1.9.45c1.51.31,3.4.69,3.59.69h0c.09-.03.16.03.19.11.03.09-.04.18-.12.21,0,0-.02,0-.04,0Z"/>
          <path class="cls-35" d="m97.58,148.54c-.07,0-.14-.05-.16-.12l-1.61-6.08c-.01-.05,0-.11.04-.15.04-.04.1-.06.15-.05l1.76.37c.09.02.14.1.13.19-.02.09-.11.14-.19.13l-1.5-.31,1.54,5.82c.02.09-.03.18-.12.2-.01,0-.03,0-.04,0Z"/>
          <path class="cls-35" d="m82.62,112.91s-.07-.01-.09-.03c-.04-.03-.07-.08-.07-.13v-1.05c0-.07.05-.13.11-.15l6.25-2.05s.1,0,.15.02c.04.03.07.08.07.13v.86c0,.07-.04.13-.11.15l-6.25,2.24s-.04,0-.05,0Zm.16-1.1v.7l5.92-2.12v-.52l-5.92,1.94Z"/>
          <path class="cls-35" d="m81.04,101s-.03,0-.05,0c-.09-.03-.14-.12-.11-.2l3.39-11.58c.03-.09.11-.14.2-.11.09.03.14.12.11.2l-3.39,11.58c-.02.07-.09.12-.16.12Z"/>
          <path class="cls-35" d="m92.89,57.25s.13-2.18,1.24-2.6c1.11-.42,2.25.22,3.92-.74,1.68-.96,2.2-2.11,2.2-2.11,0,0-.31,1.22-1.59,2.62-1.28,1.4-1.91,1.32-2.31,1.32s-1.02-.44-1.59-.2c-.73.31-1.07.93-1.17,1.62-.1.69-.06,1.21-.3,1.33-.24.11-.3-.97-.42-1.23Z"/>
          <polygon class="cls-4" points="125.52 89.9 124.57 93.31 123.71 92.75 124.6 89.83 125.52 89.9"/>
          <g>
            <rect class="cls-44" x="82.58" y="86.35" width="14.7" height="19.77" transform="translate(31.99 -22.05) rotate(16.96)"/>
            <polygon class="cls-16" points="83.99 85.43 85.79 84.63 85.41 85.86 83.99 85.43"/>
            <polygon class="cls-30" points="93.89 106.49 93.07 106.72 81.22 102.62 85.69 85.5 86.54 85.18 99.21 89.04 93.89 106.49"/>
            <rect class="cls-4" x="82.76" y="86.95" width="13.25" height="18.24" transform="translate(31.91 -21.9) rotate(16.96)"/>
            <path class="cls-35" d="m97.22,90.26s-.03,0-.05,0l-11.04-3.37c-.09-.03-.13-.12-.11-.2.03-.09.12-.13.2-.11l11.04,3.37c.09.03.13.12.11.2-.02.07-.09.12-.16.12Z"/>
            <path class="cls-35" d="m96.98,91.06s-.03,0-.05,0l-11.04-3.37c-.09-.03-.13-.12-.11-.2.03-.09.12-.14.2-.11l11.04,3.37c.09.03.13.12.11.2-.02.07-.09.12-.16.12Z"/>
            <path class="cls-35" d="m96.73,91.86s-.03,0-.05,0l-11.04-3.37c-.09-.03-.13-.12-.11-.2.03-.09.12-.13.2-.11l11.04,3.37c.09.03.13.12.11.2-.02.07-.09.12-.16.12Z"/>
            <path class="cls-35" d="m96.49,92.66s-.03,0-.05,0l-11.04-3.37c-.09-.03-.13-.12-.11-.2.03-.09.12-.13.2-.11l11.04,3.37c.09.03.13.12.11.2-.02.07-.09.12-.16.12Z"/>
            <path class="cls-35" d="m96.25,93.45s-.03,0-.05,0l-11.04-3.37c-.09-.03-.13-.12-.11-.2.03-.09.12-.13.2-.11l11.04,3.37c.09.03.13.12.11.2-.02.07-.09.12-.16.12Z"/>
            <path class="cls-35" d="m96,94.25s-.03,0-.05,0l-11.04-3.37c-.09-.03-.13-.12-.11-.2.03-.09.12-.13.2-.11l11.04,3.37c.09.03.13.12.11.2-.02.07-.09.12-.16.12Z"/>
            <path class="cls-35" d="m95.76,95.05s-.03,0-.05,0l-11.04-3.37c-.09-.03-.13-.12-.11-.2.03-.09.12-.13.2-.11l11.04,3.37c.09.03.13.12.11.2-.02.07-.09.12-.16.12Z"/>
            <polygon class="cls-2" points="92.28 108.63 78.22 104.34 83.99 85.43 90.47 87.41 92.14 93.56 96.47 94.88 92.28 108.63"/>
            <path class="cls-43" d="m94.95,100.07s-3.13-1.22-5.02-1.16c-1.59.05-10.08.39-10.08.39l1.77-5.81,14.09,3.87-.52,1.89-.25.81Z"/>
          </g>
          <g>
            <path class="cls-38" d="m81.43,71.88s-1.51,1.03-4.05,7.7c-2.54,6.67-6.65,15.17-4.89,16.72,2.87,2.53,19.15,1.51,19.15,1.51l.52-3.53s-10.47-1.02-12.44-2.9c-.57-.54,4.72-7.37,5.2-11.14.48-3.77-2.53-7.88-3.48-8.37Z"/>
            <path class="cls-45" d="m92.06,94.93s-11.69-1.78-12.62-1.97c-.92-.19-.46-1.06-.46-1.06,0,0-3.9,1.98-3.38,1.24.52-.74,3.2-1.72,3.2-1.72,0,0-3.34.05-3.01-.39s3.52-.37,3.52-.37l-2.63-1.4,2.26-.7s3.88-5.31,4.87-6.75c1.28-1.85,1.06-3.55,1.06-3.55,0,0,.46.87.23,2.82-.18,1.57-3.72,7.29-5.21,9.51-.28.42-.3,1.02.19,1.13l12.15,2.56-.18.66Z"/>
            <path class="cls-51" d="m72.12,95.56c.06.14,3.85-12.04,7.33-16.07,3.47-4.03,4.97-4.15,4.97-4.15,0,0-1.9-3.83-2.99-3.46-1.75.6-10.43,21.08-9.31,23.68Z"/>
            <path class="cls-35" d="m85.16,79.2c-.08,0-.15-.06-.16-.14,0-.02-.24-2.13-1.37-4.37-1.09-2.18-2.13-2.48-2.14-2.48-.09-.02-.14-.11-.12-.2.02-.09.11-.14.2-.12.05.01,1.18.31,2.35,2.65,1.15,2.3,1.4,4.46,1.4,4.48,0,.09-.05.17-.14.18,0,0-.01,0-.02,0Z"/>
            <path class="cls-35" d="m72.93,96.61s-.08-.04-.11-.06c-.1-.07-.49-.29,0-2.52.48-2.18,8.22-21.28,9.1-21.79.85-.49,2.51-.75,2.58-.76.09-.01.17.05.19.14.01.09-.05.17-.14.19-.02,0-1.67.26-2.46.72-.74.53-8.35,18.88-8.95,21.58-.45,2.02-.06,2.41-.06,2.41.04.13.1.13.05.21,0,0-.13-.07-.21-.1Z"/>
            <path class="cls-4" d="m92.16,94.29l.73.2-.37,3.33h-.88s.3-2.78.52-3.53Z"/>
            <path class="cls-32" d="m92.83,95.25s1.23-.7,2.24-1.13,1.97-.53,1.94-.2c-.03.33-1.43,1.2-1.2,1.22.23.01,1.6-.45,1.89-.82.3-.37.37-.69.6-.6.23.1,0,1.49-.2,1.69s.55.59.19.95-.19.31-.26.84-.56.46-.5.81c.06.35-.27.59-.54.72-.27.13-2.73-.25-3.51-.44-.78-.19-.97-.28-.97-.28l.3-2.76Z"/>
          </g>
          <polygon class="cls-35" points="92.69 56.87 95.8 57.95 95.8 58.82 93 57.52 92.57 56.87 92.69 56.87"/>
          <path class="cls-35" d="m95.64,59.52v-1.64l2.58-.05v1.58l-2.58.11Zm.33-1.32v.98l1.93-.08v-.93l-1.93.04Z"/>
          <path class="cls-35" d="m126.94,95c-.06,0-.11-.03-.14-.08-.04-.08-.02-.18.06-.22.01,0,1.1-.62,1.57-1.66.38-.84.21-1.26.21-1.26-.03-.08,0-.18.08-.21.08-.04.18,0,.21.08.01.02.24.54-.21,1.53-.51,1.14-1.66,1.78-1.71,1.81-.02.01-.05.02-.08.02Z"/>
        </g>
      </g>
      <g>
        <g>
          <g>
            <polygon class="cls-13" points="39.38 169.7 39.53 170.5 40.54 171.05 39.77 171.01 56.82 177.7 57.73 177.43 58.16 175.16 39.38 169.7"/>
            <polygon class="cls-44" points="49.8 148.52 39.38 169.7 56.21 176.58 69.24 150.83 49.8 148.52"/>
            <polygon class="cls-47" points="69.24 150.83 58.77 155.46 55.57 176.32 45.9 172.12 39.38 169.7 49.8 148.52 69.24 150.83"/>
            <path class="cls-4" d="m69.24,150.83l.61.6-.3.61.74-.55.26.61s-12.68,25.34-12.83,25.34c-.15,0-.66-.04-.66-.04l.51-.78-.84.77-.53-.79,13.03-25.75Z"/>
          </g>
          <polygon class="cls-1" points="66.42 157.73 69.93 151.18 70.81 150.87 66.42 157.73"/>
          <polygon class="cls-1" points="60.59 169.66 66.41 158.43 66.41 160.01 60.59 169.66"/>
        </g>
        <g>
          <path class="cls-4" d="m25.72,169.74l5.29.87c3.07-1.69,10.86-13.82,10.86-13.82l19.05,2.59s-10.06,15.52-12.75,16.88c-2.69,1.36-8.24-4.18-8.24-4.18l-14.2-2.34Z"/>
          <g>
            <polygon class="cls-25" points="53.07 159.29 58.92 160.06 58.66 160.32 52.85 159.52 53.07 159.29"/>
            <polygon class="cls-25" points="52.3 160.26 58.41 161.07 58.15 161.34 52.08 160.49 52.3 160.26"/>
            <polygon class="cls-25" points="53.53 161.53 57.87 162.08 57.61 162.34 53.3 161.76 53.53 161.53"/>
            <polygon class="cls-25" points="44.92 161.38 51.04 162.2 50.78 162.46 44.69 161.6 44.92 161.38"/>
            <polygon class="cls-25" points="40.52 161.81 56.51 164.05 56.25 164.31 40.3 162.04 40.52 161.81"/>
            <polygon class="cls-25" points="39.75 162.78 55.74 165.02 55.48 165.29 39.53 163.01 39.75 162.78"/>
            <polygon class="cls-25" points="38.98 163.75 54.97 165.99 54.71 166.26 38.76 163.98 38.98 163.75"/>
            <polygon class="cls-25" points="38.36 164.75 54.35 166.99 54.09 167.25 38.14 164.98 38.36 164.75"/>
            <polygon class="cls-25" points="37.77 165.75 53.76 167.99 53.5 168.25 37.55 165.98 37.77 165.75"/>
            <polygon class="cls-25" points="37.09 166.73 53.08 168.97 52.82 169.24 36.87 166.96 37.09 166.73"/>
            <polygon class="cls-25" points="36.25 167.69 52.24 169.93 51.98 170.19 36.03 167.92 36.25 167.69"/>
            <polygon class="cls-25" points="35.45 168.66 51.44 170.9 51.18 171.16 35.23 168.88 35.45 168.66"/>
            <polygon class="cls-25" points="34.69 169.63 50.67 171.87 50.41 172.13 34.46 169.86 34.69 169.63"/>
            <polygon class="cls-25" points="33.6 170.55 49.59 172.79 49.33 173.05 33.38 170.77 33.6 170.55"/>
            <polygon class="cls-25" points="32.83 171.52 48.82 173.76 48.56 174.02 32.61 171.75 32.83 171.52"/>
            <polygon class="cls-25" points="32.07 172.49 48.05 174.73 47.79 174.99 31.84 172.72 32.07 172.49"/>
            <polygon class="cls-25" points="31.3 173.46 47.29 175.7 47.03 175.96 31.07 173.69 31.3 173.46"/>
          </g>
          <path class="cls-13" d="m25.72,169.74s.89,1.99,2.63,3.13c1.74,1.14,3.12,1.33,3.12,1.33l15.22,2.38s-2.79-1.11-4.44-2.49c-1.65-1.39-2.32-2.02-2.32-2.02l-14.2-2.34Z"/>
        </g>
      </g>
      <g>
        <path class="cls-14" d="m188.38,83.1s-.11.04-.31.12c-1.25.49-5.92,2.3-6.57,2.17-.75-.15-2.25-6.93-2.73-8.15-.41-1.05-.71-3.88-.6-3.8l.47,1.82,3.2.89c.8,1.95,1.95,4.74,1.95,4.74,0,0,7.97-2.92,8.06-1.41.09,1.5-3.47,3.63-3.47,3.63Z"/>
        <g>
          <path class="cls-40" d="m195.57,170.86s-5.16-25.13-5.71-27.25c-.55-2.12-.85-32.19-.85-32.19l7.48,2.03-.78,27.99,1.66,28.75-1.81.67Z"/>
          <g>
            <path class="cls-32" d="m187.27,170.86s-4.82-23.78-5.36-25.9c-.55-2.12,3.73-40.77,3.73-40.77l10.57,6.61-8.66,31.11,1.77,28.08-2.06.86Z"/>
            <path class="cls-40" d="m186.16,177.53s-1.97.09-1.12-.63c3.15-2.68,2.13-6.64,2.13-6.64l2.15-.4-.04,3.75-1.77,3.2s.45.97-1.35.72Z"/>
            <g>
              <polygon class="cls-41" points="188.49 178.52 188.6 175.43 189.95 173.39 189.39 178.52 188.49 178.52"/>
              <path class="cls-41" d="m189.2,172.39s.23-.32.65.61c.32.7-.2,2.44-.2,2.44,0,0-.94.1-1.56,1.38-.15.32-.44,1.06-.86,1.66-.43.6-3.74-.05-3.74-.05,0,0-.13-.29.4-.73.53-.44,1.15-.8,1.15-.8,0,0,.85.82,1.62.1.76-.72,2.54-4.61,2.54-4.61Z"/>
            </g>
            <path class="cls-40" d="m194.36,177.53s-1.97.09-1.12-.63c3.15-2.68,2.23-6.66,2.23-6.66l1.85-.34.15,3.71-1.77,3.2s.45.97-1.35.72Z"/>
            <g>
              <polygon class="cls-41" points="196.69 178.52 196.8 175.43 198.09 173.97 197.59 178.52 196.69 178.52"/>
              <path class="cls-41" d="m197.4,172.39s.23-.32.65.61c.32.7-.2,2.44-.2,2.44,0,0-.94.1-1.56,1.38-.15.32-.44,1.06-.86,1.66-.43.6-3.74-.05-3.74-.05,0,0-.13-.29.4-.73.53-.44,1.15-.8,1.15-.8,0,0,.85.82,1.62.1.76-.72,2.54-4.61,2.54-4.61Z"/>
            </g>
          </g>
          <path class="cls-40" d="m185.86,163.95s-.98-10.26-.09-14.19c.18-.79,6.12-34.83,5.34-39.16-.66-3.62-5.66-4.86-5.66-4.86l.18-1.36s2.37-.12,2.94-.38c.57-.26,1.64-.74,3.01,0,1.37.74,1.06,1.19,2.2,1.17,1.14-.02,3.22-.13,3.22-.13,0,0,2.25,5.39,1.51,8.69-.93,4.16-4.78,5.36-4.78,5.36l-6.18,22.81,1.77,28.39-2.15-.04-1.31-6.32Z"/>
          <path class="cls-52" d="m195.87,144.25h-2.13l.56-21.13-3.92,22.22-7.86,2.46s-.78-2.26-.81-3.71c-.03-1.45,3.98-40.35,3.98-40.35,0,0,10.81.08,11.17,1.14,0,0,3.28,4.66,2.05,8.9-.75,2.57-2.41,3.79-2.41,3.79l-.63,26.68Z"/>
          <path class="cls-44" d="m194.18,75.73c-2.2.33-1.86,1.45-3.33,2.79-1.39,1.27-4.25,4.68-5.59,6.35-.94,1.17,2.03,3.76,1.25,7.98-1.34,7.24-.89,12.02-.89,12.02l4.73-1.26,2.81,2.21,1.31.22,2.04-1.17s-2.8-3.57-1.6-9.59c1.2-6.02,3.73-14.66,3-16.24-.31-.67-.4-.8-.71-1.25-.09-.14.94-.93.84-1.05-.72-.88-2.78-1.19-3.89-1.03Z"/>
          <path class="cls-14" d="m185.64,102.18s.89-12.68,4.24-14.53c1.06-.58,3.12-2.78,3.59-5.35.47-2.56,1.16-5.27,1.16-5.27,0,0,.34-.06.81,0,.31.03.67.11,1.02.29,1.09.54,2.12,1.97,1.34,5.67-1.42,6.74-3.54,15.75-2.55,18.55,1,2.83,1.88,3.43,1.85,3.39,0,0-2.71,1.62-3.92.9-1.21-.72-2.8-1.93-3.71-1.52-.9.41-1.41.4-2.24.67-.83.27-1.85-.02-1.85-.02l.24-2.78Z"/>
          <path class="cls-14" d="m192.06,77.89s1.02-.13,1.41.45c.39.58.3,2.73.3,2.73,0,0,.88-3.19,1.55-3.49.67-.3,1.9.22,1.9.22l.79-.98s-1.62-.97-3.45-.59c-1.3.27-2.19.99-2.19.99l-.31.66Z"/>
          <path class="cls-32" d="m192.48,63.54s-.91,2.28-2.39,4.56c-.11.17.46.41.43.6-.14.77-.18,1.54-.07,2.25.15.92,2.67,1.04,2.67,1.04.54,2.19-3.49,7.77-3.49,7.77,0,0,.41-.11.87-.44.42-.31,1.84-1.3,1.65-2.44-.06-.34-.07-.35.23-.49.71-.34,2.46-.75,2.87-.73.91.04,1.43.53,1.35.27-.69-2.06,2.99-9.51,1.21-10.98-1.78-1.47-5.32-1.4-5.32-1.4Z"/>
          <path class="cls-40" d="m193.3,75.97s1.01-2.15,1.38-4.2c.37-2.04-1.82-8.11-1.82-8.11,0,0,4.6,1.28,4.75,2.46.15,1.18-.44,5.33-.44,5.33,0,0-.55,2.61-.61,3.27-.06.66.03,1.21.03,1.21,0,0-2.05-.57-3.29.04Z"/>
          <path class="cls-3" d="m192.33,63.96s-2.18-1.26-.06-3.14c2.72-2.42,7.78.29,8.42,1.54.79,1.55.7,3.1.7,3.1l.19,2.6s-1.11,3.38-3.51,2.41c-.63-.26-.9.98-.9.98,0,0-1.49-1.16-1.43-1.83s1.46-2.21,1.07-3.01c-.17-.35-.87.44-1.03.15s-.7-3.04-3.44-2.8Z"/>
          <path class="cls-35" d="m194.25,106.18c-.41,0-.81-.09-1.16-.33-2.14-1.5-2.86-1.69-4.09-1.07-1.1.56-3.37.37-3.46.36-.09,0-.16-.09-.15-.18,0-.09.09-.15.18-.15.02,0,2.27.19,3.29-.32,1.43-.72,2.32-.38,4.42,1.09,1.27.89,3.56-.69,3.58-.71.08-.05.23,0,.28.08.05.07.03.18-.05.23-.08.05-1.53,1-2.85,1Z"/>
          <path class="cls-35" d="m193.74,105.03c-.07,0-.14-.05-.16-.12l-1.93-6.69c-.02-.09.02-.18.11-.2.09-.03.18.03.2.11l1.93,6.69c.02.09-.02.18-.11.2-.02,0-.03,0-.05,0Z"/>
          <path class="cls-35" d="m187.65,104.2h0c-.09,0-.16-.07-.16-.16,0-.21.81-6.04.98-7.21.01-.09.09-.15.18-.14.09.01.15.09.14.18-.39,2.77-.97,6.97-.97,7.17,0,.09-.08.16-.16.16Z"/>
          <path class="cls-35" d="m190.38,145.5s-.02,0-.03,0c-.09-.02-.15-.1-.13-.19l3.92-22.22.57-5.98.05-.04s2.67-2.32,3.15-4.71c.58-2.87-1.81-6.74-1.83-6.78-.05-.08-.02-.18.05-.22.07-.05.18-.02.22.05.1.16,2.48,4.02,1.88,7.01-.47,2.35-2.82,4.51-3.21,4.85l-.56,5.87-3.93,22.23c-.01.08-.08.13-.16.13Z"/>
          <path class="cls-3" d="m200.86,67.99s2.39,1.96,3.61.42c1.58-1.99-.12-2.63.65-3.5,1.57-1.76.47-3.88-.87-4.1-2.66-.44-3.51,2.05-3.51,2.05,0,0-1.71,2.53.13,5.13Z"/>
          <path class="cls-3" d="m194.07,64.17s1.35,2.31.5,3.58c-.64.96-1.15,1.77-.5,2.44.65.68,1.22.72,1.22.72,0,0-1.02-.86-.74-1.49.28-.63,1.4-1,1.54-2.33.14-1.33-.61-2.42-.61-2.42l-1.41-.5Z"/>
          <path class="cls-3" d="m191.58,62.21s-.86,1-.58,2c.29,1-.96,1.91-.96,1.91,0,0,1.14-.3,1.3-1.29.17-.99.03-1.28.51-1.62s.82-.23.82-.23l-1.1-.77Z"/>
          <path class="cls-42" d="m196.65,67.73s1.24-.15,1.3-.81c.06-.66.55-1.49,1-1.27.44.22.25-.85.66-.77.42.08.47.88.69.21.22-.66-.16-1.09.18-1.78l.34-.68s.86-1.23.59-.89c-.17.22-.21,1.93-.04,3.14.17,1.21.86,1.37,1.71,1.04.86-.33.58-1.55,1.13-1.24.55.3,1.24,1.46,1.02,2.86s-1.41,1.62-2.16,1.68-1.69-.72-1.69-.72c0,0-.06,1.49-1.63,2.18-1.58.69-1.47-.09-1.91,0-.43.09-.7.77-.7.77,0,0-1.23-.48-1.57-1.65-.34-1.17,1.05-2.06,1.05-2.06Z"/>
          <path class="cls-42" d="m194.51,69.69s-.64-.97.06-1.52c.98-.77,1.24-2.49.98-3.52-.24-.94-.71-1.45-1.53-1.65-.82-.2-1.22.34-1.22.34,0,0,.6-1.22,2.34-.58,1.74.64,1.57,3.44,1.13,4.6-.44,1.16-1.78,1.74-1.76,2.33Z"/>
        </g>
        <g>
          <rect class="cls-5" x="180.45" y="83.77" width="12.05" height="16.22" transform="translate(-12.49 31.64) rotate(-9.39)"/>
          <polygon class="cls-20" points="178.18 86.1 179.21 84.86 179.38 85.9 178.18 86.1"/>
          <polygon class="cls-30" points="193.12 97.97 192.6 98.45 182.4 99.75 179.45 85.53 179.96 84.99 190.68 83.22 193.12 97.97"/>
          <rect class="cls-4" x="180.59" y="84.48" width="10.87" height="14.95" transform="translate(-12.5 31.56) rotate(-9.38)"/>
          <path class="cls-35" d="m180.26,86.42c-.08,0-.15-.06-.16-.14-.01-.09.05-.17.13-.19l9.34-1.54c.09-.02.17.05.19.13.01.09-.05.17-.13.19l-9.34,1.54s-.02,0-.03,0Z"/>
          <path class="cls-35" d="m180.37,87.1c-.08,0-.15-.06-.16-.14-.01-.09.05-.17.13-.19l9.34-1.54c.09-.02.17.05.19.13.01.09-.05.17-.13.19l-9.34,1.54s-.02,0-.03,0Z"/>
          <path class="cls-35" d="m180.48,87.78c-.08,0-.15-.06-.16-.14-.01-.09.05-.17.13-.19l9.34-1.54c.09-.02.17.05.19.13.01.09-.05.17-.13.19l-9.34,1.54s-.02,0-.03,0Z"/>
          <path class="cls-35" d="m180.6,88.45c-.08,0-.15-.06-.16-.14-.01-.09.05-.17.13-.19l9.34-1.54c.09-.01.17.05.19.13.01.09-.05.17-.13.19l-9.34,1.54s-.02,0-.03,0Z"/>
          <path class="cls-35" d="m180.71,89.13c-.08,0-.15-.06-.16-.14-.01-.09.05-.17.13-.19l9.34-1.54c.09-.02.17.05.19.13.01.09-.05.17-.13.19l-9.34,1.54s-.02,0-.03,0Z"/>
          <path class="cls-35" d="m180.82,89.8c-.08,0-.15-.06-.16-.14-.01-.09.05-.17.13-.19l9.34-1.54c.09-.02.17.05.19.13.01.09-.05.17-.13.19l-9.34,1.54s-.02,0-.03,0Z"/>
          <path class="cls-35" d="m180.93,90.48c-.08,0-.15-.06-.16-.14-.01-.09.05-.17.13-.19l9.34-1.54c.09-.02.17.05.19.13.01.09-.05.17-.13.19l-9.34,1.54s-.02,0-.03,0Z"/>
          <polygon class="cls-45" points="192.72 100.14 180.83 102.1 178.18 86.1 183.66 85.2 186.41 84.74 190.07 84.14 192.72 100.14"/>
        </g>
        <path class="cls-35" d="m189.63,80.12c-.05,0-.1-.03-.13-.07-.05-.07-.03-.18.04-.23.57-.38,2.1-1.52,2.37-2.14.3-.68.04-.97.03-.99l-.12-.14.15-.11c.06-.04,1.36-.96,3.08-.96.03,0,.07,0,.1,0,1.78.04,2.98,1.1,3.03,1.15l.12.1-.94,1.17c-.06.07-.16.08-.23.02-.07-.06-.08-.16-.02-.23l.74-.92c-.34-.26-1.35-.94-2.7-.97-1.37-.03-2.49.59-2.86.82.1.2.19.59-.07,1.18-.37.84-2.4,2.22-2.49,2.28-.03.02-.06.03-.09.03Z"/>
        <path class="cls-35" d="m192.86,77.72c-.06,0-.12-.04-.15-.1-.04-.08,0-.18.08-.21.04-.02.91-.4,2.25-.32,1.32.08,1.87.31,1.89.32.08.04.12.13.08.21-.04.08-.13.12-.21.08,0,0-.52-.22-1.78-.29-1.26-.07-2.09.29-2.1.29-.02,0-.04.01-.07.01Z"/>
        <g>
          <path class="cls-44" d="m197.11,78.24s.93-.75,1.12,4.55c.19,5.3-1.07,12.93-2.68,13.6-2.63,1.09-12.79-2.42-12.79-2.42l4.68-1.42s4.37.66,6.21-.19c.53-.24.06-8.28.62-11.05.56-2.77,2.05-2.96,2.84-3.08Z"/>
          <path class="cls-32" d="m181.91,92.04s-.5-1.14-1.1-1.69c-.6-.55-1.26-.85-1.31-.61s.72,1.19.55,1.14c-.17-.05-1.01-.7-1.14-1.03-.12-.33-.09-.58-.28-.56-.19.01-.36,1.05-.27,1.24.09.19-.53.28-.36.62.17.34.06.26-.02.65-.08.39.28.45.15.69s.05.48.2.63,1.98.48,2.57.53c.59.05.75.04.75.04l6.1,1.77,1.17-2.79-7.03-.65Z"/>
          <path class="cls-14" d="m192.47,96.5s3.39-.42,4-2.84c.61-2.42.76-12.96.54-14.06-.24-1.2-1.12-.99-1.12-.99,0,0,.27-.32.68-.46.4-.15,1.57-.54,1.8,1.65.15,1.41.03,10.79-1.02,13.86-1.05,3.08-2.25,3.34-4.88,2.84Z"/>
          <path class="cls-35" d="m194.03,96.76c-3.08,0-8.02-1.6-8.27-1.68-.09-.03-.13-.12-.1-.21.03-.09.12-.13.21-.1.07.02,7.24,2.35,9.63,1.47,2.09-.77,2.41-5.74,2.54-7.86.02-.29.03-.55.05-.74.14-1.68,0-7.61,0-7.67,0-.09.07-.16.16-.17.09.01.16.07.17.16,0,.24.15,6.01,0,7.71-.02.19-.03.44-.05.73-.15,2.37-.47,7.3-2.75,8.14-.42.15-.96.22-1.57.22Z"/>
          <path class="cls-35" d="m194.68,94.47c-.07,0-.13-.04-.15-.11l-.72-2.21c-.02-.07,0-.14.06-.18.06-.04.14-.04.2,0l2.38,1.95c.07.06.08.16.02.23-.06.07-.16.08-.23.02l-1.95-1.6.55,1.68c.03.09-.02.18-.1.21-.02,0-.03,0-.05,0Z"/>
          <path class="cls-35" d="m193.95,95.21c-.08,0-.15-.06-.16-.14-.13-.86-.3-1.81-.36-1.97-.04-.05-.05-.12-.02-.17.04-.08.14-.11.22-.07.09.04.16.08.48,2.16.01.09-.05.17-.14.19,0,0-.02,0-.02,0Z"/>
        </g>
        <path class="cls-32" d="m179.83,73.1c-.33-.57-1.71-2.31-2.32-2.56-.78-.32-1.83-.72-2.22-.75-.65-.06-3.65.86-3.87,1.1-.22.23,3.09.44,3.09.44,0,0-1.18.76-.85.79.33.03,1.99-.12,2.26-.23,0,0,0,0,0,0,.37-.15.79.03.95.4l1.91,5.12,3.07-1.25-2.02-3.05Z"/>
      </g>
      <g>
        <path class="cls-4" d="m110.66,14.65v58.38c0,.59.48,1.07,1.07,1.07h36.04c4.14,0,5.86-4.61,5.86-10.31V14.65c0-.59-.48-1.07-1.07-1.07h-40.83c-.59,0-1.07.48-1.07,1.07Z"/>
        <path class="cls-46" d="m135.51,68.33s7.84-1.67,12.98-12.71c5.14-11.04,5.06-17.47,5.06-17.47,0,0,.3,25.73-.17,29.16-.23,1.69-1.23,5.52-3.97,6.52-2.24.82-7.27-1.22-7.27-1.22l-6.64-4.28Z"/>
        <path class="cls-13" d="m141.35,66.87l-39.22-.13c.94,4.19,3.78,7.24,7.12,7.24l39.22.13c-3.35,0-6.18-3.04-7.12-7.24Z"/>
        <path class="cls-13" d="m149.42,28.77h-11.83c-.18,0-.33-.15-.33-.33s.15-.33.33-.33h11.83c.18,0,.33.15.33.33s-.15.33-.33.33Z"/>
        <path class="cls-13" d="m149.42,31.96h-11.83c-.18,0-.33-.15-.33-.33s.15-.33.33-.33h11.83c.18,0,.33.15.33.33s-.15.33-.33.33Z"/>
        <path class="cls-13" d="m142.15,38.47h-19.54c-.18,0-.33-.15-.33-.33s.15-.33.33-.33h19.54c.18,0,.33.15.33.33s-.15.33-.33.33Z"/>
        <path class="cls-13" d="m149.15,42.47h-34.46c-.18,0-.33-.15-.33-.33s.15-.33.33-.33h34.46c.18,0,.33.15.33.33s-.15.33-.33.33Z"/>
        <path class="cls-13" d="m149.15,46.14h-34.46c-.18,0-.33-.15-.33-.33s.15-.33.33-.33h34.46c.18,0,.33.15.33.33s-.15.33-.33.33Z"/>
        <path class="cls-13" d="m149.15,49.8h-34.46c-.18,0-.33-.15-.33-.33s.15-.33.33-.33h34.46c.18,0,.33.15.33.33s-.15.33-.33.33Z"/>
        <path class="cls-13" d="m149.15,53.46h-34.46c-.18,0-.33-.15-.33-.33s.15-.33.33-.33h34.46c.18,0,.33.15.33.33s-.15.33-.33.33Z"/>
        <path class="cls-13" d="m149.42,63.31h-11.83c-.18,0-.33-.15-.33-.33s.15-.33.33-.33h11.83c.18,0,.33.15.33.33s-.15.33-.33.33Z"/>
        <path class="cls-10" d="m138.51,64.56c-.09,0-.18-.04-.24-.11-.62-.71-.63-2.23-.36-3.43.04-.19.12-.48.23-.79-.18-1.42-.51-2.79-.98-3.35-.13-.15-.26-.23-.36-.22-.22.01-.41.14-.6.39-.82,1.08-1.05,3.92-.77,5.13.04.18-.07.35-.24.39-.18.04-.35-.07-.39-.24-.32-1.35-.08-4.39.88-5.67.31-.41.68-.63,1.09-.65.23,0,.57.06.9.46.46.56.79,1.63,1,2.81.16-.19.34-.34.55-.43.46-.2.95-.12,1.4.22.02-.09.04-.18.06-.26.21-.87.6-1.41,1.11-1.58.42-.13.82-.06,1.17.23.35.28.63.75.84,1.31.18-1.11.52-2.04,1.11-2.3.54-.24,1.14.06,1.8.9.26.34.41.82.56,1.28.18.56.36,1.13.67,1.22.21.05.83-.76,1.07-1.06.36-.46.67-.85.97-1.01.1-.05.21-.05.31,0,.1.05.16.15.17.26l.05.54c.02.18-.12.34-.3.35-.13.01-.27-.07-.32-.19-.12.14-.24.3-.36.45-.59.75-1.15,1.46-1.76,1.29-.65-.18-.89-.93-1.12-1.65-.13-.41-.26-.83-.45-1.07-.42-.54-.8-.8-1.02-.7-.56.25-.84,2.02-.89,3.69.15,1.02.17,1.99.12,2.51-.02.16-.15.29-.31.29-.16.01-.3-.11-.33-.27-.09-.5-.15-1.47-.13-2.53-.19-1.19-.55-2.36-1.08-2.79-.18-.15-.36-.18-.56-.11-.29.09-.53.49-.68,1.12-.05.23-.09.47-.12.71.73,1.04,1.15,2.77.64,3.9-.04.1-.13.17-.24.19-.11.02-.21-.02-.29-.09-.62-.62-.88-2.34-.78-3.79-.04-.04-.07-.08-.11-.12-.32-.33-.64-.43-.94-.31-.23.1-.46.41-.65.86.2,1.65.18,3.32.01,4.01-.03.12-.12.21-.24.24-.03,0-.05,0-.08,0Zm2.65-3.48c.04.52.12,1,.23,1.39,0-.44-.08-.93-.23-1.39Z"/>
        <path class="cls-13" d="m126.6,63.31h-11.83c-.18,0-.33-.15-.33-.33s.15-.33.33-.33h11.83c.18,0,.33.15.33.33s-.15.33-.33.33Z"/>
        <path class="cls-7" d="m115.7,66.13c-.29,0-.71-.14-1.04-.79-.77-1.53-.68-5.24.47-6.79.32-.44.68-.64,1-.71-.04-.29-.08-.57-.12-.83-.07-.48-.13-.91-.17-1.25-.02-.18.11-.34.29-.36.18-.02.34.11.36.29.04.34.1.76.17,1.23.04.29.08.6.13.92.53.12,1.06.65,1.52,1.35.3-.62.74-1.03,1.35-1.03h0c1.09,0,2.03,1.48,2.45,2.24.27-.32.61-.48.96-.46,1.13.07,1.93,1.4,2.38,2.67.16-.43.39-.81.72-1.03.29-.19.76-.33,1.41.04.16.09.21.29.12.44-.09.16-.29.21-.44.12-.44-.25-.66-.11-.73-.06-.48.31-.73,1.41-.66,2.22,0,.02,0,.04,0,.06.02.18-.12.33-.29.35-.17.01-.34-.11-.35-.29,0-.02,0-.04,0-.06-.13-1.31-1.06-3.76-2.18-3.82-.26-.01-.46.23-.6.48.46,1.04.9,2.49.43,3.18-.18.26-.46.38-.81.34-.08,0-.15-.05-.21-.11-.6-.69-.56-2.36-.13-3.42-.04-.08-.08-.16-.12-.23-.63-1.21-1.41-2.02-1.94-2.02h0c-.49,0-.78.58-.94,1.1.4.77.7,1.62.85,2.33.28,1.33.08,2.3-.56,2.72-.06.04-.12.06-.19.05-1.05-.03-1.03-2.8-1.03-3.12,0-.65.08-1.32.23-1.91-.37-.66-.79-1.19-1.15-1.41.34,2.78.53,6.24-.98,7.48-.06.05-.13.07-.21.07Zm.52-7.64c-.2.07-.39.21-.56.45-.98,1.32-1.09,4.77-.42,6.11.08.16.2.35.36.41,1.17-1.15.94-4.45.62-6.97Zm2.29,2.48c-.17,1.41.06,2.9.3,3.3.27-.34.32-1.01.14-1.91-.1-.46-.25-.94-.44-1.39Zm3.62,1.06c-.13.72-.09,1.52.14,1.91.04-.01.06-.04.07-.06.17-.24.1-.96-.21-1.86Z"/>
        <g class="cls-9">
          <path class="cls-10" d="m120.53,42.23c-.56,0-1.13-.06-1.69-.19-4.15-.92-6.77-5.05-5.84-9.2h0c.45-2.01,1.65-3.72,3.39-4.83,1.74-1.1,3.8-1.47,5.81-1.02,2.01.45,3.72,1.65,4.83,3.39,1.1,1.74,1.46,3.8,1.02,5.81s-1.65,3.72-3.39,4.83c-1.25.79-2.67,1.2-4.12,1.2Zm-4.36-8.68c-.53,2.4.98,4.78,3.38,5.31,1.16.26,2.35.05,3.36-.59,1-.64,1.7-1.63,1.96-2.79.26-1.16.05-2.35-.59-3.36s-1.63-1.7-2.79-1.96c-2.4-.53-4.78.98-5.31,3.38h0Z"/>
        </g>
        <path class="cls-8" d="m117.72,33.9c.34-1.54,1.87-2.52,3.42-2.17,1.54.34,2.52,1.87,2.17,3.42-.34,1.54-1.87,2.52-3.42,2.17-1.54-.34-2.52-1.87-2.17-3.42Z"/>
        <path class="cls-37" d="m102.76,68.7s9.55,1.23,19.85,1.11c10.3-.12,19.17-1.49,19.17-1.49l-.42-1.46-39.22-.13s.17.99.62,1.97Z"/>
      </g>
      <g>
        <path class="cls-23" d="m144,172.18s7.5-9.51,6.72-14.5c-.79-4.99-3.54.21-6.72,1.16-3.18.95,3.63-13.47-1.51-18.83-5.14-5.36-12.16,4.45-15.06,10.33-2.9,5.88-16.68-21.13-21.27-17.35-4.59,3.79,5.97,39.04,5.97,39.04l31.86.15Z"/>
        <path class="cls-4" d="m117.49,171.98c-.01-.12-1.41-12.47-4.09-20.54-2.63-7.92-3.64-9.23-3.68-9.28l.5-.42c.04.05,1.09,1.33,3.8,9.5,2.7,8.14,4.1,20.55,4.12,20.67l-.65.07Z"/>
        <path class="cls-4" d="m128.21,172.37l-.65-.07c0-.08.82-7.77,3.26-13.83,2.43-6.05,5.73-10.26,5.77-10.31l.51.4s-3.28,4.19-5.68,10.15c-2.4,5.97-3.21,13.57-3.21,13.65Z"/>
        <path class="cls-4" d="m131.92,172.53l-.53-.38s2.85-3.9,6.5-7.11c3.68-3.24,8.63-4.5,8.84-4.55l.16.63s-5.01,1.27-8.57,4.41c-3.59,3.17-6.37,6.97-6.4,7.01Z"/>
        <polygon class="cls-4" points="115.85 159.58 109.85 157.25 110.09 156.64 115.65 158.81 120.54 153.08 121.04 153.5 115.85 159.58"/>
        <polygon class="cls-4" points="114.04 152.3 108 150.13 108.22 149.52 113.74 151.5 116.42 146.64 116.99 146.95 114.04 152.3"/>
        <polygon class="cls-4" points="111.85 146.05 108.03 145.11 108.19 144.48 111.54 145.3 113.61 141.79 114.17 142.12 111.85 146.05"/>
        <polygon class="cls-4" points="117.02 166.2 111.51 162.28 111.88 161.75 116.88 165.3 121.21 159.49 121.73 159.88 117.02 166.2"/>
        <path class="cls-4" d="m133.9,152.79l-.04-.35c-.41-3.29-.56-5.1-.44-5.37l.6.26-.3-.13.31.1c-.06.3.17,2.57.43,4.72l5.67-1.15.13.64-6.36,1.28Z"/>
        <polygon class="cls-4" points="131.15 158.29 129.59 152.49 130.21 152.32 131.64 157.62 136.93 157.41 136.95 158.06 131.15 158.29"/>
        <polygon class="cls-4" points="128.82 166.14 125.79 159.33 126.38 159.06 129.18 165.35 133.59 164 133.78 164.63 128.82 166.14"/>
        <rect class="cls-4" x="144.62" y="160.21" width=".65" height="6.02" transform="translate(-41.24 277.19) rotate(-79.87)"/>
        <polygon class="cls-4" points="144.88 166.94 138.05 165.6 138.17 164.96 145 166.3 144.88 166.94"/>
        <rect class="cls-4" x="137.87" y="165.85" width=".65" height="6.46" transform="translate(-60.7 259.22) rotate(-75.12)"/>
      </g>
      <path class="cls-4" d="m23.81,172.08c-.68-1.45-16.63-35.58-15.74-44.05.04-.34.15-1.39.89-1.52,2.14-.37,7.18,9.51,13.08,21.5,1.31,2.66,2.56,5.2,3.27,6.49-.15-1.23-.48-3.39-.86-5.93-2.25-14.94-4.27-29.65-2.26-31.19.25-.19.56-.22.88-.08,2.2.97,4.23,10.61,6.86,24.13,1.14,5.88,2.43,12.51,3.14,13.59.55-1.42.93-4.52,1.34-7.79.83-6.71,1.49-11.15,3.13-11.77.46-.17.94-.05,1.43.38,3.74,3.28-.34,24.65-.52,25.56l-.64-.12c1.18-6.08,3.6-22.43.73-24.94-.44-.39-.69-.3-.77-.27-1.4.53-2.13,6.47-2.72,11.25-.41,3.32-.8,6.45-1.38,7.95-.18.46-.43.53-.62.52-.9-.08-1.61-3.1-3.77-14.23-1.87-9.6-4.42-22.75-6.48-23.66-.14-.06-.19-.02-.22,0-1.87,1.43,1.09,21.12,2.51,30.58.65,4.31.99,6.59.95,7.09-.02.23-.16.34-.3.37-.44.09-.64-.19-4.3-7.63-3.39-6.89-10.41-21.15-12.32-21.15-.02,0-.04,0-.06,0-.12.02-.28.28-.35.95-.88,8.29,15.51,43.35,15.68,43.7l-.59.28Z"/>
      <g>
        <g>
          <path class="cls-23" d="m50.02,44.09c3.09-.57,5.74,2.29,5.14,5.37-.79,4.08-2.41,12.64-2.41,14.81,0,2.88-10.22-4.36-8.44-13.45.84-4.3,3.3-6.28,5.72-6.73Z"/>
          <path class="cls-23" d="m44.02,63.06s-8.58-1.42-11.72-6.25,5.27-9.52,7.62-7.02c2.36,2.51,5.53,12.28,4.09,13.26Z"/>
          <path class="cls-23" d="m43.62,67.9s-6.85,1.83-6.49-1.13c.36-2.96,3.43-3.32,5.1-2.56,1.67.75,1.9,2.49,1.39,3.7Z"/>
          <path class="cls-23" d="m58.71,59.17c-1.23,1.77-4,.28-3.28-1.74,1.34-3.73,3.23-7.99,4.86-7.95,2.9.07-.26,7.73-1.55,9.64-.01.02-.03.04-.04.06Z"/>
          <path class="cls-23" d="m52.14,79.32s-.04-1.95-3.52-9.04c-3.49-7.09-10.22-13.64-10.22-13.64l-.12-1.27s7.17,7.38,10.1,11.56,4.14,5.41,4.14,5.41l-3.85-22.66s4.2,15.17,5.47,20.28c1.59,6.36,1.17,9.07,1.17,9.07l-3.17.29Z"/>
        </g>
        <path class="cls-4" d="m52.23,64.7c-.1.02-.2-.02-.25-.11-.02-.04-2.28-4.28-2.11-9.73.17-5.37,2.64-9.22,2.67-9.26.07-.11.21-.14.32-.07.11.07.14.21.07.32-.02.04-2.43,3.79-2.59,9.02-.16,5.33,2.03,9.46,2.05,9.5.06.11.02.25-.09.31-.02.01-.04.02-.06.02Z"/>
        <path class="cls-4" d="m51.42,63.44l-.13-.37s-1.25-3.56-3.22-5.41c-1.42-1.35-3.29-1.46-3.3-1.46-.13,0-.22-.11-.22-.24,0-.13.12-.22.24-.22.08,0,2.05.12,3.6,1.59,1.68,1.59,2.82,4.26,3.2,5.23l1.31-1.51c.08-.1.23-.11.32-.02.1.08.11.23.02.32l-1.82,2.1Z"/>
        <path class="cls-4" d="m50.14,56.37c-.12.02-.24-.05-.27-.17,0-.03-.89-3.3-2.38-3.92-1.53-.64-2.77-.55-2.78-.55-.13.01-.24-.08-.25-.21-.01-.13.08-.24.21-.25.05,0,1.36-.11,3,.58,1.69.71,2.61,4.08,2.64,4.23.03.12-.04.25-.16.28,0,0,0,0-.01,0Z"/>
        <path class="cls-4" d="m50.37,52.4s-.03,0-.05,0c-.13,0-.23-.11-.22-.23,0-.02.03-1.95-.87-3.19-.88-1.21-2.91-1.29-2.93-1.29-.13,0-.23-.11-.22-.24,0-.13.11-.23.24-.22.09,0,2.27.08,3.28,1.47.99,1.36.96,3.38.96,3.47,0,.11-.08.2-.18.22Z"/>
        <path class="cls-4" d="m51.25,49.22s0,0,0,0c-.12.02-.24-.06-.27-.19,0-.02-.28-1.53-.83-2.46-.52-.89-1.52-1.13-1.53-1.13-.12-.03-.2-.15-.17-.28s.15-.2.28-.17c.05.01,1.2.29,1.82,1.34.6,1,.88,2.55.89,2.62.02.12-.06.24-.18.27Z"/>
        <path class="cls-4" d="m50.36,57.45c-.08.02-.16,0-.21-.07-.09-.09-.08-.24.01-.32l2.96-2.78c.09-.09.24-.08.32.01.09.09.08.24-.01.32l-2.96,2.78s-.07.05-.11.06Z"/>
        <path class="cls-4" d="m50.52,52.19c-.1.02-.21-.03-.25-.13-.06-.11,0-.25.11-.31l3.51-1.69c.11-.05.25,0,.31.11.06.11,0,.25-.11.31l-3.51,1.69s-.04.01-.05.02Z"/>
        <path class="cls-4" d="m38.84,55.83s-.05,0-.07,0l-6.11-.69c-.13-.01-.22-.13-.2-.25.01-.13.13-.22.25-.2l6.11.69c.13.01.22.13.2.25-.01.1-.09.18-.18.2Z"/>
        <path class="cls-4" d="m40.63,58.7s-.01,0-.02,0l-4.34.53c-.13.02-.24-.07-.26-.2-.02-.13.08-.24.2-.26l4.34-.53c.13-.02.24.07.26.2.01.12-.07.23-.18.25Z"/>
        <path class="cls-4" d="m39.78,61.5c-.1.02-.21-.03-.25-.12-.06-.11,0-.25.11-.31l2.57-1.25c.12-.05.25,0,.31.11.06.11,0,.25-.11.31l-2.57,1.25s-.04.01-.05.02Z"/>
        <path class="cls-4" d="m42.22,62.21c-.09.02-.19-.02-.25-.11-.06-.11-.03-.25.08-.31l1.22-.7c.11-.06.25-.03.31.08.06.11.03.25-.08.31l-1.22.7s-.05.02-.07.03Z"/>
        <path class="cls-4" d="m44.3,62.64c-.09.02-.18-.02-.23-.09-.02-.03-1.93-2.72-3.53-4.46-1.62-1.76-3.72-4.83-3.74-4.86-.07-.1-.04-.25.06-.32.1-.07.25-.04.32.06.02.03,2.1,3.08,3.7,4.81,1.62,1.76,3.55,4.48,3.57,4.5.07.1.05.25-.05.32-.03.02-.06.03-.09.04Z"/>
      </g>
      <g>
        <path class="cls-26" d="m89.29,186.63s5.17,3.11,10.11,3.23c5.61.13,7.41-1.73,7.41-1.73l3.58,12.19s-1.57,1.41-7.07,2.24c-5.77.87-9.44-.61-11.58-1.69-.55-.28-.86-.46-.86-.46l-1.58-13.78Z"/>
        <g>
          <path class="cls-24" d="m94.4,199.61l-1.52-9.34,1.52,9.34Z"/>
          <rect class="cls-4" x="93.38" y="190.2" width=".51" height="9.46" transform="translate(-30 17.51) rotate(-9.21)"/>
        </g>
        <g>
          <path class="cls-24" d="m97.21,200.28l-1.53-9.18,1.53,9.18Z"/>
          <polygon class="cls-4" points="96.96 200.32 95.42 191.14 95.93 191.05 97.46 200.23 96.96 200.32"/>
        </g>
        <g>
          <path class="cls-24" d="m100.17,200.42l-1.68-8.71,1.68,8.71Z"/>
          <rect class="cls-4" x="99.07" y="191.63" width=".51" height="8.87" transform="translate(-35.4 22.41) rotate(-10.94)"/>
        </g>
        <g>
          <path class="cls-24" d="m103.22,200.23l-1.71-8.11,1.71,8.11Z"/>
          <rect class="cls-4" x="102.11" y="192.03" width=".51" height="8.29" transform="translate(-38.29 25.35) rotate(-11.91)"/>
        </g>
        <g>
          <path class="cls-24" d="m106.6,199.78l-2.34-7.93,2.34,7.93Z"/>
          <rect class="cls-4" x="105.17" y="191.68" width=".51" height="8.27" transform="translate(-51.19 37.92) rotate(-16.47)"/>
        </g>
      </g>
      <g>
        <path class="cls-26" d="m50.59,183.5s5.93,1.12,10.6-.48c5.31-1.82,6.35-4.19,6.35-4.19l7.59,10.19s-.98,1.87-5.86,4.56c-5.11,2.82-9.07,2.71-11.45,2.44-.62-.07-.97-.13-.97-.13l-6.26-12.38Z"/>
        <g>
          <path class="cls-24" d="m59.89,193.89l-4.66-8.24,4.66,8.24Z"/>
          <rect class="cls-4" x="57.3" y="185.04" width=".51" height="9.46" transform="translate(-86.04 53) rotate(-29.52)"/>
        </g>
        <g>
          <path class="cls-24" d="m62.76,193.55l-4.63-8.08,4.63,8.08Z"/>
          <polygon class="cls-4" points="62.54 193.67 57.91 185.6 58.36 185.34 62.98 193.42 62.54 193.67"/>
        </g>
        <g>
          <path class="cls-24" d="m65.58,192.65l-4.6-7.58,4.6,7.58Z"/>
          <rect class="cls-4" x="63.03" y="184.43" width=".51" height="8.87" transform="translate(-88.79 60.23) rotate(-31.25)"/>
        </g>
        <g>
          <path class="cls-24" d="m68.38,191.42l-4.42-7.01,4.42,7.01Z"/>
          <rect class="cls-4" x="65.92" y="183.77" width=".51" height="8.29" transform="translate(-90.01 64.23) rotate(-32.22)"/>
        </g>
        <g>
          <path class="cls-24" d="m71.39,189.82l-4.95-6.63,4.95,6.63Z"/>
          <rect class="cls-4" x="68.66" y="182.37" width=".51" height="8.27" transform="translate(-97.95 78.39) rotate(-36.78)"/>
        </g>
      </g>
      <g>
        <path class="cls-26" d="m118.73,180.6s6.03.32,10.44-1.89c5.02-2.52,5.73-5,5.73-5l8.88,9.09s-.73,1.98-5.2,5.3c-4.68,3.47-8.62,3.9-11.02,3.94-.62.01-.98,0-.98,0l-7.86-11.43Z"/>
        <g>
          <path class="cls-24" d="m129.33,189.66l-5.72-7.54,5.72,7.54Z"/>
          <rect class="cls-4" x="126.21" y="181.16" width=".51" height="9.46" transform="translate(-86.65 114.26) rotate(-37.19)"/>
        </g>
        <g>
          <path class="cls-24" d="m132.12,188.93l-5.66-7.39,5.66,7.39Z"/>
          <polygon class="cls-4" points="131.92 189.09 126.26 181.7 126.67 181.39 132.33 188.78 131.92 189.09"/>
        </g>
        <g>
          <path class="cls-24" d="m134.8,187.67l-5.57-6.9,5.57,6.9Z"/>
          <rect class="cls-4" x="131.76" y="179.79" width=".51" height="8.87" transform="translate(-86.43 123.83) rotate(-38.92)"/>
        </g>
        <g>
          <path class="cls-24" d="m137.42,186.08l-5.32-6.36,5.32,6.36Z"/>
          <rect class="cls-4" x="134.5" y="178.75" width=".51" height="8.29" transform="translate(-85.94 129) rotate(-39.89)"/>
        </g>
        <g>
          <path class="cls-24" d="m140.18,184.09l-5.79-5.9,5.79,5.9Z"/>
          <rect class="cls-4" x="137.03" y="177" width=".51" height="8.27" transform="translate(-87.57 147.98) rotate(-44.45)"/>
        </g>
      </g>
      <g>
        <path class="cls-26" d="m139.67,182.08s3.72,4.76,8.28,6.63c5.19,2.13,7.54,1.04,7.54,1.04l-1.02,12.67s-1.97.75-7.41-.44c-5.7-1.25-8.6-3.94-10.21-5.72-.42-.46-.64-.74-.64-.74l3.46-13.43Z"/>
        <g>
          <path class="cls-24" d="m139.8,196.03l1.93-9.27-1.93,9.27Z"/>
          <rect class="cls-4" x="136.03" y="191.14" width="9.46" height=".51" transform="translate(-75.29 290.22) rotate(-78.25)"/>
        </g>
        <g>
          <path class="cls-24" d="m142.19,197.66l1.85-9.12-1.85,9.12Z"/>
          <polygon class="cls-4" points="141.93 197.61 143.79 188.48 144.29 188.59 142.44 197.71 141.93 197.61"/>
        </g>
        <g>
          <path class="cls-24" d="m144.9,198.85l1.54-8.73-1.54,8.73Z"/>
          <rect class="cls-4" x="141.24" y="194.23" width="8.87" height=".51" transform="translate(-71.2 304.07) rotate(-79.97)"/>
        </g>
        <g>
          <path class="cls-24" d="m147.82,199.77l1.3-8.19-1.3,8.19Z"/>
          <rect class="cls-4" x="144.32" y="195.42" width="8.29" height=".51" transform="translate(-68.13 311.51) rotate(-80.95)"/>
        </g>
        <g>
          <path class="cls-24" d="m151.13,200.55l.65-8.25-.65,8.25Z"/>
          <rect class="cls-4" x="147.32" y="196.17" width="8.27" height=".51" transform="translate(-56.24 332.03) rotate(-85.51)"/>
        </g>
      </g>
      <g>
        <path class="cls-26" d="m161,183.51s5.21,3.05,10.14,3.11c5.61.07,7.39-1.81,7.39-1.81l3.72,12.15s-1.56,1.43-7.05,2.32c-5.76.93-9.45-.5-11.6-1.56-.56-.27-.87-.45-.87-.45l-1.73-13.76Z"/>
        <g>
          <path class="cls-24" d="m166.26,196.43l-1.62-9.32,1.62,9.32Z"/>
          <rect class="cls-4" x="165.19" y="187.04" width=".51" height="9.46" transform="translate(-30.39 31.16) rotate(-9.86)"/>
        </g>
        <g>
          <path class="cls-24" d="m169.08,197.07l-1.64-9.16,1.64,9.16Z"/>
          <polygon class="cls-4" points="168.82 197.11 167.19 187.95 167.69 187.86 169.33 197.02 168.82 197.11"/>
        </g>
        <g>
          <path class="cls-24" d="m172.04,197.18l-1.78-8.69,1.78,8.69Z"/>
          <rect class="cls-4" x="170.89" y="188.4" width=".51" height="8.87" transform="translate(-35.24 38.3) rotate(-11.59)"/>
        </g>
        <g>
          <path class="cls-24" d="m175.09,196.96l-1.8-8.09,1.8,8.09Z"/>
          <rect class="cls-4" x="173.93" y="188.77" width=".51" height="8.29" transform="translate(-37.78 42.49) rotate(-12.56)"/>
        </g>
        <g>
          <path class="cls-24" d="m178.46,196.47l-2.43-7.91,2.43,7.91Z"/>
          <rect class="cls-4" x="176.99" y="188.38" width=".51" height="8.27" transform="translate(-48.81 60.69) rotate(-17.12)"/>
        </g>
      </g>
      <g>
        <path class="cls-26" d="m213.42,116.96s.52-12.04,3.76-19.29c3.24-7.25,14.27-10.15,14.67-5.92.4,4.23-9.61,4.57-11.95,6.04-2.34,1.47-3.84,8.08-5.05,12.17-1.22,4.09-1.43,7-1.43,7Z"/>
        <path class="cls-26" d="m211.42,113.97c-.43-2.01,1.71-17.7-.43-21.48-2.14-3.78-9.81-4.93-10.25-8.92-.45-3.99,1.44-6.58,7.7-3.64,6.26,2.93,5.55,16.66,4.98,21.35s-.98,13.04-.98,13.04l-1.02-.34Z"/>
        <path class="cls-26" d="m218.12,111.92s1.23-8.98,7.76-12.32c6.52-3.34,12.23,2.05,11.37,4.14-.86,2.08-8.25-1.8-12-.77-3.75,1.02-6.4,9.12-6.4,9.12l-.72-.17Z"/>
        <path class="cls-4" d="m212.1,111.01s-.01,0-.02,0c-.09-.01-.15-.09-.14-.18.02-.15,1.65-14.55.71-19.04-.62-2.99-2.94-4.64-4.81-5.96-.93-.66-1.73-1.23-2.11-1.84-.1-.16-.36-.58-.1-.78.57-.42,3.58,1.7,4.77,3.05.2.23.39.33.47.26.28-.23.22-1.84-1.18-3.81-1.25-1.75-4.37-2.92-6.07-2.27-.95.36-1.38,1.25-1.24,2.57.48,4.43,8.49,6.34,8.57,6.36.09.02.14.11.12.2-.02.09-.1.14-.2.12-.34-.08-8.32-1.98-8.82-6.64-.2-1.87.68-2.61,1.45-2.91,1.85-.7,5.11.5,6.45,2.39,1.32,1.85,1.69,3.8,1.12,4.25-.14.11-.45.22-.91-.3-1.37-1.55-3.95-3.13-4.33-3.01.01.01.03.11.18.35.34.55,1.12,1.11,2.02,1.75,1.81,1.29,4.29,3.05,4.94,6.16.95,4.55-.64,18.55-.71,19.15,0,.08-.08.14-.16.14Z"/>
        <path class="cls-4" d="m214.31,111.01s-.02,0-.03,0c-.09-.02-.15-.1-.13-.19.08-.45,2.06-11.12,3.85-13.18,1.12-1.3,3.94-2.07,6.67-2.82,1.66-.46,3.24-.89,4.28-1.41,1.1-.54,1.71-1.27,1.53-1.8-.2-.58-1.45-1.06-4.31-.47-1.88.38-3.16,1.1-3.8,2.12-.63,1-.42,1.93-.41,1.94.02.09-.03.18-.12.2-.09.02-.17-.03-.2-.12-.01-.04-.25-1.08.46-2.19.7-1.1,2.05-1.86,4.01-2.27,2.6-.53,4.36-.28,4.69.68.24.71-.42,1.57-1.69,2.2-1.07.53-2.66.97-4.34,1.43-2.68.73-5.45,1.49-6.51,2.72-1.73,1.99-3.75,12.91-3.77,13.02-.01.08-.08.13-.16.13Z"/>
        <path class="cls-4" d="m218.73,111.01s-.03,0-.04,0c-.09-.02-.14-.11-.12-.2.08-.31,2.06-7.62,5.49-8.82,1.99-.7,5.37.25,8.08,1.01,1.78.5,3.62,1.01,4,.68.14-.12.17-.32.08-.59-.4-1.24-3.12-3.43-5.57-3.68-2.18-.22-3.58.34-3.72.81-.06.19.14.34.32.43.54.28,1.43.23,2.37.18,1.1-.06,2.24-.12,3.1.31,1.6.79,1.96,1.41,1.98,1.44.04.08.02.18-.06.22-.08.04-.18.02-.22-.06,0,0-.35-.57-1.84-1.31-.79-.39-1.88-.33-2.94-.27-.98.05-1.91.1-2.54-.22-.56-.29-.52-.66-.48-.81.21-.69,1.78-1.27,4.07-1.04,2.61.26,5.41,2.55,5.85,3.9.16.5,0,.78-.17.93-.49.43-1.88.07-4.3-.61-2.67-.75-6-1.68-7.88-1.02-3.27,1.15-5.27,8.52-5.28,8.6-.02.07-.09.12-.16.12Z"/>
      </g>
    </g>
  </g>
</svg>